Fraunces_BoldOpMin.ufo
<glyph name="exclam" format="2">
  <advance width="526"/>
  <unicode hex="0021"/>
  <outline>
    <contour>
      <point x="88.0" y="1416.0821917808219"/>
      <point x="172.0" y="1476.0"/>
      <point x="272.0" y="1476.0" type="curve" smooth="yes"/>
      <point x="398.0" y="1476.0"/>
      <point x="460.0" y="1412.1038961038962"/>
      <point x="460.0" y="1312.0" type="curve" smooth="yes"/>
      <point x="460.0" y="1278.6470588235295"/>
      <point x="455.703589601397" y="1226.0464801800217"/>
      <point x="450.0" y="1186.0" type="curve" smooth="yes"/>
      <point x="356.0" y="526.0" type="line" smooth="yes"/>
      <point x="348.0" y="470.0"/>
      <point x="326.0" y="440.0"/>
      <point x="278.0" y="440.0" type="curve" smooth="yes"/>
      <point x="230.0" y="440.0"/>
      <point x="210.0" y="468.0"/>
      <point x="200.0" y="530.0" type="curve" smooth="yes"/>
      <point x="98.0" y="1188.0" type="line" smooth="yes"/>
      <point x="90.0" y="1240.0"/>
      <point x="88.0" y="1276.7323943661972"/>
      <point x="88.0" y="1314.0" type="curve" smooth="yes"/>
    </contour>
    <contour>
      <point x="268.0" y="-30.0" type="curve" smooth="yes"/>
      <point x="376.0" y="-30.0"/>
      <point x="460.0" y="58.0"/>
      <point x="460.0" y="164.0" type="curve" smooth="yes"/>
      <point x="460.0" y="270.0"/>
      <point x="376.0" y="356.0"/>
      <point x="268.0" y="356.0" type="curve" smooth="yes"/>
      <point x="162.0" y="356.0"/>
      <point x="78.0" y="270.0"/>
      <point x="78.0" y="164.0" type="curve" smooth="yes"/>
      <point x="78.0" y="58.0"/>
      <point x="162.0" y="-30.0"/>
    </contour>
  </outline>
</glyph>
<glyph name="quotesingle" format="2">
  <advance width="518"/>
  <unicode hex="0027"/>
  <outline>
    <contour>
      <point x="188.0" y="1268.0" type="curve" smooth="yes"/>
      <point x="248.0" y="1250.0" type="line" smooth="yes"/>
      <point x="294.0" y="1236.0"/>
      <point x="310.0" y="1204.0"/>
      <point x="310.0" y="1150.0" type="curve" smooth="yes"/>
      <point x="310.0" y="1076.0"/>
      <point x="242.0" y="1028.0"/>
      <point x="138.0" y="1010.0" type="curve" smooth="yes"/>
      <point x="80.0" y="1000.0"/>
      <point x="60.0" y="970.0"/>
      <point x="60.0" y="936.0" type="curve" smooth="yes"/>
      <point x="60.0" y="896.0"/>
      <point x="88.0" y="866.0"/>
      <point x="140.0" y="866.0" type="curve" smooth="yes"/>
      <point x="314.0" y="866.0"/>
      <point x="500.0" y="1024.4642857142858"/>
      <point x="500.0" y="1274.0" type="curve" smooth="yes"/>
      <point x="500.0" y="1506.0"/>
      <point x="384.0" y="1622.0"/>
      <point x="246.0" y="1622.0" type="curve" smooth="yes"/>
      <point x="141.3181818181818" y="1622.0"/>
      <point x="58.0" y="1545.1688311688313"/>
      <point x="58.0" y="1448.0" type="curve" smooth="yes"/>
      <point x="58.0" y="1363.4"/>
      <point x="101.86177713751061" y="1293.8414668587468"/>
    </contour>
  </outline>
</glyph>
<glyph name="parenleft" format="2">
  <advance width="830"/>
  <unicode hex="0028"/>
  <outline>
    <contour>
      <point x="142.0" y="580.0" type="curve" smooth="yes"/>
      <point x="142.0" y="108.0"/>
      <point x="392.0" y="-228.0"/>
      <point x="666.0" y="-324.0" type="curve" smooth="yes"/>
      <point x="702.0" y="-336.0"/>
      <point x="738.0" y="-340.0"/>
      <point x="758.0" y="-340.0" type="curve" smooth="yes"/>
      <point x="788.0" y="-340.0"/>
      <point x="808.0" y="-316.0"/>
      <point x="808.0" y="-284.0" type="curve" smooth="yes"/>
      <point x="808.0" y="-264.0"/>
      <point x="798.0" y="-246.0"/>
      <point x="764.0" y="-230.0" type="curve" smooth="yes"/>
      <point x="564.0" y="-138.0"/>
      <point x="438.0" y="160.0"/>
      <point x="438.0" y="580.0" type="curve" smooth="yes"/>
      <point x="438.0" y="998.0"/>
      <point x="566.0" y="1298.0"/>
      <point x="764.0" y="1390.0" type="curve" smooth="yes"/>
      <point x="798.0" y="1406.0"/>
      <point x="808.0" y="1426.0"/>
      <point x="808.0" y="1450.0" type="curve" smooth="yes"/>
      <point x="808.0" y="1476.0"/>
      <point x="788.0" y="1502.0"/>
      <point x="760.0" y="1502.0" type="curve" smooth="yes"/>
      <point x="740.0" y="1502.0"/>
      <point x="716.0" y="1492.0"/>
      <point x="672.0" y="1476.0" type="curve" smooth="yes"/>
      <point x="374.0" y="1360.0"/>
      <point x="142.0" y="1004.0"/>
    </contour>
  </outline>
</glyph>
<glyph name="asterisk" format="2">
  <advance width="1012"/>
  <unicode hex="002A"/>
  <outline>
    <contour>
      <point x="540.0" y="1032.0" type="line"/>
      <point x="540.0" y="1184.0"/>
      <point x="646.0" y="1222.0"/>
      <point x="646.0" y="1328.0" type="curve" smooth="yes"/>
      <point x="646.0" y="1428.0"/>
      <point x="578.0" y="1474.0"/>
      <point x="508.0" y="1474.0" type="curve" smooth="yes"/>
      <point x="440.0" y="1474.0"/>
      <point x="372.0" y="1428.0"/>
      <point x="370.0" y="1336.0" type="curve" smooth="yes"/>
      <point x="368.0" y="1230.0"/>
      <point x="474.0" y="1186.0"/>
      <point x="474.0" y="1032.0" type="curve"/>
    </contour>
    <contour>
      <point x="518.0" y="1062.0" type="line"/>
      <point x="374.0" y="1110.0"/>
      <point x="370.0" y="1222.0"/>
      <point x="270.0" y="1254.0" type="curve" smooth="yes"/>
      <point x="174.0" y="1286.0"/>
      <point x="110.0" y="1236.0"/>
      <point x="88.0" y="1168.0" type="curve" smooth="yes"/>
      <point x="66.0" y="1104.0"/>
      <point x="90.0" y="1026.0"/>
      <point x="176.0" y="994.0" type="curve" smooth="yes"/>
      <point x="276.0" y="960.0"/>
      <point x="352.0" y="1048.0"/>
      <point x="498.0" y="1000.0" type="curve"/>
    </contour>
    <contour>
      <point x="482.0" y="1050.0" type="line"/>
      <point x="392.0" y="928.0"/>
      <point x="284.0" y="960.0"/>
      <point x="222.0" y="874.0" type="curve" smooth="yes"/>
      <point x="164.0" y="792.0"/>
      <point x="192.0" y="716.0"/>
      <point x="248.0" y="674.0" type="curve" smooth="yes"/>
      <point x="304.0" y="634.0"/>
      <point x="386.0" y="632.0"/>
      <point x="440.0" y="704.0" type="curve" smooth="yes"/>
      <point x="504.0" y="790.0"/>
      <point x="444.0" y="888.0"/>
      <point x="536.0" y="1012.0" type="curve"/>
    </contour>
    <contour>
      <point x="482.0" y="1014.0" type="line"/>
      <point x="572.0" y="890.0"/>
      <point x="508.0" y="798.0"/>
      <point x="570.0" y="712.0" type="curve" smooth="yes"/>
      <point x="630.0" y="630.0"/>
      <point x="712.0" y="634.0"/>
      <point x="768.0" y="674.0" type="curve" smooth="yes"/>
      <point x="822.0" y="714.0"/>
      <point x="850.0" y="792.0"/>
      <point x="798.0" y="868.0" type="curve" smooth="yes"/>
      <point x="738.0" y="954.0"/>
      <point x="626.0" y="928.0"/>
      <point x="536.0" y="1052.0" type="curve"/>
    </contour>
    <contour>
      <point x="518.0" y="1002.0" type="line"/>
      <point x="662.0" y="1048.0"/>
      <point x="732.0" y="960.0"/>
      <point x="832.0" y="992.0" type="curve" smooth="yes"/>
      <point x="928.0" y="1024.0"/>
      <point x="950.0" y="1102.0"/>
      <point x="928.0" y="1168.0" type="curve" smooth="yes"/>
      <point x="908.0" y="1234.0"/>
      <point x="842.0" y="1284.0"/>
      <point x="754.0" y="1258.0" type="curve" smooth="yes"/>
      <point x="654.0" y="1226.0"/>
      <point x="644.0" y="1112.0"/>
      <point x="498.0" y="1064.0" type="curve"/>
    </contour>
  </outline>
</glyph>
<glyph name="comma" format="2">
  <advance width="596"/>
  <unicode hex="002C"/>
  <outline>
    <contour>
      <point x="218.0" y="-16.0" type="curve" smooth="yes"/>
      <point x="278.0" y="-34.0" type="line" smooth="yes"/>
      <point x="324.0" y="-48.0"/>
      <point x="340.0" y="-80.0"/>
      <point x="340.0" y="-134.0" type="curve" smooth="yes"/>
      <point x="340.0" y="-208.0"/>
      <point x="272.0" y="-256.0"/>
      <point x="168.0" y="-274.0" type="curve" smooth="yes"/>
      <point x="110.0" y="-284.0"/>
      <point x="90.0" y="-314.0"/>
      <point x="90.0" y="-348.0" type="curve" smooth="yes"/>
      <point x="90.0" y="-388.0"/>
      <point x="118.0" y="-418.0"/>
      <point x="170.0" y="-418.0" type="curve" smooth="yes"/>
      <point x="344.0" y="-418.0"/>
      <point x="530.0" y="-259.53571428571433"/>
      <point x="530.0" y="-10.0" type="curve" smooth="yes"/>
      <point x="530.0" y="222.0"/>
      <point x="414.0" y="338.0"/>
      <point x="276.0" y="338.0" type="curve" smooth="yes"/>
      <point x="171.3181818181818" y="338.0"/>
      <point x="88.0" y="261.16883116883116"/>
      <point x="88.0" y="164.0" type="curve" smooth="yes"/>
      <point x="88.0" y="79.4"/>
      <point x="131.86177713751061" y="9.84146685874681"/>
    </contour>
  </outline>
</glyph>
<glyph name="two" format="2">
  <advance width="1090"/>
  <unicode hex="0032"/>
  <outline>
    <contour>
      <point x="376.0" y="540.0" type="curve" smooth="yes"/>
      <point x="138.04370755244858" y="381.3624717016324"/>
      <point x="36.0" y="234.0"/>
      <point x="36.0" y="80.0" type="curve" smooth="yes"/>
      <point x="36.0" y="10.0"/>
      <point x="74.0" y="-30.0"/>
      <point x="144.0" y="-30.0" type="curve" smooth="yes"/>
      <point x="284.92929292929296" y="-30.0"/>
      <point x="239.08510638297872" y="124.0"/>
      <point x="362.0" y="124.0" type="curve" smooth="yes"/>
      <point x="477.0935960591133" y="124.0"/>
      <point x="558.9180327868852" y="-30.0"/>
      <point x="758.0" y="-30.0" type="curve" smooth="yes"/>
      <point x="954.8484848484849" y="-30.0"/>
      <point x="1048.0" y="111.45549738219896"/>
      <point x="1048.0" y="312.0" type="curve" smooth="yes"/>
      <point x="1048.0" y="373.6216216216216"/>
      <point x="1028.0" y="426.0"/>
      <point x="980.0" y="426.0" type="curve" smooth="yes"/>
      <point x="953.6" y="426.0"/>
      <point x="927.933961895945" y="409.783017658105"/>
      <point x="914.0" y="364.0" type="curve" smooth="yes"/>
      <point x="889.9416559370372" y="279.79579577963017"/>
      <point x="856.2222222222222" y="254.0"/>
      <point x="784.0" y="254.0" type="curve" smooth="yes"/>
      <point x="678.0" y="254.0"/>
      <point x="568.0" y="342.0"/>
      <point x="436.0" y="342.0" type="curve" smooth="yes"/>
      <point x="278.2857142857143" y="342.0"/>
      <point x="206.0" y="248.0"/>
      <point x="206.0" y="154.0" type="curve"/>
      <point x="228.0" y="156.0" type="line"/>
      <point x="228.0" y="280.0"/>
      <point x="340.35506789790827" y="352.60356805025015"/>
      <point x="598.0" y="472.0" type="curve" smooth="yes"/>
      <point x="861.7155051873503" y="595.866373648604"/>
      <point x="994.0" y="746.0"/>
      <point x="994.0" y="966.0" type="curve" smooth="yes"/>
      <point x="994.0" y="1174.0"/>
      <point x="824.0" y="1328.0"/>
      <point x="546.0" y="1328.0" type="curve" smooth="yes"/>
      <point x="244.0" y="1328.0"/>
      <point x="64.0" y="1150.0"/>
      <point x="64.0" y="974.0" type="curve" smooth="yes"/>
      <point x="64.0" y="862.0"/>
      <point x="122.93827160493828" y="796.0"/>
      <point x="218.0" y="796.0" type="curve" smooth="yes"/>
      <point x="312.2857142857143" y="796.0"/>
      <point x="394.0" y="868.0"/>
      <point x="394.0" y="980.0" type="curve" smooth="yes"/>
      <point x="394.0" y="1040.0" type="line" smooth="yes"/>
      <point x="394.0" y="1132.6206896551723"/>
      <point x="430.8333333333333" y="1198.0"/>
      <point x="524.0" y="1198.0" type="curve" smooth="yes"/>
      <point x="598.5945945945946" y="1198.0"/>
      <point x="662.0" y="1116.0"/>
      <point x="662.0" y="960.0" type="curve" smooth="yes"/>
      <point x="662.0" y="796.0"/>
      <point x="590.0" y="682.0"/>
    </contour>
  </outline>
</glyph>
<glyph name="six" format="2">
  <advance width="1162"/>
  <unicode hex="0036"/>
  <outline>
    <contour>
      <point x="694.0" y="1326.0" type="curve" smooth="yes"/>
      <point x="332.94237288135594" y="1326.0"/>
      <point x="60.0" y="1105.586776859504"/>
      <point x="60.0" y="564.0" type="curve" smooth="yes"/>
      <point x="60.0" y="154.8"/>
      <point x="271.7142857142857" y="-30.0"/>
      <point x="554.0" y="-30.0" type="curve" smooth="yes"/>
      <point x="877.4154929577464" y="-30.0"/>
      <point x="1104.0" y="168.18965517241378"/>
      <point x="1104.0" y="454.0" type="curve" smooth="yes"/>
      <point x="1104.0" y="693.1428571428571"/>
      <point x="951.1634615384615" y="826.0"/>
      <point x="730.0" y="826.0" type="curve" smooth="yes"/>
      <point x="484.8059701492537" y="826.0"/>
      <point x="286.0" y="658.0"/>
      <point x="286.0" y="454.0" type="curve"/>
      <point x="388.0" y="424.0" type="line"/>
      <point x="388.0" y="558.0"/>
      <point x="485.05882352941177" y="654.0"/>
      <point x="608.0" y="654.0" type="curve" smooth="yes"/>
      <point x="716.5106382978723" y="654.0"/>
      <point x="808.0" y="562.8055555555555"/>
      <point x="808.0" y="386.0" type="curve" smooth="yes"/>
      <point x="808.0" y="221.008547008547"/>
      <point x="730.0" y="132.0"/>
      <point x="604.0" y="132.0" type="curve" smooth="yes"/>
      <point x="486.0" y="132.0"/>
      <point x="386.0" y="239.74703557312256"/>
      <point x="386.0" y="602.0" type="curve" smooth="yes"/>
      <point x="386.0" y="1043.197080291971"/>
      <point x="498.0" y="1186.0"/>
      <point x="616.0" y="1186.0" type="curve" smooth="yes"/>
      <point x="697.0" y="1186.0"/>
      <point x="742.0" y="1132.0"/>
      <point x="742.0" y="1078.0" type="curve" smooth="yes"/>
      <point x="742.0" y="1042.0" type="line" smooth="yes"/>
      <point x="742.0" y="929.5"/>
      <point x="823.3506493506494" y="862.0"/>
      <point x="916.0" y="862.0" type="curve" smooth="yes"/>
      <point x="1021.8350515463917" y="862.0"/>
      <point x="1090.0" y="926.304347826087"/>
      <point x="1090.0" y="1036.0" type="curve" smooth="yes"/>
      <point x="1090.0" y="1188.0"/>
      <point x="949.6" y="1326.0"/>
    </contour>
  </outline>
</glyph>
<glyph name="seven" format="2">
  <advance width="972"/>
  <unicode hex="0037"/>
  <outline>
    <contour>
      <point x="788.0" y="1108.0" type="curve" smooth="yes"/>
      <point x="634.0" y="924.0" type="line" smooth="yes"/>
      <point x="306.0" y="532.0"/>
      <point x="272.0" y="360.0"/>
      <point x="272.0" y="206.0" type="curve" smooth="yes"/>
      <point x="272.0" y="60.0"/>
      <point x="350.0" y="-30.0"/>
      <point x="470.0" y="-30.0" type="curve" smooth="yes"/>
      <point x="620.0" y="-30.0"/>
      <point x="698.0" y="60.0"/>
      <point x="698.0" y="162.0" type="curve" smooth="yes"/>
      <point x="698.0" y="282.0"/>
      <point x="580.0" y="332.0"/>
      <point x="580.0" y="462.0" type="curve" smooth="yes"/>
      <point x="580.0" y="578.0"/>
      <point x="618.0" y="680.0"/>
      <point x="722.0" y="808.0" type="curve" smooth="yes"/>
      <point x="884.0" y="1008.0" type="line" smooth="yes"/>
      <point x="964.0825409122865" y="1106.867334459613"/>
      <point x="972.0" y="1146.0"/>
      <point x="972.0" y="1192.0" type="curve" smooth="yes"/>
      <point x="972.0" y="1254.0"/>
      <point x="920.1290322580645" y="1298.0"/>
      <point x="838.0" y="1298.0" type="curve" smooth="yes"/>
      <point x="182.0" y="1298.0" type="line" smooth="yes"/>
      <point x="110.0" y="1298.0"/>
      <point x="70.0" y="1252.0"/>
      <point x="64.0" y="1184.0" type="curve" smooth="yes"/>
      <point x="42.0" y="912.0" type="line" smooth="yes"/>
      <point x="38.0" y="856.0"/>
      <point x="70.0" y="826.0"/>
      <point x="110.0" y="826.0" type="curve" smooth="yes"/>
      <point x="156.0" y="826.0"/>
      <point x="188.0" y="858.0"/>
      <point x="206.0" y="900.0" type="curve" smooth="yes"/>
      <point x="240.0" y="980.0" type="line" smooth="yes"/>
      <point x="262.0" y="1032.0"/>
      <point x="302.0" y="1050.0"/>
      <point x="360.0" y="1050.0" type="curve" smooth="yes"/>
      <point x="850.0" y="1050.0" type="line"/>
      <point x="832.0" y="1230.0" type="line"/>
      <point x="832.0" y="1194.0"/>
      <point x="826.0" y="1154.0"/>
    </contour>
  </outline>
</glyph>
<glyph name="question" format="2">
  <advance width="920"/>
  <unicode hex="003F"/>
  <outline>
    <contour>
      <point x="290.0" y="588.0" type="line" smooth="yes"/>
      <point x="288.0" y="602.0"/>
      <point x="288.0" y="606.0"/>
      <point x="288.0" y="614.0" type="curve" smooth="yes"/>
      <point x="288.0" y="654.0"/>
      <point x="308.0" y="694.0"/>
      <point x="364.0" y="720.0" type="curve" smooth="yes"/>
      <point x="454.0" y="760.0" type="line" smooth="yes"/>
      <point x="548.0" y="802.0"/>
      <point x="598.0" y="909.261744966443"/>
      <point x="598.0" y="1038.0" type="curve" smooth="yes"/>
      <point x="598.0" y="1212.0"/>
      <point x="530.0" y="1296.0"/>
      <point x="424.0" y="1296.0" type="curve" smooth="yes"/>
      <point x="350.0" y="1296.0"/>
      <point x="308.0" y="1256.0"/>
      <point x="308.0" y="1184.0" type="curve" smooth="yes"/>
      <point x="308.0" y="1100.0" type="line" smooth="yes"/>
      <point x="308.0" y="1016.0"/>
      <point x="238.0" y="954.0"/>
      <point x="152.0" y="954.0" type="curve" smooth="yes"/>
      <point x="66.0" y="954.0"/>
      <point x="10.0" y="1014.0"/>
      <point x="10.0" y="1118.0" type="curve" smooth="yes"/>
      <point x="10.0" y="1270.9006622516556"/>
      <point x="202.62672811059906" y="1430.0"/>
      <point x="450.0" y="1430.0" type="curve" smooth="yes"/>
      <point x="742.1888412017167" y="1430.0"/>
      <point x="910.0" y="1296.9213483146068"/>
      <point x="910.0" y="1054.0" type="curve" smooth="yes"/>
      <point x="910.0" y="853.6774193548387"/>
      <point x="781.342810520857" y="724.5371242083428"/>
      <point x="570.0" y="640.0" type="curve" smooth="yes"/>
      <point x="540.0" y="628.0" type="line" smooth="yes"/>
      <point x="494.0" y="610.0"/>
      <point x="470.0" y="576.0"/>
      <point x="456.0" y="514.0" type="curve" smooth="yes"/>
      <point x="452.0" y="496.0" type="line" smooth="yes"/>
      <point x="442.0" y="444.0"/>
      <point x="418.0" y="418.0"/>
      <point x="374.0" y="418.0" type="curve" smooth="yes"/>
      <point x="334.0" y="418.0"/>
      <point x="307.7040679758454" y="453.449083383575"/>
      <point x="300.0" y="512.0" type="curve" smooth="yes"/>
    </contour>
    <contour>
      <point x="376.0" y="-30.0" type="curve" smooth="yes"/>
      <point x="484.0" y="-30.0"/>
      <point x="568.0" y="58.0"/>
      <point x="568.0" y="164.0" type="curve" smooth="yes"/>
      <point x="568.0" y="270.0"/>
      <point x="484.0" y="356.0"/>
      <point x="376.0" y="356.0" type="curve" smooth="yes"/>
      <point x="270.0" y="356.0"/>
      <point x="186.0" y="270.0"/>
      <point x="186.0" y="164.0" type="curve" smooth="yes"/>
      <point x="186.0" y="58.0"/>
      <point x="270.0" y="-30.0"/>
    </contour>
  </outline>
</glyph>
<glyph name="G" format="2">
  <advance width="767"/>
  <unicode hex="0047"/>
  <outline>
    <contour>
      <point x="675" y="35" type="curve" smooth="yes"/>
      <point x="675" y="199" type="line" smooth="yes"/>
      <point x="675" y="230"/>
      <point x="688" y="247"/>
      <point x="706" y="258" type="curve" smooth="yes"/>
      <point x="716" y="264" type="line" smooth="yes"/>
      <point x="738" y="277"/>
      <point x="744" y="287"/>
      <point x="744" y="307" type="curve" smooth="yes"/>
      <point x="744" y="329"/>
      <point x="728" y="342"/>
      <point x="703" y="342" type="curve" smooth="yes"/>
      <point x="449" y="342" type="line" smooth="yes"/>
      <point x="423" y="342"/>
      <point x="408" y="328"/>
      <point x="408" y="305" type="curve" smooth="yes"/>
      <point x="408" y="280"/>
      <point x="424" y="268"/>
      <point x="453" y="262" type="curve" smooth="yes"/>
      <point x="478" y="257" type="line" smooth="yes"/>
      <point x="502" y="252"/>
      <point x="516" y="231"/>
      <point x="516" y="201" type="curve" smooth="yes"/>
      <point x="516" y="146" type="line" smooth="yes"/>
      <point x="516" y="106"/>
      <point x="492" y="85"/>
      <point x="432" y="85" type="curve" smooth="yes"/>
      <point x="289" y="85"/>
      <point x="193" y="194"/>
      <point x="193" y="365" type="curve" smooth="yes"/>
      <point x="193" y="530"/>
      <point x="273" y="640"/>
      <point x="404" y="640" type="curve" smooth="yes"/>
      <point x="468" y="640"/>
      <point x="532" y="612"/>
      <point x="599" y="516" type="curve" smooth="yes"/>
      <point x="627" y="476"/>
      <point x="649" y="461"/>
      <point x="671" y="461" type="curve" smooth="yes"/>
      <point x="694" y="461"/>
      <point x="710" y="477"/>
      <point x="710" y="502" type="curve" smooth="yes"/>
      <point x="710" y="513"/>
      <point x="706" y="523"/>
      <point x="703" y="538" type="curve" smooth="yes"/>
      <point x="675" y="673" type="line" smooth="yes"/>
      <point x="668" y="705"/>
      <point x="653" y="714"/>
      <point x="633" y="714" type="curve" smooth="yes"/>
      <point x="605" y="714"/>
      <point x="588" y="682"/>
      <point x="556" y="682" type="curve" smooth="yes"/>
      <point x="536" y="682"/>
      <point x="499" y="714"/>
      <point x="417" y="714" type="curve" smooth="yes"/>
      <point x="182" y="714"/>
      <point x="30" y="552"/>
      <point x="30" y="330" type="curve" smooth="yes"/>
      <point x="30" y="122"/>
      <point x="162" y="-15"/>
      <point x="351" y="-15" type="curve" smooth="yes"/>
      <point x="441" y="-15"/>
      <point x="485" y="31"/>
      <point x="519" y="31" type="curve" smooth="yes"/>
      <point x="553" y="31"/>
      <point x="577" y="-15"/>
      <point x="615" y="-15" type="curve" smooth="yes"/>
      <point x="659" y="-15"/>
      <point x="675" y="5"/>
    </contour>
  </outline>
</glyph>
<glyph name="I" format="2">
  <advance width="812"/>
  <unicode hex="0049"/>
  <outline>
    <contour>
      <point x="570.0" y="252.0" type="curve" smooth="yes"/>
      <point x="570.0" y="1146.0" type="line" smooth="yes"/>
      <point x="570.0" y="1200.0"/>
      <point x="594.0" y="1224.0"/>
      <point x="644.0" y="1236.0" type="curve" smooth="yes"/>
      <point x="688.0" y="1246.0" type="line" smooth="yes"/>
      <point x="736.0" y="1256.0"/>
      <point x="760.0" y="1280.0"/>
      <point x="760.0" y="1328.0" type="curve" smooth="yes"/>
      <point x="760.0" y="1378.0"/>
      <point x="734.0" y="1400.0"/>
      <point x="680.0" y="1400.0" type="curve" smooth="yes"/>
      <point x="134.0" y="1400.0" type="line" smooth="yes"/>
      <point x="74.0" y="1400.0"/>
      <point x="50.0" y="1378.0"/>
      <point x="50.0" y="1328.0" type="curve" smooth="yes"/>
      <point x="50.0" y="1280.0"/>
      <point x="72.0" y="1260.0"/>
      <point x="118.0" y="1248.0" type="curve" smooth="yes"/>
      <point x="168.0" y="1236.0" type="line" smooth="yes"/>
      <point x="216.0" y="1224.0"/>
      <point x="242.0" y="1200.0"/>
      <point x="242.0" y="1146.0" type="curve" smooth="yes"/>
      <point x="242.0" y="252.0" type="line" smooth="yes"/>
      <point x="242.0" y="200.0"/>
      <point x="216.0" y="176.0"/>
      <point x="168.0" y="164.0" type="curve" smooth="yes"/>
      <point x="130.0" y="154.0" type="line" smooth="yes"/>
      <point x="78.0" y="140.0"/>
      <point x="52.0" y="118.0"/>
      <point x="52.0" y="72.0" type="curve" smooth="yes"/>
      <point x="52.0" y="22.0"/>
      <point x="74.0" y="0.0"/>
      <point x="134.0" y="0.0" type="curve" smooth="yes"/>
      <point x="678.0" y="0.0" type="line" smooth="yes"/>
      <point x="734.0" y="0.0"/>
      <point x="762.0" y="22.0"/>
      <point x="762.0" y="72.0" type="curve" smooth="yes"/>
      <point x="762.0" y="120.0"/>
      <point x="738.0" y="144.0"/>
      <point x="690.0" y="154.0" type="curve" smooth="yes"/>
      <point x="644.0" y="164.0" type="line" smooth="yes"/>
      <point x="594.0" y="174.0"/>
      <point x="570.0" y="200.0"/>
    </contour>
  </outline>
</glyph>
<glyph name="J" format="2">
  <advance width="962"/>
  <unicode hex="004A"/>
  <anchor x="550.0" y="1464.0" name="center"/>
  <outline>
    <contour>
      <point x="872.0" y="280.0" type="curve" smooth="yes"/>
      <point x="872.0" y="344.9047619047619"/>
      <point x="848.0" y="416.0"/>
      <point x="818.0" y="468.0" type="curve" smooth="yes"/>
      <point x="786.0" y="524.0"/>
      <point x="772.0" y="592.0"/>
      <point x="772.0" y="684.0" type="curve" smooth="yes"/>
      <point x="770.0" y="1114.0" type="line" smooth="yes"/>
      <point x="770.0" y="1190.0"/>
      <point x="794.0" y="1228.0"/>
      <point x="838.0" y="1242.0" type="curve" smooth="yes"/>
      <point x="864.0" y="1250.0" type="line" smooth="yes"/>
      <point x="906.0" y="1264.0"/>
      <point x="930.0" y="1282.0"/>
      <point x="930.0" y="1330.0" type="curve" smooth="yes"/>
      <point x="930.0" y="1378.0"/>
      <point x="906.0" y="1400.0"/>
      <point x="850.0" y="1400.0" type="curve" smooth="yes"/>
      <point x="316.0" y="1400.0" type="line" smooth="yes"/>
      <point x="274.19354838709677" y="1400.0"/>
      <point x="244.0" y="1378.0"/>
      <point x="244.0" y="1330.0" type="curve" smooth="yes"/>
      <point x="244.0" y="1284.0"/>
      <point x="270.0" y="1260.0"/>
      <point x="316.0" y="1250.0" type="curve" smooth="yes"/>
      <point x="344.0" y="1244.0" type="line" smooth="yes"/>
      <point x="410.0" y="1230.0"/>
      <point x="442.0" y="1192.0"/>
      <point x="442.0" y="1112.0" type="curve" smooth="yes"/>
      <point x="442.0" y="664.0" type="line" smooth="yes"/>
      <point x="442.0" y="542.1999999999999"/>
      <point x="460.0" y="452.0"/>
      <point x="510.0" y="370.0" type="curve" smooth="yes"/>
      <point x="548.5434928360551" y="306.51660003473285"/>
      <point x="576.0" y="270.0"/>
      <point x="576.0" y="208.0" type="curve" smooth="yes"/>
      <point x="576.0" y="132.0"/>
      <point x="526.2222222222222" y="88.0"/>
      <point x="448.0" y="88.0" type="curve" smooth="yes"/>
      <point x="374.0" y="88.0"/>
      <point x="346.0" y="134.0"/>
      <point x="346.0" y="206.0" type="curve" smooth="yes"/>
      <point x="346.0" y="266.0" type="line" smooth="yes"/>
      <point x="346.0" y="372.0"/>
      <point x="284.0" y="440.0"/>
      <point x="196.0" y="440.0" type="curve" smooth="yes"/>
      <point x="82.0" y="440.0"/>
      <point x="22.0" y="362.0"/>
      <point x="22.0" y="244.0" type="curve" smooth="yes"/>
      <point x="22.0" y="80.0"/>
      <point x="160.0" y="-38.0"/>
      <point x="410.0" y="-38.0" type="curve" smooth="yes"/>
      <point x="694.3076923076924" y="-38.0"/>
      <point x="872.0" y="88.07100591715977"/>
    </contour>
  </outline>
</glyph>
<glyph name="Q" format="2">
  <advance width="1596"/>
  <unicode hex="0051"/>
  <outline>
    <contour>
      <point x="802.0" y="374.0" type="curve" smooth="yes"/>
      <point x="904.8196036670902" y="-161.04275241578398"/>
      <point x="1142.0" y="-352.0"/>
      <point x="1332.0" y="-352.0" type="curve" smooth="yes"/>
      <point x="1430.0" y="-352.0"/>
      <point x="1478.0" y="-320.0"/>
      <point x="1508.0" y="-268.0" type="curve" smooth="yes"/>
      <point x="1540.0" y="-214.0" type="line" smooth="yes"/>
      <point x="1564.0" y="-176.0"/>
      <point x="1576.0" y="-142.0"/>
      <point x="1576.0" y="-100.0" type="curve" smooth="yes"/>
      <point x="1576.0" y="-60.0"/>
      <point x="1546.6666666666667" y="-34.0"/>
      <point x="1512.0" y="-34.0" type="curve" smooth="yes"/>
      <point x="1463.142857142857" y="-34.0"/>
      <point x="1428.9302325581396" y="-64.0"/>
      <point x="1360.0" y="-64.0" type="curve" smooth="yes"/>
      <point x="1182.0" y="-64.0"/>
      <point x="1026.0" y="40.0"/>
      <point x="930.0" y="400.0" type="curve" smooth="yes"/>
      <point x="914.0" y="456.0"/>
      <point x="890.0" y="488.0"/>
      <point x="854.0" y="488.0" type="curve" smooth="yes"/>
      <point x="824.0" y="488.0"/>
      <point x="796.0" y="466.0"/>
      <point x="796.0" y="432.0" type="curve" smooth="yes"/>
      <point x="796.0" y="410.0"/>
      <point x="798.0" y="396.0"/>
    </contour>
    <contour>
      <point x="794.0" y="1426.0" type="curve" smooth="yes"/>
      <point x="340.0" y="1426.0"/>
      <point x="60.0" y="1100.0"/>
      <point x="60.0" y="708.0" type="curve" smooth="yes"/>
      <point x="60.0" y="270.0"/>
      <point x="344.0" y="-30.0"/>
      <point x="794.0" y="-30.0" type="curve" smooth="yes"/>
      <point x="1234.0" y="-30.0"/>
      <point x="1526.0" y="280.0"/>
      <point x="1526.0" y="710.0" type="curve" smooth="yes"/>
      <point x="1526.0" y="1122.0"/>
      <point x="1232.0" y="1426.0"/>
    </contour>
    <contour>
      <point x="948.0" y="1246.0"/>
      <point x="1182.0" y="958.0"/>
      <point x="1182.0" y="578.0" type="curve" smooth="yes"/>
      <point x="1182.0" y="300.0"/>
      <point x="1068.0" y="154.0"/>
      <point x="890.0" y="154.0" type="curve" smooth="yes"/>
      <point x="640.0" y="154.0"/>
      <point x="400.0" y="446.0"/>
      <point x="400.0" y="830.0" type="curve" smooth="yes"/>
      <point x="400.0" y="1080.0"/>
      <point x="512.0" y="1246.0"/>
      <point x="700.0" y="1246.0" type="curve" smooth="yes"/>
    </contour>
  </outline>
</glyph>
<glyph name="bracketright" format="2">
  <advance width="786"/>
  <unicode hex="005D"/>
  <outline>
    <contour>
      <point x="312.0" y="-118.0" type="line" smooth="yes"/>
      <point x="312.0" y="-178.0"/>
      <point x="264.0" y="-226.0"/>
      <point x="206.0" y="-226.0" type="curve" smooth="yes"/>
      <point x="106.0" y="-226.0" type="line" smooth="yes"/>
      <point x="44.0" y="-226.0"/>
      <point x="20.0" y="-244.0"/>
      <point x="20.0" y="-286.0" type="curve" smooth="yes"/>
      <point x="20.0" y="-320.0"/>
      <point x="44.0" y="-352.0"/>
      <point x="102.0" y="-352.0" type="curve" smooth="yes"/>
      <point x="466.0" y="-352.0" type="line" smooth="yes"/>
      <point x="534.0" y="-352.0"/>
      <point x="586.0" y="-290.0"/>
      <point x="586.0" y="-214.0" type="curve" smooth="yes"/>
      <point x="586.0" y="1376.0" type="line" smooth="yes"/>
      <point x="586.0" y="1452.0"/>
      <point x="534.0" y="1514.0"/>
      <point x="466.0" y="1514.0" type="curve" smooth="yes"/>
      <point x="102.0" y="1514.0" type="line" smooth="yes"/>
      <point x="44.0" y="1514.0"/>
      <point x="20.0" y="1480.0"/>
      <point x="20.0" y="1448.0" type="curve" smooth="yes"/>
      <point x="20.0" y="1406.0"/>
      <point x="44.0" y="1388.0"/>
      <point x="106.0" y="1388.0" type="curve" smooth="yes"/>
      <point x="206.0" y="1388.0" type="line" smooth="yes"/>
      <point x="264.0" y="1388.0"/>
      <point x="312.0" y="1340.0"/>
      <point x="312.0" y="1280.0" type="curve" smooth="yes"/>
    </contour>
  </outline>
</glyph>
<glyph name="asciicircum" format="2">
  <advance width="860"/>
  <unicode hex="005E"/>
  <outline>
    <contour>
      <point x="90.0" y="996.0" type="curve" smooth="yes"/>
      <point x="260.0" y="1278.0" type="line" smooth="yes"/>
      <point x="328.0" y="1392.0"/>
      <point x="364.10526315789474" y="1430.0"/>
      <point x="432.0" y="1430.0" type="curve" smooth="yes"/>
      <point x="493.2972972972973" y="1430.0"/>
      <point x="532.0" y="1392.0"/>
      <point x="600.0" y="1282.0" type="curve" smooth="yes"/>
      <point x="774.0" y="996.0" type="line" smooth="yes"/>
      <point x="794.6891103055567" y="961.9937612219011"/>
      <point x="816.0" y="924.7272727272727"/>
      <point x="816.0" y="884.0" type="curve" smooth="yes"/>
      <point x="816.0" y="849.2"/>
      <point x="799.2413793103449" y="826.0"/>
      <point x="762.0" y="826.0" type="curve" smooth="yes"/>
      <point x="730.9090909090909" y="826.0"/>
      <point x="698.4162867886184" y="836.6396964646009"/>
      <point x="648.0" y="890.0" type="curve" smooth="yes"/>
      <point x="374.0" y="1180.0" type="line"/>
      <point x="488.0" y="1180.0" type="line"/>
      <point x="214.0" y="890.0" type="line" smooth="yes"/>
      <point x="164.0" y="838.0"/>
      <point x="133.33333333333334" y="826.0"/>
      <point x="104.0" y="826.0" type="curve" smooth="yes"/>
      <point x="65.33333333333334" y="826.0"/>
      <point x="46.0" y="848.4"/>
      <point x="46.0" y="882.0" type="curve" smooth="yes"/>
      <point x="46.0" y="923.4545454545455"/>
      <point x="67.68263709527236" y="958.9794332992165"/>
    </contour>
  </outline>
</glyph>
<glyph name="grave" format="2">
  <advance width="590"/>
  <unicode hex="0060"/>
  <anchor x="462.0" y="962.0" name="center"/>
  <outline>
    <contour>
      <point x="488.0" y="1158.0" type="curve" smooth="yes"/>
      <point x="354.0" y="1278.0" type="line" smooth="yes"/>
      <point x="263.2240263853291" y="1359.2919166698546"/>
      <point x="180.797385620915" y="1400.0"/>
      <point x="104.0" y="1400.0" type="curve" smooth="yes"/>
      <point x="24.200000000000045" y="1400.0"/>
      <point x="-10.0" y="1368.0"/>
      <point x="-10.0" y="1308.0" type="curve" smooth="yes"/>
      <point x="-10.0" y="1252.0"/>
      <point x="42.406303788222885" y="1202.1171632952996"/>
      <point x="136.0" y="1160.0" type="curve" smooth="yes"/>
      <point x="336.0" y="1070.0" type="line" smooth="yes"/>
      <point x="394.0" y="1044.0"/>
      <point x="440.54545454545456" y="1028.0"/>
      <point x="474.0" y="1028.0" type="curve" smooth="yes"/>
      <point x="511.9230769230769" y="1028.0"/>
      <point x="532.0" y="1049.2727272727273"/>
      <point x="532.0" y="1080.0" type="curve" smooth="yes"/>
      <point x="532.0" y="1107.2093023255813"/>
      <point x="512.0" y="1136.0"/>
    </contour>
  </outline>
</glyph>
<glyph name="d" format="2">
  <advance width="1222"/>
  <unicode hex="0064"/>
  <outline>
    <contour>
      <point x="1078.0" y="1386.0" type="line" smooth="yes"/>
      <point x="1078.0" y="1430.0"/>
      <point x="1058.0" y="1448.0"/>
      <point x="1028.0" y="1448.0" type="curve" smooth="yes"/>
      <point x="998.0" y="1448.0"/>
      <point x="972.0" y="1442.0"/>
      <point x="930.0" y="1424.0" type="curve" smooth="yes"/>
      <point x="706.0" y="1332.0" type="line" smooth="yes"/>
      <point x="664.0" y="1314.0"/>
      <point x="640.0" y="1294.0"/>
      <point x="640.0" y="1258.0" type="curve" smooth="yes"/>
      <point x="640.0" y="1226.0"/>
      <point x="666.0" y="1208.0"/>
      <point x="706.0" y="1208.0" type="curve" smooth="yes"/>
      <point x="724.0" y="1208.0" type="line" smooth="yes"/>
      <point x="760.0" y="1208.0"/>
      <point x="782.0" y="1188.0"/>
      <point x="782.0" y="1138.0" type="curve" smooth="yes"/>
      <point x="782.0" y="156.0" type="line" smooth="yes"/>
      <point x="782.0" y="40.0"/>
      <point x="832.0" y="0.0"/>
      <point x="946.0" y="0.0" type="curve" smooth="yes"/>
      <point x="1134.0" y="0.0" type="line" smooth="yes"/>
      <point x="1194.0" y="0.0"/>
      <point x="1212.0" y="22.0"/>
      <point x="1212.0" y="60.0" type="curve" smooth="yes"/>
      <point x="1212.0" y="94.0"/>
      <point x="1198.0" y="120.0"/>
      <point x="1152.0" y="132.0" type="curve" smooth="yes"/>
      <point x="1136.0" y="136.0" type="line" smooth="yes"/>
      <point x="1100.0" y="146.0"/>
      <point x="1078.0" y="174.0"/>
      <point x="1078.0" y="234.0" type="curve" smooth="yes"/>
    </contour>
    <contour>
      <point x="866.0" y="298.0" type="line"/>
      <point x="782.0" y="214.0"/>
      <point x="714.0" y="180.0"/>
      <point x="608.0" y="180.0" type="curve" smooth="yes"/>
      <point x="466.0" y="180.0"/>
      <point x="366.0" y="306.0"/>
      <point x="366.0" y="508.0" type="curve" smooth="yes"/>
      <point x="366.0" y="702.0"/>
      <point x="494.0" y="824.0"/>
      <point x="662.0" y="824.0" type="curve" smooth="yes"/>
      <point x="756.0" y="824.0"/>
      <point x="816.0" y="776.0"/>
      <point x="868.0" y="692.0" type="curve"/>
      <point x="940.0" y="814.0" type="line"/>
      <point x="854.0" y="932.0"/>
      <point x="736.0" y="980.0"/>
      <point x="576.0" y="980.0" type="curve" smooth="yes"/>
      <point x="284.0" y="980.0"/>
      <point x="52.0" y="760.0"/>
      <point x="52.0" y="438.0" type="curve" smooth="yes"/>
      <point x="52.0" y="164.0"/>
      <point x="246.0" y="-28.0"/>
      <point x="488.0" y="-28.0" type="curve" smooth="yes"/>
      <point x="666.0" y="-28.0"/>
      <point x="778.0" y="50.0"/>
      <point x="924.0" y="204.0" type="curve"/>
    </contour>
  </outline>
</glyph>
<glyph name="n" format="2">
  <advance width="1282"/>
  <unicode hex="006E"/>
  <outline>
    <contour>
      <point x="484.0" y="912.0" type="line" smooth="yes"/>
      <point x="484.0" y="952.0"/>
      <point x="462.0" y="980.0"/>
      <point x="426.0" y="980.0" type="curve" smooth="yes"/>
      <point x="390.0" y="980.0"/>
      <point x="360.0" y="966.0"/>
      <point x="308.0" y="946.0" type="curve" smooth="yes"/>
      <point x="100.0" y="868.0" type="line" smooth="yes"/>
      <point x="54.0" y="848.0"/>
      <point x="38.0" y="820.0"/>
      <point x="38.0" y="794.0" type="curve" smooth="yes"/>
      <point x="38.0" y="752.0"/>
      <point x="62.0" y="734.0"/>
      <point x="104.0" y="734.0" type="curve" smooth="yes"/>
      <point x="122.0" y="734.0" type="line" smooth="yes"/>
      <point x="150.0" y="734.0"/>
      <point x="182.0" y="712.0"/>
      <point x="182.0" y="660.0" type="curve" smooth="yes"/>
      <point x="182.0" y="224.0" type="line" smooth="yes"/>
      <point x="182.0" y="182.0"/>
      <point x="158.0" y="152.0"/>
      <point x="118.0" y="136.0" type="curve" smooth="yes"/>
      <point x="104.0" y="130.0" type="line" smooth="yes"/>
      <point x="66.0" y="116.0"/>
      <point x="50.0" y="98.0"/>
      <point x="50.0" y="66.0" type="curve" smooth="yes"/>
      <point x="50.0" y="24.0"/>
      <point x="78.0" y="0.0"/>
      <point x="124.0" y="0.0" type="curve" smooth="yes"/>
      <point x="534.0" y="0.0" type="line" smooth="yes"/>
      <point x="588.0" y="0.0"/>
      <point x="616.0" y="20.0"/>
      <point x="616.0" y="64.0" type="curve" smooth="yes"/>
      <point x="616.0" y="102.0"/>
      <point x="596.0" y="116.0"/>
      <point x="558.0" y="130.0" type="curve" smooth="yes"/>
      <point x="526.0" y="142.0" type="line" smooth="yes"/>
      <point x="498.0" y="152.0"/>
      <point x="484.0" y="180.0"/>
      <point x="484.0" y="236.0" type="curve" smooth="yes"/>
    </contour>
    <contour>
      <point x="444.0" y="646.0" type="line" smooth="yes"/>
      <point x="492.0" y="696.0" type="line" smooth="yes"/>
      <point x="546.0" y="752.0"/>
      <point x="602.0" y="766.0"/>
      <point x="662.0" y="766.0" type="curve" smooth="yes"/>
      <point x="736.0" y="766.0"/>
      <point x="794.0" y="722.0"/>
      <point x="806.0" y="610.0" type="curve" smooth="yes"/>
      <point x="842.0" y="246.0" type="line" smooth="yes"/>
      <point x="850.0" y="172.0"/>
      <point x="828.0" y="146.0"/>
      <point x="784.0" y="138.0" type="curve" smooth="yes"/>
      <point x="764.0" y="134.0" type="line" smooth="yes"/>
      <point x="728.0" y="126.0"/>
      <point x="702.0" y="104.0"/>
      <point x="702.0" y="68.0" type="curve" smooth="yes"/>
      <point x="702.0" y="22.0"/>
      <point x="728.0" y="0.0"/>
      <point x="762.0" y="0.0" type="curve" smooth="yes"/>
      <point x="1206.0" y="0.0" type="line" smooth="yes"/>
      <point x="1242.0" y="0.0"/>
      <point x="1268.0" y="24.0"/>
      <point x="1268.0" y="64.0" type="curve" smooth="yes"/>
      <point x="1268.0" y="102.0"/>
      <point x="1246.0" y="122.0"/>
      <point x="1218.0" y="130.0" type="curve" smooth="yes"/>
      <point x="1202.0" y="134.0" type="line" smooth="yes"/>
      <point x="1176.0" y="142.0"/>
      <point x="1160.0" y="170.0"/>
      <point x="1154.0" y="224.0" type="curve" smooth="yes"/>
      <point x="1102.0" y="706.0" type="line" smooth="yes"/>
      <point x="1082.0" y="888.0"/>
      <point x="968.0" y="980.0"/>
      <point x="832.0" y="980.0" type="curve" smooth="yes"/>
      <point x="676.0" y="980.0"/>
      <point x="548.0" y="914.0"/>
      <point x="436.0" y="800.0" type="curve" smooth="yes"/>
      <point x="372.0" y="734.0" type="line"/>
    </contour>
  </outline>
</glyph>
<glyph name="s" format="2">
  <advance width="954"/>
  <unicode hex="0073"/>
  <outline>
    <contour>
      <point x="494.0" y="110.0" type="curve" smooth="yes"/>
      <point x="402.0" y="110.0"/>
      <point x="320.0" y="148.0"/>
      <point x="256.0" y="250.0" type="curve" smooth="yes"/>
      <point x="214.0" y="312.0"/>
      <point x="182.0" y="334.0"/>
      <point x="150.0" y="334.0" type="curve" smooth="yes"/>
      <point x="106.0" y="334.0"/>
      <point x="86.0" y="300.0"/>
      <point x="86.0" y="248.0" type="curve" smooth="yes"/>
      <point x="86.0" y="230.0"/>
      <point x="90.0" y="196.0"/>
      <point x="100.0" y="158.0" type="curve" smooth="yes"/>
      <point x="128.0" y="48.0" type="line" smooth="yes"/>
      <point x="142.0" y="-10.0"/>
      <point x="176.0" y="-30.0"/>
      <point x="214.0" y="-30.0" type="curve" smooth="yes"/>
      <point x="240.0" y="-30.0"/>
      <point x="260.0" y="0.0"/>
      <point x="286.0" y="0.0" type="curve" smooth="yes"/>
      <point x="310.0" y="0.0"/>
      <point x="378.0" y="-30.0"/>
      <point x="510.0" y="-30.0" type="curve" smooth="yes"/>
      <point x="722.0" y="-30.0"/>
      <point x="884.0" y="104.0"/>
      <point x="884.0" y="278.0" type="curve" smooth="yes"/>
      <point x="884.0" y="424.0"/>
      <point x="810.0" y="560.0"/>
      <point x="568.0" y="600.0" type="curve" smooth="yes"/>
      <point x="390.0" y="630.0"/>
      <point x="332.0" y="678.0"/>
      <point x="332.0" y="756.0" type="curve" smooth="yes"/>
      <point x="332.0" y="804.0"/>
      <point x="380.0" y="844.0"/>
      <point x="458.0" y="844.0" type="curve" smooth="yes"/>
      <point x="554.0" y="844.0"/>
      <point x="618.0" y="796.0"/>
      <point x="710.0" y="654.0" type="curve" smooth="yes"/>
      <point x="732.0" y="616.0"/>
      <point x="774.0" y="588.0"/>
      <point x="810.0" y="588.0" type="curve" smooth="yes"/>
      <point x="860.0" y="588.0"/>
      <point x="882.0" y="624.0"/>
      <point x="882.0" y="658.0" type="curve" smooth="yes"/>
      <point x="882.0" y="692.0"/>
      <point x="872.0" y="732.0"/>
      <point x="848.0" y="790.0" type="curve" smooth="yes"/>
      <point x="802.0" y="900.0" type="line" smooth="yes"/>
      <point x="778.0" y="956.0"/>
      <point x="756.0" y="980.0"/>
      <point x="722.0" y="980.0" type="curve" smooth="yes"/>
      <point x="692.0" y="980.0"/>
      <point x="678.0" y="944.0"/>
      <point x="646.0" y="944.0" type="curve" smooth="yes"/>
      <point x="610.0" y="944.0"/>
      <point x="548.0" y="978.0"/>
      <point x="450.0" y="978.0" type="curve" smooth="yes"/>
      <point x="182.0" y="978.0"/>
      <point x="52.0" y="828.0"/>
      <point x="52.0" y="662.0" type="curve" smooth="yes"/>
      <point x="52.0" y="502.0"/>
      <point x="154.0" y="390.0"/>
      <point x="392.0" y="340.0" type="curve" smooth="yes"/>
      <point x="542.0" y="308.0"/>
      <point x="596.0" y="260.0"/>
      <point x="596.0" y="196.0" type="curve" smooth="yes"/>
      <point x="596.0" y="148.0"/>
      <point x="558.0" y="110.0"/>
    </contour>
  </outline>
</glyph>
<glyph name="currency" format="2">
  <advance width="1068"/>
  <unicode hex="00A4"/>
  <outline>
    <contour>
      <point x="532.0" y="272.0" type="curve" smooth="yes"/>
      <point x="324.0" y="272.0"/>
      <point x="156.0" y="448.0"/>
      <point x="156.0" y="652.0" type="curve" smooth="yes"/>
      <point x="156.0" y="858.0"/>
      <point x="324.0" y="1028.0"/>
      <point x="532.0" y="1028.0" type="curve" smooth="yes"/>
      <point x="744.0" y="1028.0"/>
      <point x="910.0" y="858.0"/>
      <point x="910.0" y="652.0" type="curve" smooth="yes"/>
      <point x="910.0" y="448.0"/>
      <point x="744.0" y="272.0"/>
    </contour>
    <contour>
      <point x="534.0" y="452.0" type="curve" smooth="yes"/>
      <point x="640.0" y="452.0"/>
      <point x="732.0" y="540.0"/>
      <point x="732.0" y="652.0" type="curve" smooth="yes"/>
      <point x="732.0" y="764.0"/>
      <point x="640.0" y="850.0"/>
      <point x="534.0" y="850.0" type="curve" smooth="yes"/>
      <point x="422.0" y="850.0"/>
      <point x="338.0" y="764.0"/>
      <point x="338.0" y="652.0" type="curve" smooth="yes"/>
      <point x="338.0" y="540.0"/>
      <point x="422.0" y="452.0"/>
    </contour>
    <contour>
      <point x="738.0" y="882.0" type="line"/>
      <point x="804.0" y="966.0"/>
      <point x="838.0" y="1018.0"/>
      <point x="866.0" y="1044.0" type="curve"/>
      <point x="916.0" y="1098.0"/>
      <point x="956.0" y="1092.0"/>
      <point x="980.0" y="1066.0" type="curve" smooth="yes"/>
      <point x="1004.0" y="1040.0"/>
      <point x="1010.0" y="1000.0"/>
      <point x="960.0" y="952.0" type="curve" smooth="yes"/>
      <point x="932.0" y="922.0"/>
      <point x="880.0" y="890.0"/>
      <point x="798.0" y="824.0" type="curve"/>
    </contour>
    <contour>
      <point x="264.0" y="820.0" type="line"/>
      <point x="184.0" y="884.0"/>
      <point x="134.0" y="914.0"/>
      <point x="108.0" y="940.0" type="curve" smooth="yes"/>
      <point x="56.0" y="990.0"/>
      <point x="64.0" y="1040.0"/>
      <point x="88.0" y="1066.0" type="curve" smooth="yes"/>
      <point x="112.0" y="1094.0"/>
      <point x="156.0" y="1098.0"/>
      <point x="208.0" y="1046.0" type="curve"/>
      <point x="234.0" y="1018.0"/>
      <point x="264.0" y="968.0"/>
      <point x="328.0" y="888.0" type="curve"/>
    </contour>
    <contour>
      <point x="110.0" y="346.0" type="curve" smooth="yes"/>
      <point x="140.0" y="374.0"/>
      <point x="190.0" y="408.0"/>
      <point x="274.0" y="476.0" type="curve"/>
      <point x="330.0" y="420.0" type="line"/>
      <point x="262.0" y="336.0"/>
      <point x="228.0" y="284.0"/>
      <point x="200.0" y="254.0" type="curve" smooth="yes"/>
      <point x="158.0" y="204.0"/>
      <point x="112.0" y="210.0"/>
      <point x="88.0" y="234.0" type="curve" smooth="yes"/>
      <point x="64.0" y="258.0"/>
      <point x="58.0" y="298.0"/>
    </contour>
    <contour>
      <point x="958.0" y="346.0" type="curve" smooth="yes"/>
      <point x="1010.0" y="302.0"/>
      <point x="1004.0" y="258.0"/>
      <point x="980.0" y="234.0" type="curve" smooth="yes"/>
      <point x="956.0" y="210.0"/>
      <point x="908.0" y="206.0"/>
      <point x="868.0" y="256.0" type="curve" smooth="yes"/>
      <point x="842.0" y="282.0"/>
      <point x="810.0" y="334.0"/>
      <point x="744.0" y="412.0" type="curve"/>
      <point x="802.0" y="472.0" type="line"/>
      <point x="880.0" y="406.0"/>
      <point x="930.0" y="370.0"/>
    </contour>
  </outline>
</glyph>
<glyph name="section" format="2">
  <advance width="1104"/>
  <unicode hex="00A7"/>
  <outline>
    <contour>
      <point x="578.0" y="-338.0" type="curve" smooth="yes"/>
      <point x="462.0" y="-338.0"/>
      <point x="354.0" y="-296.0"/>
      <point x="272.0" y="-154.0" type="curve" smooth="yes"/>
      <point x="228.0" y="-82.0"/>
      <point x="206.0" y="-60.0"/>
      <point x="172.0" y="-60.0" type="curve" smooth="yes"/>
      <point x="126.0" y="-60.0"/>
      <point x="106.0" y="-88.0"/>
      <point x="106.0" y="-132.0" type="curve" smooth="yes"/>
      <point x="106.0" y="-154.0"/>
      <point x="116.0" y="-184.0"/>
      <point x="124.0" y="-220.0" type="curve" smooth="yes"/>
      <point x="164.0" y="-402.0" type="line" smooth="yes"/>
      <point x="178.0" y="-468.0"/>
      <point x="204.0" y="-488.0"/>
      <point x="230.0" y="-488.0" type="curve" smooth="yes"/>
      <point x="260.0" y="-488.0"/>
      <point x="282.0" y="-440.0"/>
      <point x="314.0" y="-440.0" type="curve" smooth="yes"/>
      <point x="356.0" y="-440.0"/>
      <point x="452.0" y="-486.0"/>
      <point x="574.0" y="-486.0" type="curve" smooth="yes"/>
      <point x="842.0" y="-486.0"/>
      <point x="1010.0" y="-326.0"/>
      <point x="1010.0" y="-136.0" type="curve" smooth="yes"/>
      <point x="1010.0" y="8.0"/>
      <point x="936.0" y="150.0"/>
      <point x="662.0" y="266.0" type="curve" smooth="yes"/>
      <point x="402.0" y="376.0"/>
      <point x="354.0" y="460.0"/>
      <point x="354.0" y="526.0" type="curve" smooth="yes"/>
      <point x="354.0" y="620.0"/>
      <point x="416.0" y="682.0"/>
      <point x="490.0" y="682.0" type="curve"/>
      <point x="484.0" y="812.0" type="line"/>
      <point x="260.0" y="812.0"/>
      <point x="80.0" y="644.0"/>
      <point x="80.0" y="456.0" type="curve" smooth="yes"/>
      <point x="80.0" y="288.0"/>
      <point x="216.0" y="166.0"/>
      <point x="436.0" y="76.0" type="curve" smooth="yes"/>
      <point x="672.0" y="-22.0"/>
      <point x="726.0" y="-90.0"/>
      <point x="726.0" y="-188.0" type="curve" smooth="yes"/>
      <point x="726.0" y="-268.0"/>
      <point x="672.0" y="-338.0"/>
    </contour>
    <contour>
      <point x="658.0" y="218.0" type="curve"/>
      <point x="694.0" y="90.0" type="line"/>
      <point x="908.0" y="90.0"/>
      <point x="1040.0" y="246.0"/>
      <point x="1040.0" y="428.0" type="curve" smooth="yes"/>
      <point x="1040.0" y="582.0"/>
      <point x="952.0" y="726.0"/>
      <point x="694.0" y="846.0" type="curve" smooth="yes"/>
      <point x="428.0" y="970.0"/>
      <point x="362.0" y="1040.0"/>
      <point x="362.0" y="1130.0" type="curve" smooth="yes"/>
      <point x="362.0" y="1222.0"/>
      <point x="442.0" y="1282.0"/>
      <point x="544.0" y="1282.0" type="curve" smooth="yes"/>
      <point x="648.0" y="1282.0"/>
      <point x="760.0" y="1240.0"/>
      <point x="866.0" y="1086.0" type="curve" smooth="yes"/>
      <point x="900.0" y="1032.0"/>
      <point x="932.0" y="1000.0"/>
      <point x="976.0" y="1000.0" type="curve" smooth="yes"/>
      <point x="1024.0" y="1000.0"/>
      <point x="1042.0" y="1028.0"/>
      <point x="1042.0" y="1072.0" type="curve" smooth="yes"/>
      <point x="1042.0" y="1088.0"/>
      <point x="1032.0" y="1116.0"/>
      <point x="1024.0" y="1140.0" type="curve" smooth="yes"/>
      <point x="944.0" y="1364.0" type="line" smooth="yes"/>
      <point x="926.0" y="1414.0"/>
      <point x="894.0" y="1432.0"/>
      <point x="862.0" y="1432.0" type="curve" smooth="yes"/>
      <point x="830.0" y="1432.0"/>
      <point x="816.0" y="1386.0"/>
      <point x="776.0" y="1386.0" type="curve" smooth="yes"/>
      <point x="736.0" y="1386.0"/>
      <point x="660.0" y="1430.0"/>
      <point x="550.0" y="1430.0" type="curve" smooth="yes"/>
      <point x="292.0" y="1430.0"/>
      <point x="90.0" y="1254.0"/>
      <point x="90.0" y="1060.0" type="curve" smooth="yes"/>
      <point x="90.0" y="888.0"/>
      <point x="192.0" y="750.0"/>
      <point x="464.0" y="636.0" type="curve" smooth="yes"/>
      <point x="720.0" y="528.0"/>
      <point x="786.0" y="434.0"/>
      <point x="786.0" y="368.0" type="curve" smooth="yes"/>
      <point x="786.0" y="280.0"/>
      <point x="738.0" y="218.0"/>
    </contour>
  </outline>
</glyph>
<glyph name="degree" format="2">
  <advance width="728"/>
  <unicode hex="00B0"/>
  <outline>
    <contour>
      <point x="368.0" y="1330.0" type="curve" smooth="yes"/>
      <point x="196.0" y="1330.0"/>
      <point x="80.0" y="1218.0"/>
      <point x="80.0" y="1078.0" type="curve" smooth="yes"/>
      <point x="80.0" y="934.0"/>
      <point x="196.0" y="830.0"/>
      <point x="356.0" y="830.0" type="curve" smooth="yes"/>
      <point x="522.0" y="830.0"/>
      <point x="648.0" y="936.0"/>
      <point x="648.0" y="1092.0" type="curve" smooth="yes"/>
      <point x="648.0" y="1232.0"/>
      <point x="532.0" y="1330.0"/>
    </contour>
    <contour>
      <point x="418.0" y="1244.0"/>
      <point x="464.0" y="1158.0"/>
      <point x="464.0" y="1050.0" type="curve" smooth="yes"/>
      <point x="464.0" y="968.0"/>
      <point x="430.0" y="918.0"/>
      <point x="380.0" y="918.0" type="curve" smooth="yes"/>
      <point x="314.0" y="918.0"/>
      <point x="260.0" y="1002.0"/>
      <point x="260.0" y="1108.0" type="curve" smooth="yes"/>
      <point x="260.0" y="1188.0"/>
      <point x="298.0" y="1244.0"/>
      <point x="348.0" y="1244.0" type="curve" smooth="yes"/>
    </contour>
  </outline>
</glyph>
<glyph name="twosuperior" format="2">
  <advance width="748"/>
  <unicode hex="00B2"/>
  <outline>
    <contour>
      <point x="298.0" y="946.0" type="curve" smooth="yes"/>
      <point x="141.06311873100373" y="853.4474802772586"/>
      <point x="82.0" y="767.9846153846154"/>
      <point x="82.0" y="680.0" type="curve" smooth="yes"/>
      <point x="82.0" y="629.7674418604652"/>
      <point x="110.0" y="600.0"/>
      <point x="156.0" y="600.0" type="curve" smooth="yes"/>
      <point x="216.35294117647058" y="600.0"/>
      <point x="211.88235294117646" y="684.0"/>
      <point x="270.0" y="684.0" type="curve" smooth="yes"/>
      <point x="327.0" y="684.0"/>
      <point x="401.1" y="596.0"/>
      <point x="498.0" y="596.0" type="curve" smooth="yes"/>
      <point x="610.0" y="596.0"/>
      <point x="680.0" y="690.7326732673267"/>
      <point x="680.0" y="804.0" type="curve" smooth="yes"/>
      <point x="680.0" y="852.0"/>
      <point x="664.0" y="888.0"/>
      <point x="636.0" y="888.0" type="curve" smooth="yes"/>
      <point x="616.0" y="888.0"/>
      <point x="598.0" y="876.0"/>
      <point x="586.0" y="846.0" type="curve" smooth="yes"/>
      <point x="568.5121737326202" y="802.2804343315505"/>
      <point x="546.0" y="784.0"/>
      <point x="506.0" y="784.0" type="curve" smooth="yes"/>
      <point x="466.0" y="784.0"/>
      <point x="404.0" y="820.0"/>
      <point x="336.0" y="820.0" type="curve" smooth="yes"/>
      <point x="248.0" y="820.0"/>
      <point x="200.0" y="750.0"/>
      <point x="200.0" y="678.0" type="curve"/>
      <point x="216.0" y="680.0" type="line"/>
      <point x="216.0" y="754.3478260869565"/>
      <point x="247.27942475643346" y="811.6734893427589"/>
      <point x="376.0" y="870.0" type="curve" smooth="yes"/>
      <point x="560.2630983626434" y="952.117250357265"/>
      <point x="632.0" y="1028.7022900763359"/>
      <point x="632.0" y="1140.0" type="curve" smooth="yes"/>
      <point x="632.0" y="1253.2323232323233"/>
      <point x="542.0" y="1330.0"/>
      <point x="392.0" y="1330.0" type="curve" smooth="yes"/>
      <point x="210.0" y="1330.0"/>
      <point x="84.0" y="1215.0"/>
      <point x="84.0" y="1100.0" type="curve" smooth="yes"/>
      <point x="84.0" y="1036.0"/>
      <point x="118.0" y="1002.0"/>
      <point x="176.0" y="1002.0" type="curve" smooth="yes"/>
      <point x="232.0" y="1002.0"/>
      <point x="280.0" y="1040.0"/>
      <point x="280.0" y="1108.0" type="curve" smooth="yes"/>
      <point x="280.0" y="1170.0" type="line" smooth="yes"/>
      <point x="280.0" y="1202.0"/>
      <point x="296.0" y="1226.0"/>
      <point x="340.0" y="1226.0" type="curve" smooth="yes"/>
      <point x="386.0" y="1226.0"/>
      <point x="424.0" y="1192.7169811320755"/>
      <point x="424.0" y="1128.0" type="curve" smooth="yes"/>
      <point x="424.0" y="1048.5057471264367"/>
      <point x="384.29230909871626" y="996.1699471504164"/>
    </contour>
  </outline>
</glyph>
<glyph name="acute" format="2">
  <advance width="590"/>
  <unicode hex="00B4"/>
  <anchor x="112.0" y="964.0" name="center"/>
  <outline>
    <contour>
      <point x="102.0" y="1158.0" type="curve" smooth="yes"/>
      <point x="236.0" y="1278.0" type="line" smooth="yes"/>
      <point x="326.7759736146709" y="1359.2919166698546"/>
      <point x="409.202614379085" y="1400.0"/>
      <point x="486.0" y="1400.0" type="curve" smooth="yes"/>
      <point x="565.8" y="1400.0"/>
      <point x="600.0" y="1368.0"/>
      <point x="600.0" y="1308.0" type="curve" smooth="yes"/>
      <point x="600.0" y="1252.0"/>
      <point x="547.5936962117771" y="1202.1171632952996"/>
      <point x="454.0" y="1160.0" type="curve" smooth="yes"/>
      <point x="254.0" y="1070.0" type="line" smooth="yes"/>
      <point x="196.0" y="1044.0"/>
      <point x="149.45454545454544" y="1028.0"/>
      <point x="116.0" y="1028.0" type="curve" smooth="yes"/>
      <point x="78.07692307692307" y="1028.0"/>
      <point x="58.0" y="1049.2727272727273"/>
      <point x="58.0" y="1080.0" type="curve" smooth="yes"/>
      <point x="58.0" y="1107.2093023255813"/>
      <point x="78.0" y="1136.0"/>
    </contour>
  </outline>
</glyph>
<glyph name="cedilla" format="2">
  <advance width="612"/>
  <unicode hex="00B8"/>
  <outline>
    <contour>
      <point x="266.0" y="16.0" type="line"/>
      <point x="176.0" y="-142.0" type="line" smooth="yes"/>
      <point x="146.90777856472866" y="-193.073010964143"/>
      <point x="172.0" y="-240.0"/>
      <point x="220.0" y="-240.0" type="curve" smooth="yes"/>
      <point x="232.0" y="-240.0"/>
      <point x="241.83999999999997" y="-232.0"/>
      <point x="262.0" y="-232.0" type="curve" smooth="yes"/>
      <point x="306.3333333333333" y="-232.0"/>
      <point x="332.0" y="-258.0"/>
      <point x="332.0" y="-314.0" type="curve" smooth="yes"/>
      <point x="332.0" y="-368.0"/>
      <point x="299.88235294117646" y="-396.0"/>
      <point x="254.0" y="-396.0" type="curve" smooth="yes"/>
      <point x="222.1818181818182" y="-396.0"/>
      <point x="204.0" y="-382.0"/>
      <point x="204.0" y="-362.0" type="curve" smooth="yes"/>
      <point x="204.0" y="-338.0" type="line" smooth="yes"/>
      <point x="204.0" y="-282.0"/>
      <point x="157.55555555555554" y="-246.0"/>
      <point x="94.0" y="-246.0" type="curve" smooth="yes"/>
      <point x="30.695652173913047" y="-246.0"/>
      <point x="-18.0" y="-290.0"/>
      <point x="-18.0" y="-346.0" type="curve" smooth="yes"/>
      <point x="-18.0" y="-430.0"/>
      <point x="88.67307692307688" y="-490.0"/>
      <point x="240.0" y="-490.0" type="curve" smooth="yes"/>
      <point x="417.3650793650794" y="-490.0"/>
      <point x="542.0" y="-412.0"/>
      <point x="542.0" y="-294.0" type="curve" smooth="yes"/>
      <point x="542.0" y="-188.0"/>
      <point x="466.0" y="-130.0"/>
      <point x="354.0" y="-130.0" type="curve" smooth="yes"/>
      <point x="285.5744680851064" y="-130.0"/>
      <point x="236.2027184049099" y="-146.85325942155728"/>
      <point x="220.0" y="-170.0" type="curve"/>
      <point x="310.0" y="-180.0" type="line"/>
      <point x="408.0" y="18.0" type="line"/>
    </contour>
  </outline>
</glyph>
<glyph name="questiondown" format="2">
  <advance width="916"/>
  <unicode hex="00BF"/>
  <outline>
    <contour>
      <point x="652.0" y="348.0" type="line" smooth="yes"/>
      <point x="654.0" y="334.0"/>
      <point x="654.0" y="330.0"/>
      <point x="654.0" y="322.0" type="curve" smooth="yes"/>
      <point x="654.0" y="282.0"/>
      <point x="634.0" y="242.0"/>
      <point x="578.0" y="216.0" type="curve" smooth="yes"/>
      <point x="488.0" y="176.0" type="line" smooth="yes"/>
      <point x="394.0" y="134.0"/>
      <point x="344.0" y="26.73825503355704"/>
      <point x="344.0" y="-102.0" type="curve" smooth="yes"/>
      <point x="344.0" y="-276.0"/>
      <point x="412.0" y="-360.0"/>
      <point x="518.0" y="-360.0" type="curve" smooth="yes"/>
      <point x="592.0" y="-360.0"/>
      <point x="634.0" y="-320.0"/>
      <point x="634.0" y="-248.0" type="curve" smooth="yes"/>
      <point x="634.0" y="-164.0" type="line" smooth="yes"/>
      <point x="634.0" y="-80.0"/>
      <point x="704.0" y="-18.0"/>
      <point x="790.0" y="-18.0" type="curve" smooth="yes"/>
      <point x="876.0" y="-18.0"/>
      <point x="932.0" y="-78.0"/>
      <point x="932.0" y="-182.0" type="curve" smooth="yes"/>
      <point x="932.0" y="-334.9006622516556"/>
      <point x="739.3732718894009" y="-494.0"/>
      <point x="492.0" y="-494.0" type="curve" smooth="yes"/>
      <point x="199.81115879828326" y="-494.0"/>
      <point x="32.0" y="-360.9213483146068"/>
      <point x="32.0" y="-118.0" type="curve" smooth="yes"/>
      <point x="32.0" y="82.32258064516134"/>
      <point x="160.65718947914297" y="211.4628757916572"/>
      <point x="372.0" y="296.0" type="curve" smooth="yes"/>
      <point x="402.0" y="308.0" type="line" smooth="yes"/>
      <point x="448.0" y="326.0"/>
      <point x="472.0" y="360.0"/>
      <point x="486.0" y="422.0" type="curve" smooth="yes"/>
      <point x="490.0" y="440.0" type="line" smooth="yes"/>
      <point x="500.0" y="492.0"/>
      <point x="524.0" y="518.0"/>
      <point x="568.0" y="518.0" type="curve" smooth="yes"/>
      <point x="608.0" y="518.0"/>
      <point x="634.2959320241546" y="482.550916616425"/>
      <point x="642.0" y="424.0" type="curve" smooth="yes"/>
    </contour>
    <contour>
      <point x="566.0" y="966.0" type="curve" smooth="yes"/>
      <point x="458.0" y="966.0"/>
      <point x="374.0" y="878.0"/>
      <point x="374.0" y="772.0" type="curve" smooth="yes"/>
      <point x="374.0" y="666.0"/>
      <point x="458.0" y="580.0"/>
      <point x="566.0" y="580.0" type="curve" smooth="yes"/>
      <point x="672.0" y="580.0"/>
      <point x="756.0" y="666.0"/>
      <point x="756.0" y="772.0" type="curve" smooth="yes"/>
      <point x="756.0" y="878.0"/>
      <point x="672.0" y="966.0"/>
    </contour>
  </outline>
</glyph>
<glyph name="Atilde" format="2">
  <advance width="1496"/>
  <unicode hex="00C3"/>
  <outline>
    <contour>
      <point x="392.0" y="598.0" type="line"/>
      <point x="398.0" y="450.0" type="line"/>
      <point x="1034.0" y="450.0" type="line"/>
      <point x="1022.0" y="598.0" type="line"/>
    </contour>
    <contour>
      <point x="572.0" y="72.0" type="curve" smooth="yes"/>
      <point x="572.0" y="104.0"/>
      <point x="546.0" y="136.0"/>
      <point x="498.0" y="166.0" type="curve" smooth="yes"/>
      <point x="464.0" y="188.0" type="line" smooth="yes"/>
      <point x="412.0" y="222.0"/>
      <point x="410.0" y="284.0"/>
      <point x="446.0" y="412.0" type="curve" smooth="yes"/>
      <point x="642.0" y="1098.0" type="line" smooth="yes"/>
      <point x="652.359800755715" y="1134.2593026450024"/>
      <point x="670.0" y="1150.0"/>
      <point x="698.0" y="1150.0" type="curve" smooth="yes"/>
      <point x="726.0" y="1150.0"/>
      <point x="744.7631036252392" y="1139.474362983208"/>
      <point x="756.0" y="1098.0" type="curve" smooth="yes"/>
      <point x="976.0" y="286.0" type="line" smooth="yes"/>
      <point x="994.0" y="218.0"/>
      <point x="972.0" y="172.0"/>
      <point x="942.0" y="160.0" type="curve" smooth="yes"/>
      <point x="922.0" y="152.0" type="line" smooth="yes"/>
      <point x="884.0" y="136.0"/>
      <point x="858.0" y="118.0"/>
      <point x="858.0" y="72.0" type="curve" smooth="yes"/>
      <point x="858.0" y="24.0"/>
      <point x="884.0" y="0.0"/>
      <point x="924.0" y="0.0" type="curve" smooth="yes"/>
      <point x="1388.0" y="0.0" type="line" smooth="yes"/>
      <point x="1444.0" y="0.0"/>
      <point x="1480.0" y="24.0"/>
      <point x="1480.0" y="70.0" type="curve" smooth="yes"/>
      <point x="1480.0" y="106.0"/>
      <point x="1470.0" y="126.0"/>
      <point x="1416.0" y="158.0" type="curve" smooth="yes"/>
      <point x="1358.0" y="192.0"/>
      <point x="1328.0" y="254.0"/>
      <point x="1310.0" y="320.0" type="curve" smooth="yes"/>
      <point x="1074.0" y="1152.0" type="line" smooth="yes"/>
      <point x="1060.0" y="1202.0"/>
      <point x="1062.0" y="1238.0"/>
      <point x="1094.0" y="1256.0" type="curve" smooth="yes"/>
      <point x="1122.0" y="1272.0"/>
      <point x="1136.0" y="1292.0"/>
      <point x="1136.0" y="1328.0" type="curve" smooth="yes"/>
      <point x="1136.0" y="1370.0"/>
      <point x="1100.0" y="1400.0"/>
      <point x="1050.0" y="1400.0" type="curve" smooth="yes"/>
      <point x="470.0" y="1400.0" type="line" smooth="yes"/>
      <point x="428.0" y="1400.0"/>
      <point x="392.0" y="1368.0"/>
      <point x="392.0" y="1324.0" type="curve" smooth="yes"/>
      <point x="392.0" y="1300.0"/>
      <point x="410.0" y="1272.0"/>
      <point x="440.0" y="1246.0" type="curve" smooth="yes"/>
      <point x="470.0" y="1220.0"/>
      <point x="466.0" y="1178.0"/>
      <point x="452.0" y="1132.0" type="curve" smooth="yes"/>
      <point x="248.0" y="412.0" type="line" smooth="yes"/>
      <point x="216.0" y="296.0"/>
      <point x="154.0" y="220.0"/>
      <point x="86.0" y="170.0" type="curve" smooth="yes"/>
      <point x="40.0" y="138.0"/>
      <point x="16.0" y="106.0"/>
      <point x="16.0" y="74.0" type="curve" smooth="yes"/>
      <point x="16.0" y="20.0"/>
      <point x="42.0" y="0.0"/>
      <point x="104.0" y="0.0" type="curve" smooth="yes"/>
      <point x="500.0" y="0.0" type="line" smooth="yes"/>
      <point x="544.0" y="0.0"/>
      <point x="572.0" y="28.0"/>
    </contour>
    <contour>
      <point x="436.0" y="1562.0" type="curve" smooth="yes"/>
      <point x="436.0" y="1676.0"/>
      <point x="526.6865671641791" y="1760.0"/>
      <point x="684.0" y="1760.0" type="curve" smooth="yes"/>
      <point x="794.360655737705" y="1760.0"/>
      <point x="862.7723689942834" y="1742.2042358087822"/>
      <point x="948.0" y="1684.0" type="curve" smooth="yes"/>
      <point x="992.0" y="1652.0"/>
      <point x="1032.0" y="1632.0"/>
      <point x="1066.0" y="1632.0" type="curve" smooth="yes"/>
      <point x="1109.75" y="1632.0"/>
      <point x="1136.0" y="1656.0"/>
      <point x="1136.0" y="1702.0" type="curve" smooth="yes"/>
      <point x="1136.0" y="1738.0"/>
      <point x="1160.0" y="1760.0"/>
      <point x="1200.0" y="1760.0" type="curve" smooth="yes"/>
      <point x="1244.0" y="1760.0"/>
      <point x="1268.0" y="1732.0"/>
      <point x="1268.0" y="1682.0" type="curve" smooth="yes"/>
      <point x="1268.0" y="1546.0"/>
      <point x="1167.8904554228052" y="1476.1110896517423"/>
      <point x="1030.0" y="1478.0" type="curve" smooth="yes"/>
      <point x="903.6380863365027" y="1480.1060318943917"/>
      <point x="812.1015706591768" y="1508.5506409247057"/>
      <point x="752.0" y="1550.0" type="curve" smooth="yes"/>
      <point x="706.0" y="1582.0"/>
      <point x="678.0" y="1604.0"/>
      <point x="634.0" y="1604.0" type="curve" smooth="yes"/>
      <point x="593.6800000000001" y="1604.0"/>
      <point x="578.0" y="1584.0"/>
      <point x="578.0" y="1534.0" type="curve" smooth="yes"/>
      <point x="578.0" y="1490.0"/>
      <point x="544.0" y="1476.0"/>
      <point x="508.0" y="1476.0" type="curve" smooth="yes"/>
      <point x="466.0" y="1476.0"/>
      <point x="436.0" y="1500.0"/>
    </contour>
  </outline>
</glyph>
<glyph name="Aring" format="2">
  <advance width="1496"/>
  <unicode hex="00C5"/>
  <outline>
    <contour>
      <point x="392.0" y="598.0" type="line"/>
      <point x="1022.0" y="598.0" type="line"/>
      <point x="1034.0" y="450.0" type="line"/>
      <point x="398.0" y="450.0" type="line"/>
    </contour>
    <contour>
      <point x="572.0" y="72.0" type="curve" smooth="yes"/>
      <point x="572.0" y="28.0"/>
      <point x="544.0" y="0.0"/>
      <point x="500.0" y="0.0" type="curve" smooth="yes"/>
      <point x="104.0" y="0.0" type="line" smooth="yes"/>
      <point x="42.0" y="0.0"/>
      <point x="16.0" y="20.0"/>
      <point x="16.0" y="74.0" type="curve" smooth="yes"/>
      <point x="16.0" y="106.0"/>
      <point x="40.0" y="138.0"/>
      <point x="86.0" y="170.0" type="curve" smooth="yes"/>
      <point x="154.0" y="220.0"/>
      <point x="214.0" y="296.0"/>
      <point x="248.0" y="412.0" type="curve" smooth="yes"/>
      <point x="566.0" y="1464.0" type="line"/>
      <point x="704.0" y="1330.0"/>
      <point x="836.0" y="1332.0"/>
      <point x="966.0" y="1474.0" type="curve"/>
      <point x="1310.0" y="320.0" type="line" smooth="yes"/>
      <point x="1330.0" y="254.0"/>
      <point x="1358.0" y="192.0"/>
      <point x="1416.0" y="158.0" type="curve" smooth="yes"/>
      <point x="1470.0" y="126.0"/>
      <point x="1480.0" y="106.0"/>
      <point x="1480.0" y="70.0" type="curve" smooth="yes"/>
      <point x="1480.0" y="24.0"/>
      <point x="1444.0" y="0.0"/>
      <point x="1388.0" y="0.0" type="curve" smooth="yes"/>
      <point x="924.0" y="0.0" type="line" smooth="yes"/>
      <point x="884.0" y="0.0"/>
      <point x="858.0" y="24.0"/>
      <point x="858.0" y="72.0" type="curve" smooth="yes"/>
      <point x="858.0" y="118.0"/>
      <point x="884.0" y="136.0"/>
      <point x="922.0" y="152.0" type="curve" smooth="yes"/>
      <point x="942.0" y="160.0" type="line" smooth="yes"/>
      <point x="972.0" y="172.0"/>
      <point x="994.0" y="218.0"/>
      <point x="976.0" y="286.0" type="curve" smooth="yes"/>
      <point x="756.0" y="1098.0" type="line" smooth="yes"/>
      <point x="744.0" y="1140.0"/>
      <point x="726.0" y="1150.0"/>
      <point x="698.0" y="1150.0" type="curve" smooth="yes"/>
      <point x="670.0" y="1150.0"/>
      <point x="652.0" y="1134.0"/>
      <point x="642.0" y="1098.0" type="curve" smooth="yes"/>
      <point x="446.0" y="412.0" type="line" smooth="yes"/>
      <point x="410.0" y="284.0"/>
      <point x="412.0" y="222.0"/>
      <point x="464.0" y="188.0" type="curve" smooth="yes"/>
      <point x="498.0" y="166.0" type="line" smooth="yes"/>
      <point x="546.0" y="136.0"/>
      <point x="572.0" y="104.0"/>
    </contour>
    <contour>
      <point x="764.0" y="1270.0" type="curve" smooth="yes"/>
      <point x="628.0" y="1270.0"/>
      <point x="518.0" y="1382.0"/>
      <point x="518.0" y="1518.0" type="curve" smooth="yes"/>
      <point x="518.0" y="1654.0"/>
      <point x="628.0" y="1762.0"/>
      <point x="764.0" y="1762.0" type="curve" smooth="yes"/>
      <point x="902.0" y="1762.0"/>
      <point x="1012.0" y="1654.0"/>
      <point x="1012.0" y="1518.0" type="curve" smooth="yes"/>
      <point x="1012.0" y="1382.0"/>
      <point x="902.0" y="1270.0"/>
    </contour>
    <contour>
      <point x="766.0" y="1402.0" type="curve" smooth="yes"/>
      <point x="822.0" y="1402.0"/>
      <point x="874.0" y="1452.0"/>
      <point x="874.0" y="1518.0" type="curve" smooth="yes"/>
      <point x="874.0" y="1578.0"/>
      <point x="822.0" y="1630.0"/>
      <point x="766.0" y="1630.0" type="curve" smooth="yes"/>
      <point x="706.0" y="1630.0"/>
      <point x="656.0" y="1578.0"/>
      <point x="656.0" y="1518.0" type="curve" smooth="yes"/>
      <point x="656.0" y="1452.0"/>
      <point x="706.0" y="1402.0"/>
    </contour>
  </outline>
</glyph>
<glyph name="Igrave" format="2">
  <advance width="812"/>
  <unicode hex="00CC"/>
  <outline>
    <contour>
      <point x="570.0" y="252.0" type="curve" smooth="yes"/>
      <point x="570.0" y="1146.0" type="line" smooth="yes"/>
      <point x="570.0" y="1200.0"/>
      <point x="594.0" y="1224.0"/>
      <point x="644.0" y="1236.0" type="curve" smooth="yes"/>
      <point x="688.0" y="1246.0" type="line" smooth="yes"/>
      <point x="736.0" y="1256.0"/>
      <point x="760.0" y="1280.0"/>
      <point x="760.0" y="1328.0" type="curve" smooth="yes"/>
      <point x="760.0" y="1378.0"/>
      <point x="734.0" y="1400.0"/>
      <point x="680.0" y="1400.0" type="curve" smooth="yes"/>
      <point x="134.0" y="1400.0" type="line" smooth="yes"/>
      <point x="74.0" y="1400.0"/>
      <point x="50.0" y="1378.0"/>
      <point x="50.0" y="1328.0" type="curve" smooth="yes"/>
      <point x="50.0" y="1280.0"/>
      <point x="72.0" y="1260.0"/>
      <point x="118.0" y="1248.0" type="curve" smooth="yes"/>
      <point x="168.0" y="1236.0" type="line" smooth="yes"/>
      <point x="216.0" y="1224.0"/>
      <point x="242.0" y="1200.0"/>
      <point x="242.0" y="1146.0" type="curve" smooth="yes"/>
      <point x="242.0" y="252.0" type="line" smooth="yes"/>
      <point x="242.0" y="200.0"/>
      <point x="216.0" y="176.0"/>
      <point x="168.0" y="164.0" type="curve" smooth="yes"/>
      <point x="130.0" y="154.0" type="line" smooth="yes"/>
      <point x="78.0" y="140.0"/>
      <point x="52.0" y="118.0"/>
      <point x="52.0" y="72.0" type="curve" smooth="yes"/>
      <point x="52.0" y="22.0"/>
      <point x="74.0" y="0.0"/>
      <point x="134.0" y="0.0" type="curve" smooth="yes"/>
      <point x="678.0" y="0.0" type="line" smooth="yes"/>
      <point x="734.0" y="0.0"/>
      <point x="762.0" y="22.0"/>
      <point x="762.0" y="72.0" type="curve" smooth="yes"/>
      <point x="762.0" y="120.0"/>
      <point x="738.0" y="144.0"/>
      <point x="690.0" y="154.0" type="curve" smooth="yes"/>
      <point x="644.0" y="164.0" type="line" smooth="yes"/>
      <point x="594.0" y="174.0"/>
      <point x="570.0" y="200.0"/>
    </contour>
    <contour>
      <point x="518.0" y="1562.0" type="curve" smooth="yes"/>
      <point x="322.0" y="1678.0" type="line" smooth="yes"/>
      <point x="218.0" y="1740.0"/>
      <point x="138.0" y="1776.0"/>
      <point x="56.0" y="1776.0" type="curve" smooth="yes"/>
      <point x="-22.0" y="1776.0"/>
      <point x="-64.0" y="1736.3809523809523"/>
      <point x="-64.0" y="1672.0" type="curve" smooth="yes"/>
      <point x="-64.0" y="1612.0"/>
      <point x="8.0" y="1566.0"/>
      <point x="136.0" y="1532.0" type="curve" smooth="yes"/>
      <point x="382.0" y="1468.0" type="line" smooth="yes"/>
      <point x="438.6312144549107" y="1453.2666759141696"/>
      <point x="477.016393442623" y="1446.0"/>
      <point x="508.0" y="1446.0" type="curve" smooth="yes"/>
      <point x="548.0" y="1446.0"/>
      <point x="568.0" y="1462.0"/>
      <point x="568.0" y="1496.0" type="curve" smooth="yes"/>
      <point x="568.0" y="1517.2142857142858"/>
      <point x="546.6741275893985" y="1545.0295979572948"/>
    </contour>
  </outline>
</glyph>
<glyph name="Ocircumflex" format="2">
  <advance width="1586"/>
  <unicode hex="00D4"/>
  <outline>
    <contour>
      <point x="794.0" y="1426.0" type="curve" smooth="yes"/>
      <point x="340.0" y="1426.0"/>
      <point x="60.0" y="1100.0"/>
      <point x="60.0" y="708.0" type="curve" smooth="yes"/>
      <point x="60.0" y="270.0"/>
      <point x="344.0" y="-30.0"/>
      <point x="794.0" y="-30.0" type="curve" smooth="yes"/>
      <point x="1234.0" y="-30.0"/>
      <point x="1526.0" y="280.0"/>
      <point x="1526.0" y="710.0" type="curve" smooth="yes"/>
      <point x="1526.0" y="1122.0"/>
      <point x="1232.0" y="1426.0"/>
    </contour>
    <contour>
      <point x="948.0" y="1246.0"/>
      <point x="1182.0" y="958.0"/>
      <point x="1182.0" y="578.0" type="curve" smooth="yes"/>
      <point x="1182.0" y="300.0"/>
      <point x="1068.0" y="154.0"/>
      <point x="890.0" y="154.0" type="curve" smooth="yes"/>
      <point x="640.0" y="154.0"/>
      <point x="400.0" y="446.0"/>
      <point x="400.0" y="830.0" type="curve" smooth="yes"/>
      <point x="400.0" y="1080.0"/>
      <point x="512.0" y="1246.0"/>
      <point x="700.0" y="1246.0" type="curve" smooth="yes"/>
    </contour>
    <contour>
      <point x="501.09999999998837" y="1586.9999999999998" type="curve" smooth="yes"/>
      <point x="593.4999999999884" y="1691.3999999999999" type="line" smooth="yes"/>
      <point x="658.5999999999883" y="1765.1999999999998"/>
      <point x="717.3999999999884" y="1788.6"/>
      <point x="792.9999999999884" y="1788.6" type="curve" smooth="yes"/>
      <point x="862.2999999999884" y="1788.6"/>
      <point x="923.1999999999883" y="1765.1999999999998"/>
      <point x="990.3999999999884" y="1691.3999999999999" type="curve" smooth="yes"/>
      <point x="1084.8999999999883" y="1586.9999999999998" type="line" smooth="yes"/>
      <point x="1099.5999999999885" y="1570.8"/>
      <point x="1120.5999999999885" y="1547.3999999999999"/>
      <point x="1120.5999999999885" y="1527.6" type="curve" smooth="yes"/>
      <point x="1120.5999999999885" y="1498.9384615384615"/>
      <point x="1103.1279999999883" y="1486.1999999999998"/>
      <point x="1065.9999999999884" y="1486.1999999999998" type="curve" smooth="yes"/>
      <point x="1039.0818181818067" y="1486.1999999999998"/>
      <point x="1015.5999999999884" y="1495.1999999999998"/>
      <point x="967.2999999999884" y="1523.9999999999998" type="curve" smooth="yes"/>
      <point x="725.7999999999884" y="1662.6" type="line"/>
      <point x="860.1999999999884" y="1662.6" type="line"/>
      <point x="618.6999999999883" y="1523.9999999999998" type="line" smooth="yes"/>
      <point x="572.4999999999884" y="1496.9999999999998"/>
      <point x="546.9181818181702" y="1487.9999999999998"/>
      <point x="519.9999999999884" y="1487.9999999999998" type="curve" smooth="yes"/>
      <point x="482.87199999998836" y="1487.9999999999998"/>
      <point x="465.3999999999884" y="1500.2666666666664"/>
      <point x="465.3999999999884" y="1529.3999999999999" type="curve" smooth="yes"/>
      <point x="465.3999999999884" y="1549.9714285714285"/>
      <point x="486.3999999999884" y="1570.8"/>
    </contour>
  </outline>
</glyph>
<glyph name="Odieresis" format="2">
  <advance width="1586"/>
  <unicode hex="00D6"/>
  <outline>
    <contour>
      <point x="794.0" y="1426.0" type="curve" smooth="yes"/>
      <point x="340.0" y="1426.0"/>
      <point x="60.0" y="1100.0"/>
      <point x="60.0" y="708.0" type="curve" smooth="yes"/>
      <point x="60.0" y="270.0"/>
      <point x="344.0" y="-30.0"/>
      <point x="794.0" y="-30.0" type="curve" smooth="yes"/>
      <point x="1234.0" y="-30.0"/>
      <point x="1526.0" y="280.0"/>
      <point x="1526.0" y="710.0" type="curve" smooth="yes"/>
      <point x="1526.0" y="1122.0"/>
      <point x="1232.0" y="1426.0"/>
    </contour>
    <contour>
      <point x="948.0" y="1246.0"/>
      <point x="1182.0" y="958.0"/>
      <point x="1182.0" y="578.0" type="curve" smooth="yes"/>
      <point x="1182.0" y="300.0"/>
      <point x="1068.0" y="154.0"/>
      <point x="890.0" y="154.0" type="curve" smooth="yes"/>
      <point x="640.0" y="154.0"/>
      <point x="400.0" y="446.0"/>
      <point x="400.0" y="830.0" type="curve" smooth="yes"/>
      <point x="400.0" y="1080.0"/>
      <point x="512.0" y="1246.0"/>
      <point x="700.0" y="1246.0" type="curve" smooth="yes"/>
    </contour>
    <contour>
      <point x="585.2260000000196" y="1408.8993" type="curve" smooth="yes"/>
      <point x="679.4740000000196" y="1408.8993"/>
      <point x="755.2420000000196" y="1483.9134000000001"/>
      <point x="755.2420000000196" y="1575.0019500000003" type="curve" smooth="yes"/>
      <point x="755.2420000000196" y="1666.0905000000002"/>
      <point x="679.4740000000196" y="1737.5325000000003"/>
      <point x="585.2260000000196" y="1737.5325000000003" type="curve" smooth="yes"/>
      <point x="492.8260000000196" y="1737.5325000000003"/>
      <point x="417.05800000001955" y="1666.0905000000002"/>
      <point x="417.05800000001955" y="1575.0019500000003" type="curve" smooth="yes"/>
      <point x="417.05800000001955" y="1483.9134000000001"/>
      <point x="492.8260000000196" y="1408.8993"/>
    </contour>
    <contour>
      <point x="998.9260000000196" y="1408.8993" type="curve" smooth="yes"/>
      <point x="1093.1740000000195" y="1408.8993"/>
      <point x="1168.9420000000196" y="1483.9134000000001"/>
      <point x="1168.9420000000196" y="1575.0019500000003" type="curve" smooth="yes"/>
      <point x="1168.9420000000196" y="1666.0905000000002"/>
      <point x="1093.1740000000195" y="1737.5325000000003"/>
      <point x="998.9260000000196" y="1737.5325000000003" type="curve" smooth="yes"/>
      <point x="906.5260000000196" y="1737.5325000000003"/>
      <point x="830.7580000000196" y="1666.0905000000002"/>
      <point x="830.7580000000196" y="1575.0019500000003" type="curve" smooth="yes"/>
      <point x="830.7580000000196" y="1483.9134000000001"/>
      <point x="906.5260000000196" y="1408.8993"/>
    </contour>
  </outline>
</glyph>
<glyph name="multiply" format="2">
  <advance width="904"/>
  <unicode hex="00D7"/>
  <outline>
    <contour>
      <point x="118.0" y="276.0" type="curve" smooth="yes"/>
      <point x="160.0" y="234.0"/>
      <point x="230.0" y="238.0"/>
      <point x="272.0" y="282.0" type="curve" smooth="yes"/>
      <point x="358.0" y="368.0"/>
      <point x="442.0" y="490.0"/>
      <point x="506.0" y="556.0" type="curve" smooth="yes"/>
      <point x="574.0" y="622.0"/>
      <point x="692.0" y="702.0"/>
      <point x="772.0" y="782.0" type="curve" smooth="yes"/>
      <point x="820.0" y="830.0"/>
      <point x="820.0" y="894.0"/>
      <point x="778.0" y="936.0" type="curve" smooth="yes"/>
      <point x="736.0" y="978.0"/>
      <point x="670.0" y="978.0"/>
      <point x="622.0" y="932.0" type="curve" smooth="yes"/>
      <point x="542.0" y="852.0"/>
      <point x="464.0" y="734.0"/>
      <point x="396.0" y="666.0" type="curve" smooth="yes"/>
      <point x="320.0" y="590.0"/>
      <point x="208.0" y="518.0"/>
      <point x="124.0" y="432.0" type="curve" smooth="yes"/>
      <point x="84.0" y="394.0"/>
      <point x="76.0" y="318.0"/>
    </contour>
    <contour>
      <point x="786.0" y="280.0" type="curve" smooth="yes"/>
      <point x="826.0" y="320.0"/>
      <point x="822.0" y="390.0"/>
      <point x="780.0" y="432.0" type="curve" smooth="yes"/>
      <point x="694.0" y="522.0"/>
      <point x="568.0" y="602.0"/>
      <point x="506.0" y="668.0" type="curve" smooth="yes"/>
      <point x="438.0" y="734.0"/>
      <point x="360.0" y="852.0"/>
      <point x="278.0" y="934.0" type="curve" smooth="yes"/>
      <point x="230.0" y="982.0"/>
      <point x="166.0" y="980.0"/>
      <point x="126.0" y="940.0" type="curve" smooth="yes"/>
      <point x="84.0" y="896.0"/>
      <point x="82.0" y="830.0"/>
      <point x="128.0" y="784.0" type="curve" smooth="yes"/>
      <point x="210.0" y="702.0"/>
      <point x="328.0" y="624.0"/>
      <point x="394.0" y="558.0" type="curve" smooth="yes"/>
      <point x="470.0" y="482.0"/>
      <point x="544.0" y="370.0"/>
      <point x="628.0" y="284.0" type="curve" smooth="yes"/>
      <point x="668.0" y="244.0"/>
      <point x="742.0" y="238.0"/>
    </contour>
  </outline>
</glyph>
<glyph name="Ucircumflex" format="2">
  <advance width="1444"/>
  <unicode hex="00DB"/>
  <outline>
    <contour>
      <point x="1102.0" y="606.0" type="line" smooth="yes"/>
      <point x="1106.0" y="556.0"/>
      <point x="1110.0" y="508.0"/>
      <point x="1110.0" y="420.0" type="curve" smooth="yes"/>
      <point x="1110.0" y="256.0"/>
      <point x="998.0" y="158.0"/>
      <point x="802.0" y="158.0" type="curve" smooth="yes"/>
      <point x="604.0" y="158.0"/>
      <point x="486.0" y="272.0"/>
      <point x="486.0" y="466.0" type="curve" smooth="yes"/>
      <point x="486.0" y="510.0"/>
      <point x="490.0" y="574.0"/>
      <point x="494.0" y="648.0" type="curve" smooth="yes"/>
      <point x="524.0" y="1142.0" type="line" smooth="yes"/>
      <point x="528.0" y="1202.0"/>
      <point x="558.0" y="1246.0"/>
      <point x="620.0" y="1264.0" type="curve" smooth="yes"/>
      <point x="660.0" y="1276.0" type="line" smooth="yes"/>
      <point x="696.0" y="1286.0"/>
      <point x="716.0" y="1302.0"/>
      <point x="716.0" y="1342.0" type="curve" smooth="yes"/>
      <point x="716.0" y="1382.0"/>
      <point x="698.0" y="1400.0"/>
      <point x="656.0" y="1400.0" type="curve" smooth="yes"/>
      <point x="90.0" y="1400.0" type="line" smooth="yes"/>
      <point x="48.0" y="1400.0"/>
      <point x="30.0" y="1382.0"/>
      <point x="30.0" y="1342.0" type="curve" smooth="yes"/>
      <point x="30.0" y="1302.0"/>
      <point x="52.0" y="1294.0"/>
      <point x="86.0" y="1276.0" type="curve" smooth="yes"/>
      <point x="110.0" y="1264.0" type="line" smooth="yes"/>
      <point x="164.0" y="1238.0"/>
      <point x="200.0" y="1176.0"/>
      <point x="194.0" y="1100.0" type="curve" smooth="yes"/>
      <point x="164.0" y="658.0" type="line" smooth="yes"/>
      <point x="159.75647910285178" y="595.4787921153497"/>
      <point x="148.0" y="471.6377952755905"/>
      <point x="148.0" y="414.0" type="curve" smooth="yes"/>
      <point x="148.0" y="135.45283018867923"/>
      <point x="334.0" y="-30.0"/>
      <point x="678.0" y="-30.0" type="curve" smooth="yes"/>
      <point x="1104.0" y="-30.0"/>
      <point x="1300.0" y="164.0"/>
      <point x="1300.0" y="412.0" type="curve" smooth="yes"/>
      <point x="1300.0" y="480.0"/>
      <point x="1296.0" y="542.0"/>
      <point x="1290.0" y="608.0" type="curve" smooth="yes"/>
      <point x="1244.0" y="1110.0" type="line" smooth="yes"/>
      <point x="1238.0" y="1174.0"/>
      <point x="1270.0" y="1226.0"/>
      <point x="1322.0" y="1250.0" type="curve" smooth="yes"/>
      <point x="1376.0" y="1274.0" type="line" smooth="yes"/>
      <point x="1412.0" y="1290.0"/>
      <point x="1424.0" y="1308.0"/>
      <point x="1424.0" y="1344.0" type="curve" smooth="yes"/>
      <point x="1424.0" y="1376.0"/>
      <point x="1404.0" y="1400.0"/>
      <point x="1378.0" y="1400.0" type="curve" smooth="yes"/>
      <point x="920.0" y="1400.0" type="line" smooth="yes"/>
      <point x="884.0" y="1400.0"/>
      <point x="862.0" y="1384.0"/>
      <point x="862.0" y="1342.0" type="curve" smooth="yes"/>
      <point x="862.0" y="1314.0"/>
      <point x="884.0" y="1288.0"/>
      <point x="924.0" y="1272.0" type="curve" smooth="yes"/>
      <point x="976.0" y="1250.0" type="line" smooth="yes"/>
      <point x="1040.0" y="1222.0"/>
      <point x="1064.0" y="1202.0"/>
      <point x="1070.0" y="1110.0" type="curve" smooth="yes"/>
    </contour>
    <contour>
      <point x="430.09999999998837" y="1586.9999999999998" type="curve" smooth="yes"/>
      <point x="522.4999999999884" y="1691.3999999999999" type="line" smooth="yes"/>
      <point x="587.5999999999883" y="1765.1999999999998"/>
      <point x="646.3999999999884" y="1788.6"/>
      <point x="721.9999999999884" y="1788.6" type="curve" smooth="yes"/>
      <point x="791.2999999999884" y="1788.6"/>
      <point x="852.1999999999883" y="1765.1999999999998"/>
      <point x="919.3999999999884" y="1691.3999999999999" type="curve" smooth="yes"/>
      <point x="1013.8999999999884" y="1586.9999999999998" type="line" smooth="yes"/>
      <point x="1028.5999999999885" y="1570.8"/>
      <point x="1049.5999999999885" y="1547.3999999999999"/>
      <point x="1049.5999999999885" y="1527.6" type="curve" smooth="yes"/>
      <point x="1049.5999999999885" y="1498.9384615384615"/>
      <point x="1032.1279999999883" y="1486.1999999999998"/>
      <point x="994.9999999999884" y="1486.1999999999998" type="curve" smooth="yes"/>
      <point x="968.0818181818066" y="1486.1999999999998"/>
      <point x="944.5999999999884" y="1495.1999999999998"/>
      <point x="896.2999999999884" y="1523.9999999999998" type="curve" smooth="yes"/>
      <point x="654.7999999999884" y="1662.6" type="line"/>
      <point x="789.1999999999884" y="1662.6" type="line"/>
      <point x="547.6999999999883" y="1523.9999999999998" type="line" smooth="yes"/>
      <point x="501.4999999999884" y="1496.9999999999998"/>
      <point x="475.9181818181702" y="1487.9999999999998"/>
      <point x="448.9999999999884" y="1487.9999999999998" type="curve" smooth="yes"/>
      <point x="411.87199999998836" y="1487.9999999999998"/>
      <point x="394.3999999999884" y="1500.2666666666664"/>
      <point x="394.3999999999884" y="1529.3999999999999" type="curve" smooth="yes"/>
      <point x="394.3999999999884" y="1549.9714285714285"/>
      <point x="415.3999999999884" y="1570.8"/>
    </contour>
  </outline>
</glyph>
<glyph name="ae" format="2">
  <advance width="1606"/>
  <unicode hex="00E6"/>
  <anchor x="842.0" y="1020.0" name="center"/>
  <outline>
    <contour>
      <point x="720.0" y="362.0" type="curve"/>
      <point x="748.0" y="462.0" type="line"/>
      <point x="681.950615467733" y="486.7685191996001"/>
      <point x="636.0" y="502.0"/>
      <point x="548.0" y="502.0" type="curve" smooth="yes"/>
      <point x="210.0" y="502.0"/>
      <point x="60.0" y="382.0"/>
      <point x="60.0" y="218.0" type="curve" smooth="yes"/>
      <point x="60.0" y="70.0"/>
      <point x="202.37499999999997" y="-30.0"/>
      <point x="400.0" y="-30.0" type="curve" smooth="yes"/>
      <point x="577.8777292576419" y="-30.0"/>
      <point x="748.6836777387892" y="18.77232703216096"/>
      <point x="838.0" y="136.0" type="curve"/>
      <point x="766.0" y="252.0" type="line"/>
      <point x="723.0651275719883" y="185.80873834014866"/>
      <point x="636.0" y="164.0"/>
      <point x="566.0" y="164.0" type="curve" smooth="yes"/>
      <point x="462.2352941176471" y="164.0"/>
      <point x="386.0" y="210.0"/>
      <point x="386.0" y="284.0" type="curve" smooth="yes"/>
      <point x="386.0" y="346.0"/>
      <point x="446.0" y="398.0"/>
      <point x="542.0" y="398.0" type="curve" smooth="yes"/>
      <point x="610.0" y="398.0"/>
      <point x="664.1832888885555" y="380.60557037048153"/>
    </contour>
    <contour>
      <point x="88.0" y="698.0" type="curve" smooth="yes"/>
      <point x="88.0" y="588.0"/>
      <point x="152.0" y="538.0"/>
      <point x="244.0" y="538.0" type="curve" smooth="yes"/>
      <point x="346.0" y="538.0"/>
      <point x="420.0" y="620.0"/>
      <point x="420.0" y="718.0" type="curve" smooth="yes"/>
      <point x="420.0" y="758.0" type="line" smooth="yes"/>
      <point x="420.0" y="818.0"/>
      <point x="456.0" y="852.0"/>
      <point x="520.0" y="852.0" type="curve" smooth="yes"/>
      <point x="583.0" y="852.0"/>
      <point x="646.0" y="792.0"/>
      <point x="646.0" y="690.0" type="curve" smooth="yes"/>
      <point x="646.0" y="418.0" type="line"/>
      <point x="922.0" y="454.0" type="line"/>
      <point x="922.0" y="664.0" type="line" smooth="yes"/>
      <point x="922.0" y="874.0"/>
      <point x="784.1046511627907" y="978.0"/>
      <point x="568.0" y="978.0" type="curve" smooth="yes"/>
      <point x="266.0" y="978.0"/>
      <point x="88.0" y="820.0"/>
    </contour>
    <contour>
      <point x="1506.0" y="460.0"/>
      <point x="1566.0" y="516.0"/>
      <point x="1566.0" y="606.0" type="curve" smooth="yes"/>
      <point x="1566.0" y="824.0"/>
      <point x="1402.0" y="978.0"/>
      <point x="1168.0" y="978.0" type="curve" smooth="yes"/>
      <point x="848.1048689138577" y="978.0"/>
      <point x="644.0" y="766.0"/>
      <point x="644.0" y="446.0" type="curve" smooth="yes"/>
      <point x="644.0" y="170.0"/>
      <point x="845.795918367347" y="-30.0"/>
      <point x="1124.0" y="-30.0" type="curve" smooth="yes"/>
      <point x="1380.0" y="-30.0"/>
      <point x="1562.0" y="130.0"/>
      <point x="1562.0" y="266.0" type="curve" smooth="yes"/>
      <point x="1562.0" y="312.0"/>
      <point x="1542.0" y="334.0"/>
      <point x="1514.0" y="334.0" type="curve" smooth="yes"/>
      <point x="1488.0" y="334.0"/>
      <point x="1462.0" y="320.0"/>
      <point x="1418.0" y="282.0" type="curve" smooth="yes"/>
      <point x="1356.0" y="226.0"/>
      <point x="1308.0" y="204.0"/>
      <point x="1224.0" y="204.0" type="curve" smooth="yes"/>
      <point x="1063.2866242038217" y="204.0"/>
      <point x="920.0" y="340.0"/>
      <point x="920.0" y="532.0" type="curve" smooth="yes"/>
      <point x="920.0" y="720.0"/>
      <point x="993.8947368421053" y="824.0"/>
      <point x="1100.0" y="824.0" type="curve" smooth="yes"/>
      <point x="1188.0" y="824.0"/>
      <point x="1252.0" y="748.0"/>
      <point x="1252.0" y="642.0" type="curve" smooth="yes"/>
      <point x="1252.0" y="594.0"/>
      <point x="1222.0" y="566.0"/>
      <point x="1176.0" y="566.0" type="curve" smooth="yes"/>
      <point x="828.0" y="566.0" type="line"/>
      <point x="828.0" y="460.0" type="line"/>
      <point x="1410.0" y="460.0" type="line" smooth="yes"/>
    </contour>
  </outline>
</glyph>
<glyph name="ccedilla" format="2">
  <advance width="982"/>
  <unicode hex="00E7"/>
  <outline>
    <contour>
      <point x="954.0" y="692.0" type="curve" smooth="yes"/>
      <point x="954.0" y="864.0"/>
      <point x="805.8604651162791" y="978.0"/>
      <point x="590.0" y="978.0" type="curve" smooth="yes"/>
      <point x="269.85714285714283" y="978.0"/>
      <point x="50.0" y="756.0"/>
      <point x="50.0" y="440.0" type="curve" smooth="yes"/>
      <point x="50.0" y="162.0"/>
      <point x="260.0" y="-30.0"/>
      <point x="538.0" y="-30.0" type="curve" smooth="yes"/>
      <point x="760.0" y="-30.0"/>
      <point x="936.0" y="102.0"/>
      <point x="936.0" y="260.0" type="curve" smooth="yes"/>
      <point x="936.0" y="302.0"/>
      <point x="914.0" y="332.0"/>
      <point x="884.0" y="332.0" type="curve" smooth="yes"/>
      <point x="860.0" y="332.0"/>
      <point x="836.926830832023" y="320.9268308320231"/>
      <point x="798.0" y="282.0" type="curve" smooth="yes"/>
      <point x="759.9859952591835" y="243.98599525918348"/>
      <point x="706.4081632653061" y="220.0"/>
      <point x="622.0" y="220.0" type="curve" smooth="yes"/>
      <point x="460.80597014925377" y="220.0"/>
      <point x="334.0" y="352.0"/>
      <point x="334.0" y="538.0" type="curve" smooth="yes"/>
      <point x="334.0" y="696.0"/>
      <point x="406.0" y="822.0"/>
      <point x="518.0" y="822.0" type="curve" smooth="yes"/>
      <point x="590.0" y="822.0"/>
      <point x="630.0" y="784.0"/>
      <point x="630.0" y="728.0" type="curve" smooth="yes"/>
      <point x="630.0" y="696.0" type="line" smooth="yes"/>
      <point x="630.0" y="604.0"/>
      <point x="698.0" y="534.0"/>
      <point x="796.0" y="534.0" type="curve" smooth="yes"/>
      <point x="888.0" y="534.0"/>
      <point x="954.0" y="602.0"/>
    </contour>
    <contour>
      <point x="562.0" y="106.0" type="line"/>
      <point x="472.0" y="-52.0" type="line" smooth="yes"/>
      <point x="442.9077785647287" y="-103.07301096414301"/>
      <point x="468.0" y="-150.0"/>
      <point x="516.0" y="-150.0" type="curve" smooth="yes"/>
      <point x="528.0" y="-150.0"/>
      <point x="537.8399999999999" y="-142.0"/>
      <point x="558.0" y="-142.0" type="curve" smooth="yes"/>
      <point x="602.3333333333333" y="-142.0"/>
      <point x="628.0" y="-168.0"/>
      <point x="628.0" y="-224.0" type="curve" smooth="yes"/>
      <point x="628.0" y="-278.0"/>
      <point x="595.8823529411765" y="-306.0"/>
      <point x="550.0" y="-306.0" type="curve" smooth="yes"/>
      <point x="518.1818181818182" y="-306.0"/>
      <point x="500.0" y="-292.0"/>
      <point x="500.0" y="-272.0" type="curve" smooth="yes"/>
      <point x="500.0" y="-248.0" type="line" smooth="yes"/>
      <point x="500.0" y="-192.0"/>
      <point x="453.55555555555554" y="-156.0"/>
      <point x="390.0" y="-156.0" type="curve" smooth="yes"/>
      <point x="326.69565217391306" y="-156.0"/>
      <point x="278.0" y="-200.0"/>
      <point x="278.0" y="-256.0" type="curve" smooth="yes"/>
      <point x="278.0" y="-340.0"/>
      <point x="384.6730769230769" y="-400.0"/>
      <point x="536.0" y="-400.0" type="curve" smooth="yes"/>
      <point x="713.3650793650794" y="-400.0"/>
      <point x="838.0" y="-322.0"/>
      <point x="838.0" y="-204.0" type="curve" smooth="yes"/>
      <point x="838.0" y="-98.0"/>
      <point x="762.0" y="-40.0"/>
      <point x="650.0" y="-40.0" type="curve" smooth="yes"/>
      <point x="581.5744680851064" y="-40.0"/>
      <point x="532.2027184049099" y="-56.85325942155728"/>
      <point x="516.0" y="-80.0" type="curve"/>
      <point x="606.0" y="-90.0" type="line"/>
      <point x="704.0" y="108.0" type="line"/>
    </contour>
  </outline>
</glyph>
<glyph name="egrave" format="2">
  <advance width="1012"/>
  <unicode hex="00E8"/>
  <outline>
    <contour>
      <point x="912.0" y="460.0"/>
      <point x="972.0" y="516.0"/>
      <point x="972.0" y="606.0" type="curve" smooth="yes"/>
      <point x="972.0" y="824.0"/>
      <point x="808.0" y="978.0"/>
      <point x="574.0" y="978.0" type="curve" smooth="yes"/>
      <point x="248.0" y="978.0"/>
      <point x="40.0" y="766.0"/>
      <point x="40.0" y="446.0" type="curve" smooth="yes"/>
      <point x="40.0" y="170.0"/>
      <point x="246.0" y="-30.0"/>
      <point x="530.0" y="-30.0" type="curve" smooth="yes"/>
      <point x="786.0" y="-30.0"/>
      <point x="968.0" y="130.0"/>
      <point x="968.0" y="266.0" type="curve" smooth="yes"/>
      <point x="968.0" y="312.0"/>
      <point x="948.0" y="334.0"/>
      <point x="920.0" y="334.0" type="curve" smooth="yes"/>
      <point x="894.0" y="334.0"/>
      <point x="868.0" y="320.0"/>
      <point x="824.0" y="282.0" type="curve" smooth="yes"/>
      <point x="762.0" y="226.0"/>
      <point x="714.0" y="204.0"/>
      <point x="630.0" y="204.0" type="curve" smooth="yes"/>
      <point x="464.0" y="204.0"/>
      <point x="316.0" y="340.0"/>
      <point x="316.0" y="532.0" type="curve" smooth="yes"/>
      <point x="316.0" y="720.0"/>
      <point x="394.0" y="824.0"/>
      <point x="506.0" y="824.0" type="curve" smooth="yes"/>
      <point x="594.0" y="824.0"/>
      <point x="658.0" y="748.0"/>
      <point x="658.0" y="642.0" type="curve" smooth="yes"/>
      <point x="658.0" y="594.0"/>
      <point x="628.0" y="566.0"/>
      <point x="582.0" y="566.0" type="curve" smooth="yes"/>
      <point x="224.0" y="566.0" type="line"/>
      <point x="224.0" y="460.0" type="line"/>
      <point x="816.0" y="460.0" type="line" smooth="yes"/>
    </contour>
    <contour>
      <point x="546.0" y="1188.0" type="curve" smooth="yes"/>
      <point x="412.0" y="1308.0" type="line" smooth="yes"/>
      <point x="321.2240263853291" y="1389.2919166698546"/>
      <point x="238.797385620915" y="1430.0"/>
      <point x="162.0" y="1430.0" type="curve" smooth="yes"/>
      <point x="82.20000000000005" y="1430.0"/>
      <point x="48.0" y="1398.0"/>
      <point x="48.0" y="1338.0" type="curve" smooth="yes"/>
      <point x="48.0" y="1282.0"/>
      <point x="100.40630378822289" y="1232.1171632952996"/>
      <point x="194.0" y="1190.0" type="curve" smooth="yes"/>
      <point x="394.0" y="1100.0" type="line" smooth="yes"/>
      <point x="452.0" y="1074.0"/>
      <point x="498.54545454545456" y="1058.0"/>
      <point x="532.0" y="1058.0" type="curve" smooth="yes"/>
      <point x="569.9230769230769" y="1058.0"/>
      <point x="590.0" y="1079.2727272727273"/>
      <point x="590.0" y="1110.0" type="curve" smooth="yes"/>
      <point x="590.0" y="1137.2093023255813"/>
      <point x="570.0" y="1166.0"/>
    </contour>
  </outline>
</glyph>
<glyph name="eacute" format="2">
  <advance width="1012"/>
  <unicode hex="00E9"/>
  <outline>
    <contour>
      <point x="912.0" y="460.0"/>
      <point x="972.0" y="516.0"/>
      <point x="972.0" y="606.0" type="curve" smooth="yes"/>
      <point x="972.0" y="824.0"/>
      <point x="808.0" y="978.0"/>
      <point x="574.0" y="978.0" type="curve" smooth="yes"/>
      <point x="248.0" y="978.0"/>
      <point x="40.0" y="766.0"/>
      <point x="40.0" y="446.0" type="curve" smooth="yes"/>
      <point x="40.0" y="170.0"/>
      <point x="246.0" y="-30.0"/>
      <point x="530.0" y="-30.0" type="curve" smooth="yes"/>
      <point x="786.0" y="-30.0"/>
      <point x="968.0" y="130.0"/>
      <point x="968.0" y="266.0" type="curve" smooth="yes"/>
      <point x="968.0" y="312.0"/>
      <point x="948.0" y="334.0"/>
      <point x="920.0" y="334.0" type="curve" smooth="yes"/>
      <point x="894.0" y="334.0"/>
      <point x="868.0" y="320.0"/>
      <point x="824.0" y="282.0" type="curve" smooth="yes"/>
      <point x="762.0" y="226.0"/>
      <point x="714.0" y="204.0"/>
      <point x="630.0" y="204.0" type="curve" smooth="yes"/>
      <point x="464.0" y="204.0"/>
      <point x="316.0" y="340.0"/>
      <point x="316.0" y="532.0" type="curve" smooth="yes"/>
      <point x="316.0" y="720.0"/>
      <point x="394.0" y="824.0"/>
      <point x="506.0" y="824.0" type="curve" smooth="yes"/>
      <point x="594.0" y="824.0"/>
      <point x="658.0" y="748.0"/>
      <point x="658.0" y="642.0" type="curve" smooth="yes"/>
      <point x="658.0" y="594.0"/>
      <point x="628.0" y="566.0"/>
      <point x="582.0" y="566.0" type="curve" smooth="yes"/>
      <point x="224.0" y="566.0" type="line"/>
      <point x="224.0" y="460.0" type="line"/>
      <point x="816.0" y="460.0" type="line" smooth="yes"/>
    </contour>
    <contour>
      <point x="510.0" y="1188.0" type="curve" smooth="yes"/>
      <point x="644.0" y="1308.0" type="line" smooth="yes"/>
      <point x="734.7759736146709" y="1389.2919166698546"/>
      <point x="817.2026143790849" y="1430.0"/>
      <point x="894.0" y="1430.0" type="curve" smooth="yes"/>
      <point x="973.8" y="1430.0"/>
      <point x="1008.0" y="1398.0"/>
      <point x="1008.0" y="1338.0" type="curve" smooth="yes"/>
      <point x="1008.0" y="1282.0"/>
      <point x="955.5936962117771" y="1232.1171632952996"/>
      <point x="862.0" y="1190.0" type="curve" smooth="yes"/>
      <point x="662.0" y="1100.0" type="line" smooth="yes"/>
      <point x="604.0" y="1074.0"/>
      <point x="557.4545454545455" y="1058.0"/>
      <point x="524.0" y="1058.0" type="curve" smooth="yes"/>
      <point x="486.0769230769231" y="1058.0"/>
      <point x="466.0" y="1079.2727272727273"/>
      <point x="466.0" y="1110.0" type="curve" smooth="yes"/>
      <point x="466.0" y="1137.2093023255813"/>
      <point x="486.0" y="1166.0"/>
    </contour>
  </outline>
</glyph>
<glyph name="icircumflex" format="2">
  <advance width="626"/>
  <unicode hex="00EE"/>
  <outline>
    <contour>
      <point x="478.0" y="914.0" type="line" smooth="yes"/>
      <point x="478.0" y="954.0"/>
      <point x="456.0" y="980.0"/>
      <point x="420.0" y="980.0" type="curve" smooth="yes"/>
      <point x="386.0" y="980.0"/>
      <point x="356.0" y="968.0"/>
      <point x="304.0" y="948.0" type="curve" smooth="yes"/>
      <point x="100.0" y="870.0" type="line" smooth="yes"/>
      <point x="56.0" y="854.0"/>
      <point x="40.0" y="822.0"/>
      <point x="40.0" y="796.0" type="curve" smooth="yes"/>
      <point x="40.0" y="756.0"/>
      <point x="64.0" y="738.0"/>
      <point x="104.0" y="738.0" type="curve" smooth="yes"/>
      <point x="122.0" y="738.0" type="line" smooth="yes"/>
      <point x="150.0" y="738.0"/>
      <point x="182.0" y="716.0"/>
      <point x="182.0" y="666.0" type="curve" smooth="yes"/>
      <point x="182.0" y="214.0" type="line" smooth="yes"/>
      <point x="182.0" y="174.0"/>
      <point x="160.0" y="154.0"/>
      <point x="132.0" y="142.0" type="curve" smooth="yes"/>
      <point x="84.0" y="122.0" type="line" smooth="yes"/>
      <point x="49.58770733376537" y="107.66154472240224"/>
      <point x="34.0" y="94.84848484848484"/>
      <point x="34.0" y="66.0" type="curve" smooth="yes"/>
      <point x="34.0" y="24.0"/>
      <point x="60.0" y="0.0"/>
      <point x="104.0" y="0.0" type="curve" smooth="yes"/>
      <point x="550.0" y="0.0" type="line" smooth="yes"/>
      <point x="588.0" y="0.0"/>
      <point x="616.0" y="20.0"/>
      <point x="616.0" y="62.0" type="curve" smooth="yes"/>
      <point x="616.0" y="92.375"/>
      <point x="597.9799341702811" y="99.74872713595249"/>
      <point x="564.0" y="116.0" type="curve" smooth="yes"/>
      <point x="518.0" y="138.0" type="line" smooth="yes"/>
      <point x="492.0" y="150.0"/>
      <point x="478.0" y="172.0"/>
      <point x="478.0" y="214.0" type="curve" smooth="yes"/>
    </contour>
    <contour>
      <point x="47.0" y="1160.0" type="curve" smooth="yes"/>
      <point x="135.0" y="1276.0" type="line" smooth="yes"/>
      <point x="197.0" y="1358.0"/>
      <point x="253.0" y="1384.0"/>
      <point x="325.0" y="1384.0" type="curve" smooth="yes"/>
      <point x="391.0" y="1384.0"/>
      <point x="449.0" y="1358.0"/>
      <point x="513.0" y="1276.0" type="curve" smooth="yes"/>
      <point x="603.0" y="1160.0" type="line" smooth="yes"/>
      <point x="617.0" y="1142.0"/>
      <point x="637.0" y="1116.0"/>
      <point x="637.0" y="1094.0" type="curve" smooth="yes"/>
      <point x="637.0" y="1062.1538461538462"/>
      <point x="620.3599999999999" y="1048.0"/>
      <point x="585.0" y="1048.0" type="curve" smooth="yes"/>
      <point x="559.3636363636364" y="1048.0"/>
      <point x="537.0" y="1058.0"/>
      <point x="491.0" y="1090.0" type="curve" smooth="yes"/>
      <point x="261.0" y="1244.0" type="line"/>
      <point x="389.0" y="1244.0" type="line"/>
      <point x="159.0" y="1090.0" type="line" smooth="yes"/>
      <point x="115.0" y="1060.0"/>
      <point x="90.63636363636363" y="1050.0"/>
      <point x="65.0" y="1050.0" type="curve" smooth="yes"/>
      <point x="29.64" y="1050.0"/>
      <point x="13.0" y="1063.6296296296296"/>
      <point x="13.0" y="1096.0" type="curve" smooth="yes"/>
      <point x="13.0" y="1118.857142857143"/>
      <point x="33.0" y="1142.0"/>
    </contour>
  </outline>
</glyph>
<glyph name="idieresis" format="2">
  <advance width="626"/>
  <unicode hex="00EF"/>
  <outline>
    <contour>
      <point x="478.0" y="914.0" type="line" smooth="yes"/>
      <point x="478.0" y="954.0"/>
      <point x="456.0" y="980.0"/>
      <point x="420.0" y="980.0" type="curve" smooth="yes"/>
      <point x="386.0" y="980.0"/>
      <point x="356.0" y="968.0"/>
      <point x="304.0" y="948.0" type="curve" smooth="yes"/>
      <point x="100.0" y="870.0" type="line" smooth="yes"/>
      <point x="56.0" y="854.0"/>
      <point x="40.0" y="822.0"/>
      <point x="40.0" y="796.0" type="curve" smooth="yes"/>
      <point x="40.0" y="756.0"/>
      <point x="64.0" y="738.0"/>
      <point x="104.0" y="738.0" type="curve" smooth="yes"/>
      <point x="122.0" y="738.0" type="line" smooth="yes"/>
      <point x="150.0" y="738.0"/>
      <point x="182.0" y="716.0"/>
      <point x="182.0" y="666.0" type="curve" smooth="yes"/>
      <point x="182.0" y="214.0" type="line" smooth="yes"/>
      <point x="182.0" y="174.0"/>
      <point x="160.0" y="154.0"/>
      <point x="132.0" y="142.0" type="curve" smooth="yes"/>
      <point x="84.0" y="122.0" type="line" smooth="yes"/>
      <point x="49.58770733376537" y="107.66154472240224"/>
      <point x="34.0" y="94.84848484848484"/>
      <point x="34.0" y="66.0" type="curve" smooth="yes"/>
      <point x="34.0" y="24.0"/>
      <point x="60.0" y="0.0"/>
      <point x="104.0" y="0.0" type="curve" smooth="yes"/>
      <point x="550.0" y="0.0" type="line" smooth="yes"/>
      <point x="588.0" y="0.0"/>
      <point x="616.0" y="20.0"/>
      <point x="616.0" y="62.0" type="curve" smooth="yes"/>
      <point x="616.0" y="92.375"/>
      <point x="597.9799341702811" y="99.74872713595249"/>
      <point x="564.0" y="116.0" type="curve" smooth="yes"/>
      <point x="518.0" y="138.0" type="line" smooth="yes"/>
      <point x="492.0" y="150.0"/>
      <point x="478.0" y="172.0"/>
      <point x="478.0" y="214.0" type="curve" smooth="yes"/>
    </contour>
    <contour>
      <point x="127.11999999998955" y="940.777" type="curve" smooth="yes"/>
      <point x="216.87999999998954" y="940.777"/>
      <point x="289.03999999998956" y="1024.1260000000002"/>
      <point x="289.03999999998956" y="1125.3355000000001" type="curve" smooth="yes"/>
      <point x="289.03999999998956" y="1226.545"/>
      <point x="216.87999999998954" y="1305.9250000000002"/>
      <point x="127.11999999998955" y="1305.9250000000002" type="curve" smooth="yes"/>
      <point x="39.11999999998953" y="1305.9250000000002"/>
      <point x="-33.04000000001047" y="1226.545"/>
      <point x="-33.04000000001047" y="1125.3355000000001" type="curve" smooth="yes"/>
      <point x="-33.04000000001047" y="1024.1260000000002"/>
      <point x="39.11999999998953" y="940.777"/>
    </contour>
    <contour>
      <point x="521.1199999999895" y="940.777" type="curve" smooth="yes"/>
      <point x="610.8799999999895" y="940.777"/>
      <point x="683.0399999999895" y="1024.1260000000002"/>
      <point x="683.0399999999895" y="1125.3355000000001" type="curve" smooth="yes"/>
      <point x="683.0399999999895" y="1226.545"/>
      <point x="610.8799999999895" y="1305.9250000000002"/>
      <point x="521.1199999999895" y="1305.9250000000002" type="curve" smooth="yes"/>
      <point x="433.11999999998955" y="1305.9250000000002"/>
      <point x="360.9599999999895" y="1226.545"/>
      <point x="360.9599999999895" y="1125.3355000000001" type="curve" smooth="yes"/>
      <point x="360.9599999999895" y="1024.1260000000002"/>
      <point x="433.11999999998955" y="940.777"/>
    </contour>
  </outline>
</glyph>
<glyph name="oacute" format="2">
  <advance width="1162"/>
  <unicode hex="00F3"/>
  <outline>
    <contour>
      <point x="594.0" y="978.0" type="curve" smooth="yes"/>
      <point x="274.0" y="978.0"/>
      <point x="40.0" y="746.0"/>
      <point x="40.0" y="484.0" type="curve" smooth="yes"/>
      <point x="40.0" y="178.0"/>
      <point x="254.0" y="-30.0"/>
      <point x="566.0" y="-30.0" type="curve" smooth="yes"/>
      <point x="878.0" y="-30.0"/>
      <point x="1122.0" y="184.0"/>
      <point x="1122.0" y="484.0" type="curve" smooth="yes"/>
      <point x="1122.0" y="774.0"/>
      <point x="908.0" y="978.0"/>
    </contour>
    <contour>
      <point x="676.0" y="812.0"/>
      <point x="802.0" y="609.1774891774892"/>
      <point x="802.0" y="370.0" type="curve" smooth="yes"/>
      <point x="802.0" y="210.0952380952381"/>
      <point x="740.0" y="140.0"/>
      <point x="628.0" y="140.0" type="curve" smooth="yes"/>
      <point x="490.0" y="140.0"/>
      <point x="364.0" y="322.0"/>
      <point x="364.0" y="578.0" type="curve" smooth="yes"/>
      <point x="364.0" y="736.0"/>
      <point x="430.0" y="812.0"/>
      <point x="538.0" y="812.0" type="curve" smooth="yes"/>
    </contour>
    <contour>
      <point x="571.0" y="1188.0" type="curve" smooth="yes"/>
      <point x="705.0" y="1308.0" type="line" smooth="yes"/>
      <point x="795.7759736146709" y="1389.2919166698546"/>
      <point x="878.2026143790849" y="1430.0"/>
      <point x="955.0" y="1430.0" type="curve" smooth="yes"/>
      <point x="1034.8" y="1430.0"/>
      <point x="1069.0" y="1398.0"/>
      <point x="1069.0" y="1338.0" type="curve" smooth="yes"/>
      <point x="1069.0" y="1282.0"/>
      <point x="1016.5936962117771" y="1232.1171632952996"/>
      <point x="923.0" y="1190.0" type="curve" smooth="yes"/>
      <point x="723.0" y="1100.0" type="line" smooth="yes"/>
      <point x="665.0" y="1074.0"/>
      <point x="618.4545454545455" y="1058.0"/>
      <point x="585.0" y="1058.0" type="curve" smooth="yes"/>
      <point x="547.0769230769231" y="1058.0"/>
      <point x="527.0" y="1079.2727272727273"/>
      <point x="527.0" y="1110.0" type="curve" smooth="yes"/>
      <point x="527.0" y="1137.2093023255813"/>
      <point x="547.0" y="1166.0"/>
    </contour>
  </outline>
</glyph>
<glyph name="yacute" format="2">
  <advance width="1194"/>
  <unicode hex="00FD"/>
  <outline>
    <contour>
      <point x="744.0" y="156.0" type="line"/>
      <point x="516.0" y="622.0" type="line" smooth="yes"/>
      <point x="494.0" y="666.0"/>
      <point x="490.0" y="686.0"/>
      <point x="490.0" y="710.0" type="curve" smooth="yes"/>
      <point x="490.0" y="750.0"/>
      <point x="516.0" y="778.0"/>
      <point x="546.0" y="792.0" type="curve" smooth="yes"/>
      <point x="564.0" y="800.0" type="line" smooth="yes"/>
      <point x="590.0" y="812.0"/>
      <point x="608.0" y="842.0"/>
      <point x="608.0" y="886.0" type="curve" smooth="yes"/>
      <point x="608.0" y="930.0"/>
      <point x="576.0" y="950.0"/>
      <point x="526.0" y="950.0" type="curve" smooth="yes"/>
      <point x="56.0" y="950.0" type="line" smooth="yes"/>
      <point x="14.0" y="950.0"/>
      <point x="-8.0" y="920.0"/>
      <point x="-8.0" y="874.0" type="curve" smooth="yes"/>
      <point x="-8.0" y="836.0"/>
      <point x="16.0" y="808.0"/>
      <point x="62.0" y="786.0" type="curve" smooth="yes"/>
      <point x="100.0" y="768.0"/>
      <point x="118.0" y="748.0"/>
      <point x="136.0" y="710.0" type="curve" smooth="yes"/>
      <point x="576.0" y="-180.0" type="line"/>
    </contour>
    <contour>
      <point x="566.0" y="-126.0" type="line" smooth="yes"/>
      <point x="508.0" y="-266.0"/>
      <point x="472.0" y="-300.0"/>
      <point x="430.0" y="-300.0" type="curve" smooth="yes"/>
      <point x="396.0" y="-300.0"/>
      <point x="376.0" y="-280.0"/>
      <point x="364.0" y="-258.0" type="curve" smooth="yes"/>
      <point x="328.0" y="-186.0" type="line" smooth="yes"/>
      <point x="292.0" y="-112.0"/>
      <point x="248.0" y="-78.0"/>
      <point x="168.0" y="-78.0" type="curve" smooth="yes"/>
      <point x="96.0" y="-78.0"/>
      <point x="34.0" y="-136.0"/>
      <point x="34.0" y="-248.0" type="curve" smooth="yes"/>
      <point x="34.0" y="-386.0"/>
      <point x="134.0" y="-490.0"/>
      <point x="310.0" y="-490.0" type="curve" smooth="yes"/>
      <point x="492.0" y="-490.0"/>
      <point x="616.0" y="-390.0"/>
      <point x="708.0" y="-162.0" type="curve" smooth="yes"/>
      <point x="994.0" y="542.0" type="line" smooth="yes"/>
      <point x="1034.0" y="638.0"/>
      <point x="1082.0" y="704.0"/>
      <point x="1120.0" y="736.0" type="curve" smooth="yes"/>
      <point x="1164.0" y="774.0"/>
      <point x="1194.0" y="818.0"/>
      <point x="1194.0" y="850.0" type="curve" smooth="yes"/>
      <point x="1194.0" y="918.0"/>
      <point x="1160.0" y="950.0"/>
      <point x="1098.0" y="950.0" type="curve" smooth="yes"/>
      <point x="812.0" y="950.0" type="line" smooth="yes"/>
      <point x="766.0" y="950.0"/>
      <point x="740.0" y="922.0"/>
      <point x="740.0" y="886.0" type="curve" smooth="yes"/>
      <point x="740.0" y="844.0"/>
      <point x="762.0" y="824.0"/>
      <point x="796.0" y="792.0" type="curve" smooth="yes"/>
      <point x="816.0" y="774.0" type="line" smooth="yes"/>
      <point x="850.0" y="742.0"/>
      <point x="866.0" y="722.0"/>
      <point x="866.0" y="668.0" type="curve" smooth="yes"/>
      <point x="866.0" y="640.0"/>
      <point x="872.0" y="610.0"/>
      <point x="822.0" y="490.0" type="curve" smooth="yes"/>
    </contour>
    <contour>
      <point x="622.0" y="1188.0" type="curve" smooth="yes"/>
      <point x="756.0" y="1308.0" type="line" smooth="yes"/>
      <point x="846.7759736146709" y="1389.2919166698546"/>
      <point x="929.2026143790849" y="1430.0"/>
      <point x="1006.0" y="1430.0" type="curve" smooth="yes"/>
      <point x="1085.8" y="1430.0"/>
      <point x="1120.0" y="1398.0"/>
      <point x="1120.0" y="1338.0" type="curve" smooth="yes"/>
      <point x="1120.0" y="1282.0"/>
      <point x="1067.5936962117771" y="1232.1171632952996"/>
      <point x="974.0" y="1190.0" type="curve" smooth="yes"/>
      <point x="774.0" y="1100.0" type="line" smooth="yes"/>
      <point x="716.0" y="1074.0"/>
      <point x="669.4545454545455" y="1058.0"/>
      <point x="636.0" y="1058.0" type="curve" smooth="yes"/>
      <point x="598.0769230769231" y="1058.0"/>
      <point x="578.0" y="1079.2727272727273"/>
      <point x="578.0" y="1110.0" type="curve" smooth="yes"/>
      <point x="578.0" y="1137.2093023255813"/>
      <point x="598.0" y="1166.0"/>
    </contour>
  </outline>
</glyph>
<glyph name="thorn" format="2">
  <advance width="1262"/>
  <unicode hex="00FE"/>
  <outline>
    <contour>
      <point x="488.0" y="1384.0" type="line" smooth="yes"/>
      <point x="488.0" y="1424.0"/>
      <point x="466.0" y="1450.0"/>
      <point x="430.0" y="1450.0" type="curve" smooth="yes"/>
      <point x="396.0" y="1450.0"/>
      <point x="366.0" y="1438.0"/>
      <point x="314.0" y="1418.0" type="curve" smooth="yes"/>
      <point x="110.0" y="1340.0" type="line" smooth="yes"/>
      <point x="64.0" y="1322.0"/>
      <point x="48.0" y="1294.0"/>
      <point x="48.0" y="1268.0" type="curve" smooth="yes"/>
      <point x="48.0" y="1230.0"/>
      <point x="74.0" y="1212.0"/>
      <point x="118.0" y="1212.0" type="curve" smooth="yes"/>
      <point x="132.0" y="1212.0" type="line" smooth="yes"/>
      <point x="160.0" y="1212.0"/>
      <point x="192.0" y="1190.0"/>
      <point x="192.0" y="1140.0" type="curve" smooth="yes"/>
      <point x="192.0" y="-268.0" type="line" smooth="yes"/>
      <point x="192.0" y="-328.0"/>
      <point x="162.0" y="-340.0"/>
      <point x="128.0" y="-354.0" type="curve" smooth="yes"/>
      <point x="108.0" y="-362.0" type="line" smooth="yes"/>
      <point x="72.0" y="-376.0"/>
      <point x="52.0" y="-390.0"/>
      <point x="52.0" y="-426.0" type="curve" smooth="yes"/>
      <point x="52.0" y="-466.0"/>
      <point x="76.0" y="-490.0"/>
      <point x="114.0" y="-490.0" type="curve" smooth="yes"/>
      <point x="556.0" y="-490.0" type="line" smooth="yes"/>
      <point x="602.0" y="-490.0"/>
      <point x="626.0" y="-470.0"/>
      <point x="626.0" y="-428.0" type="curve" smooth="yes"/>
      <point x="626.0" y="-390.0"/>
      <point x="606.0" y="-378.0"/>
      <point x="560.0" y="-360.0" type="curve" smooth="yes"/>
      <point x="528.0" y="-348.0" type="line" smooth="yes"/>
      <point x="502.0" y="-338.0"/>
      <point x="488.0" y="-312.0"/>
      <point x="488.0" y="-268.0" type="curve" smooth="yes"/>
    </contour>
    <contour>
      <point x="370.0" y="670.0" type="line"/>
      <point x="442.0" y="740.0"/>
      <point x="536.0" y="772.0"/>
      <point x="638.0" y="772.0" type="curve" smooth="yes"/>
      <point x="814.0" y="772.0"/>
      <point x="910.0" y="620.0"/>
      <point x="910.0" y="444.0" type="curve" smooth="yes"/>
      <point x="910.0" y="274.0"/>
      <point x="806.0" y="138.0"/>
      <point x="636.0" y="138.0" type="curve" smooth="yes"/>
      <point x="534.0" y="138.0"/>
      <point x="440.0" y="172.0"/>
      <point x="386.0" y="258.0" type="curve"/>
      <point x="314.0" y="158.0" type="line"/>
      <point x="404.0" y="32.0"/>
      <point x="544.0" y="-28.0"/>
      <point x="698.0" y="-28.0" type="curve" smooth="yes"/>
      <point x="1012.0" y="-28.0"/>
      <point x="1222.0" y="200.0"/>
      <point x="1222.0" y="514.0" type="curve" smooth="yes"/>
      <point x="1222.0" y="778.0"/>
      <point x="1046.0" y="980.0"/>
      <point x="782.0" y="980.0" type="curve" smooth="yes"/>
      <point x="602.0" y="980.0"/>
      <point x="454.0" y="884.0"/>
      <point x="330.0" y="754.0" type="curve"/>
    </contour>
  </outline>
</glyph>
<glyph name="cacute" format="2">
  <advance width="982"/>
  <unicode hex="0107"/>
  <outline>
    <contour>
      <point x="954.0" y="692.0" type="curve" smooth="yes"/>
      <point x="954.0" y="864.0"/>
      <point x="805.8604651162791" y="978.0"/>
      <point x="590.0" y="978.0" type="curve" smooth="yes"/>
      <point x="269.85714285714283" y="978.0"/>
      <point x="50.0" y="756.0"/>
      <point x="50.0" y="440.0" type="curve" smooth="yes"/>
      <point x="50.0" y="162.0"/>
      <point x="260.0" y="-30.0"/>
      <point x="538.0" y="-30.0" type="curve" smooth="yes"/>
      <point x="760.0" y="-30.0"/>
      <point x="936.0" y="102.0"/>
      <point x="936.0" y="260.0" type="curve" smooth="yes"/>
      <point x="936.0" y="302.0"/>
      <point x="914.0" y="332.0"/>
      <point x="884.0" y="332.0" type="curve" smooth="yes"/>
      <point x="860.0" y="332.0"/>
      <point x="836.926830832023" y="320.9268308320231"/>
      <point x="798.0" y="282.0" type="curve" smooth="yes"/>
      <point x="759.9859952591835" y="243.98599525918348"/>
      <point x="706.4081632653061" y="220.0"/>
      <point x="622.0" y="220.0" type="curve" smooth="yes"/>
      <point x="460.80597014925377" y="220.0"/>
      <point x="334.0" y="352.0"/>
      <point x="334.0" y="538.0" type="curve" smooth="yes"/>
      <point x="334.0" y="696.0"/>
      <point x="406.0" y="822.0"/>
      <point x="518.0" y="822.0" type="curve" smooth="yes"/>
      <point x="590.0" y="822.0"/>
      <point x="630.0" y="784.0"/>
      <point x="630.0" y="728.0" type="curve" smooth="yes"/>
      <point x="630.0" y="696.0" type="line" smooth="yes"/>
      <point x="630.0" y="604.0"/>
      <point x="698.0" y="534.0"/>
      <point x="796.0" y="534.0" type="curve" smooth="yes"/>
      <point x="888.0" y="534.0"/>
      <point x="954.0" y="602.0"/>
    </contour>
    <contour>
      <point x="548.0" y="1188.0" type="curve" smooth="yes"/>
      <point x="682.0" y="1308.0" type="line" smooth="yes"/>
      <point x="772.7759736146709" y="1389.2919166698546"/>
      <point x="855.2026143790849" y="1430.0"/>
      <point x="932.0" y="1430.0" type="curve" smooth="yes"/>
      <point x="1011.8" y="1430.0"/>
      <point x="1046.0" y="1398.0"/>
      <point x="1046.0" y="1338.0" type="curve" smooth="yes"/>
      <point x="1046.0" y="1282.0"/>
      <point x="993.5936962117771" y="1232.1171632952996"/>
      <point x="900.0" y="1190.0" type="curve" smooth="yes"/>
      <point x="700.0" y="1100.0" type="line" smooth="yes"/>
      <point x="642.0" y="1074.0"/>
      <point x="595.4545454545455" y="1058.0"/>
      <point x="562.0" y="1058.0" type="curve" smooth="yes"/>
      <point x="524.0769230769231" y="1058.0"/>
      <point x="504.0" y="1079.2727272727273"/>
      <point x="504.0" y="1110.0" type="curve" smooth="yes"/>
      <point x="504.0" y="1137.2093023255813"/>
      <point x="524.0" y="1166.0"/>
    </contour>
  </outline>
</glyph>
<glyph name="Dcaron" format="2">
  <advance width="1580"/>
  <unicode hex="010E"/>
  <outline>
    <contour>
      <point x="60.0" y="70.0" type="curve" smooth="yes"/>
      <point x="60.0" y="22.0"/>
      <point x="84.0" y="0.0"/>
      <point x="142.0" y="0.0" type="curve" smooth="yes"/>
      <point x="776.0" y="0.0" type="line" smooth="yes"/>
      <point x="1200.0" y="0.0"/>
      <point x="1520.0" y="272.0"/>
      <point x="1520.0" y="640.0" type="curve" smooth="yes"/>
      <point x="1520.0" y="1086.0"/>
      <point x="1158.0" y="1400.0"/>
      <point x="692.0" y="1400.0" type="curve" smooth="yes"/>
      <point x="142.0" y="1400.0" type="line" smooth="yes"/>
      <point x="84.0" y="1400.0"/>
      <point x="60.0" y="1378.0"/>
      <point x="60.0" y="1332.0" type="curve" smooth="yes"/>
      <point x="60.0" y="1286.0"/>
      <point x="80.0" y="1264.0"/>
      <point x="116.0" y="1256.0" type="curve" smooth="yes"/>
      <point x="166.0" y="1244.0" type="line" smooth="yes"/>
      <point x="214.0" y="1232.0"/>
      <point x="240.0" y="1208.0"/>
      <point x="240.0" y="1154.0" type="curve" smooth="yes"/>
      <point x="240.0" y="246.0" type="line" smooth="yes"/>
      <point x="240.0" y="194.0"/>
      <point x="214.0" y="170.0"/>
      <point x="166.0" y="158.0" type="curve" smooth="yes"/>
      <point x="134.0" y="150.0" type="line" smooth="yes"/>
      <point x="88.0" y="138.0"/>
      <point x="60.0" y="116.0"/>
    </contour>
    <contour>
      <point x="782.0" y="160.0" type="curve" smooth="yes"/>
      <point x="722.0" y="160.0" type="line" smooth="yes"/>
      <point x="624.0" y="160.0"/>
      <point x="568.0" y="218.0"/>
      <point x="568.0" y="324.0" type="curve" smooth="yes"/>
      <point x="568.0" y="1140.0" type="line" smooth="yes"/>
      <point x="568.0" y="1210.0"/>
      <point x="594.0" y="1242.0"/>
      <point x="664.0" y="1242.0" type="curve" smooth="yes"/>
      <point x="726.0" y="1242.0" type="line" smooth="yes"/>
      <point x="982.0" y="1242.0"/>
      <point x="1192.0" y="998.0"/>
      <point x="1192.0" y="668.0" type="curve" smooth="yes"/>
      <point x="1192.0" y="372.0"/>
      <point x="1010.0" y="160.0"/>
    </contour>
    <contour>
      <point x="498.09999999998837" y="1695.6000000000001" type="curve" smooth="yes"/>
      <point x="590.4999999999884" y="1591.2" type="line" smooth="yes"/>
      <point x="655.5999999999883" y="1517.4"/>
      <point x="714.3999999999884" y="1494.0"/>
      <point x="789.9999999999884" y="1494.0" type="curve" smooth="yes"/>
      <point x="859.2999999999884" y="1494.0"/>
      <point x="920.1999999999883" y="1517.4"/>
      <point x="987.3999999999884" y="1591.2" type="curve" smooth="yes"/>
      <point x="1081.8999999999883" y="1695.6000000000001" type="line" smooth="yes"/>
      <point x="1096.5999999999885" y="1711.8"/>
      <point x="1117.5999999999885" y="1735.2"/>
      <point x="1117.5999999999885" y="1755.0" type="curve" smooth="yes"/>
      <point x="1117.5999999999885" y="1783.6615384615384"/>
      <point x="1100.1279999999883" y="1796.4"/>
      <point x="1062.9999999999884" y="1796.4" type="curve" smooth="yes"/>
      <point x="1036.0818181818067" y="1796.4"/>
      <point x="1012.5999999999884" y="1787.4"/>
      <point x="964.2999999999884" y="1758.6000000000001" type="curve" smooth="yes"/>
      <point x="722.7999999999884" y="1620.0" type="line"/>
      <point x="857.1999999999884" y="1620.0" type="line"/>
      <point x="615.6999999999883" y="1758.6000000000001" type="line" smooth="yes"/>
      <point x="569.4999999999884" y="1785.6000000000001"/>
      <point x="543.9181818181702" y="1794.6000000000001"/>
      <point x="516.9999999999884" y="1794.6000000000001" type="curve" smooth="yes"/>
      <point x="479.87199999998836" y="1794.6000000000001"/>
      <point x="462.3999999999884" y="1782.3333333333335"/>
      <point x="462.3999999999884" y="1753.2" type="curve" smooth="yes"/>
      <point x="462.3999999999884" y="1732.6285714285714"/>
      <point x="483.3999999999884" y="1711.8"/>
    </contour>
  </outline>
</glyph>
<glyph name="eogonek" format="2">
  <advance width="1012"/>
  <unicode hex="0119"/>
  <outline>
    <contour>
      <point x="912.0" y="460.0"/>
      <point x="972.0" y="516.0"/>
      <point x="972.0" y="606.0" type="curve" smooth="yes"/>
      <point x="972.0" y="824.0"/>
      <point x="808.0" y="978.0"/>
      <point x="574.0" y="978.0" type="curve" smooth="yes"/>
      <point x="248.0" y="978.0"/>
      <point x="40.0" y="766.0"/>
      <point x="40.0" y="446.0" type="curve" smooth="yes"/>
      <point x="40.0" y="170.0"/>
      <point x="246.0" y="-30.0"/>
      <point x="530.0" y="-30.0" type="curve" smooth="yes"/>
      <point x="786.0" y="-30.0"/>
      <point x="968.0" y="130.0"/>
      <point x="968.0" y="266.0" type="curve" smooth="yes"/>
      <point x="968.0" y="312.0"/>
      <point x="948.0" y="334.0"/>
      <point x="920.0" y="334.0" type="curve" smooth="yes"/>
      <point x="894.0" y="334.0"/>
      <point x="868.0" y="320.0"/>
      <point x="824.0" y="282.0" type="curve" smooth="yes"/>
      <point x="762.0" y="226.0"/>
      <point x="714.0" y="204.0"/>
      <point x="630.0" y="204.0" type="curve" smooth="yes"/>
      <point x="464.0" y="204.0"/>
      <point x="316.0" y="340.0"/>
      <point x="316.0" y="532.0" type="curve" smooth="yes"/>
      <point x="316.0" y="720.0"/>
      <point x="394.0" y="824.0"/>
      <point x="506.0" y="824.0" type="curve" smooth="yes"/>
      <point x="594.0" y="824.0"/>
      <point x="658.0" y="748.0"/>
      <point x="658.0" y="642.0" type="curve" smooth="yes"/>
      <point x="658.0" y="594.0"/>
      <point x="628.0" y="566.0"/>
      <point x="582.0" y="566.0" type="curve" smooth="yes"/>
      <point x="224.0" y="566.0" type="line"/>
      <point x="224.0" y="460.0" type="line"/>
      <point x="816.0" y="460.0" type="line" smooth="yes"/>
    </contour>
    <contour>
      <point x="638.0" y="172.0" type="line"/>
      <point x="353.1164362772089" y="27.523335540584497"/>
      <point x="248.0" y="-73.70854271356785"/>
      <point x="248.0" y="-210.0" type="curve" smooth="yes"/>
      <point x="248.0" y="-319.1954022988506"/>
      <point x="346.4761904761905" y="-400.0"/>
      <point x="512.0" y="-400.0" type="curve" smooth="yes"/>
      <point x="685.7226277372263" y="-400.0"/>
      <point x="792.0" y="-326.0"/>
      <point x="792.0" y="-230.0" type="curve" smooth="yes"/>
      <point x="792.0" y="-170.0"/>
      <point x="756.0" y="-132.0"/>
      <point x="702.0" y="-132.0" type="curve" smooth="yes"/>
      <point x="644.0" y="-132.0"/>
      <point x="602.0" y="-178.0"/>
      <point x="602.0" y="-252.0" type="curve" smooth="yes"/>
      <point x="602.0" y="-290.0"/>
      <point x="575.3333333333333" y="-310.0"/>
      <point x="542.0" y="-310.0" type="curve" smooth="yes"/>
      <point x="503.37931034482756" y="-310.0"/>
      <point x="472.0" y="-270.96296296296293"/>
      <point x="472.0" y="-186.0" type="curve" smooth="yes"/>
      <point x="472.0" y="-72.23376623376623"/>
      <point x="541.6753843255283" y="21.392511137450924"/>
      <point x="682.0" y="106.0" type="curve"/>
    </contour>
  </outline>
</glyph>
<glyph name="ecaron" format="2">
  <advance width="1012"/>
  <unicode hex="011B"/>
  <outline>
    <contour>
      <point x="912.0" y="460.0"/>
      <point x="972.0" y="516.0"/>
      <point x="972.0" y="606.0" type="curve" smooth="yes"/>
      <point x="972.0" y="824.0"/>
      <point x="808.0" y="978.0"/>
      <point x="574.0" y="978.0" type="curve" smooth="yes"/>
      <point x="248.0" y="978.0"/>
      <point x="40.0" y="766.0"/>
      <point x="40.0" y="446.0" type="curve" smooth="yes"/>
      <point x="40.0" y="170.0"/>
      <point x="246.0" y="-30.0"/>
      <point x="530.0" y="-30.0" type="curve" smooth="yes"/>
      <point x="786.0" y="-30.0"/>
      <point x="968.0" y="130.0"/>
      <point x="968.0" y="266.0" type="curve" smooth="yes"/>
      <point x="968.0" y="312.0"/>
      <point x="948.0" y="334.0"/>
      <point x="920.0" y="334.0" type="curve" smooth="yes"/>
      <point x="894.0" y="334.0"/>
      <point x="868.0" y="320.0"/>
      <point x="824.0" y="282.0" type="curve" smooth="yes"/>
      <point x="762.0" y="226.0"/>
      <point x="714.0" y="204.0"/>
      <point x="630.0" y="204.0" type="curve" smooth="yes"/>
      <point x="464.0" y="204.0"/>
      <point x="316.0" y="340.0"/>
      <point x="316.0" y="532.0" type="curve" smooth="yes"/>
      <point x="316.0" y="720.0"/>
      <point x="394.0" y="824.0"/>
      <point x="506.0" y="824.0" type="curve" smooth="yes"/>
      <point x="594.0" y="824.0"/>
      <point x="658.0" y="748.0"/>
      <point x="658.0" y="642.0" type="curve" smooth="yes"/>
      <point x="658.0" y="594.0"/>
      <point x="628.0" y="566.0"/>
      <point x="582.0" y="566.0" type="curve" smooth="yes"/>
      <point x="224.0" y="566.0" type="line"/>
      <point x="224.0" y="460.0" type="line"/>
      <point x="816.0" y="460.0" type="line" smooth="yes"/>
    </contour>
    <contour>
      <point x="242.0" y="1274.0" type="curve" smooth="yes"/>
      <point x="330.0" y="1158.0" type="line" smooth="yes"/>
      <point x="392.0" y="1076.0"/>
      <point x="448.0" y="1050.0"/>
      <point x="520.0" y="1050.0" type="curve" smooth="yes"/>
      <point x="586.0" y="1050.0"/>
      <point x="644.0" y="1076.0"/>
      <point x="708.0" y="1158.0" type="curve" smooth="yes"/>
      <point x="798.0" y="1274.0" type="line" smooth="yes"/>
      <point x="812.0" y="1292.0"/>
      <point x="832.0" y="1318.0"/>
      <point x="832.0" y="1340.0" type="curve" smooth="yes"/>
      <point x="832.0" y="1371.8461538461538"/>
      <point x="815.3599999999999" y="1386.0"/>
      <point x="780.0" y="1386.0" type="curve" smooth="yes"/>
      <point x="754.3636363636364" y="1386.0"/>
      <point x="732.0" y="1376.0"/>
      <point x="686.0" y="1344.0" type="curve" smooth="yes"/>
      <point x="456.0" y="1190.0" type="line"/>
      <point x="584.0" y="1190.0" type="line"/>
      <point x="354.0" y="1344.0" type="line" smooth="yes"/>
      <point x="310.0" y="1374.0"/>
      <point x="285.6363636363636" y="1384.0"/>
      <point x="260.0" y="1384.0" type="curve" smooth="yes"/>
      <point x="224.64" y="1384.0"/>
      <point x="208.0" y="1370.3703703703704"/>
      <point x="208.0" y="1338.0" type="curve" smooth="yes"/>
      <point x="208.0" y="1315.142857142857"/>
      <point x="228.0" y="1292.0"/>
    </contour>
  </outline>
</glyph>
<glyph name="Gcircumflex" format="2">
  <advance width="1534"/>
  <unicode hex="011C"/>
  <outline>
    <contour>
      <point x="1350.0" y="70.0" type="curve" smooth="yes"/>
      <point x="1350.0" y="398.0" type="line" smooth="yes"/>
      <point x="1350.0" y="460.0"/>
      <point x="1376.0" y="494.0"/>
      <point x="1412.0" y="516.0" type="curve" smooth="yes"/>
      <point x="1432.0" y="528.0" type="line" smooth="yes"/>
      <point x="1476.0" y="554.0"/>
      <point x="1488.0" y="574.0"/>
      <point x="1488.0" y="614.0" type="curve" smooth="yes"/>
      <point x="1488.0" y="658.0"/>
      <point x="1456.0" y="684.0"/>
      <point x="1406.0" y="684.0" type="curve" smooth="yes"/>
      <point x="898.0" y="684.0" type="line" smooth="yes"/>
      <point x="846.0" y="684.0"/>
      <point x="816.0" y="656.0"/>
      <point x="816.0" y="610.0" type="curve" smooth="yes"/>
      <point x="816.0" y="560.0"/>
      <point x="848.0" y="536.0"/>
      <point x="906.0" y="524.0" type="curve" smooth="yes"/>
      <point x="956.0" y="514.0" type="line" smooth="yes"/>
      <point x="1004.0" y="504.0"/>
      <point x="1032.0" y="462.0"/>
      <point x="1032.0" y="402.0" type="curve" smooth="yes"/>
      <point x="1032.0" y="292.0" type="line" smooth="yes"/>
      <point x="1032.0" y="212.0"/>
      <point x="984.0" y="170.0"/>
      <point x="864.0" y="170.0" type="curve" smooth="yes"/>
      <point x="578.0" y="170.0"/>
      <point x="386.0" y="388.0"/>
      <point x="386.0" y="730.0" type="curve" smooth="yes"/>
      <point x="386.0" y="1060.0"/>
      <point x="546.0" y="1280.0"/>
      <point x="808.0" y="1280.0" type="curve" smooth="yes"/>
      <point x="936.0" y="1280.0"/>
      <point x="1064.0" y="1224.0"/>
      <point x="1198.0" y="1032.0" type="curve" smooth="yes"/>
      <point x="1254.0" y="952.0"/>
      <point x="1298.0" y="922.0"/>
      <point x="1342.0" y="922.0" type="curve" smooth="yes"/>
      <point x="1388.0" y="922.0"/>
      <point x="1420.0" y="954.0"/>
      <point x="1420.0" y="1004.0" type="curve" smooth="yes"/>
      <point x="1420.0" y="1026.0"/>
      <point x="1412.0" y="1046.0"/>
      <point x="1406.0" y="1076.0" type="curve" smooth="yes"/>
      <point x="1350.0" y="1346.0" type="line" smooth="yes"/>
      <point x="1336.0" y="1410.0"/>
      <point x="1306.0" y="1428.0"/>
      <point x="1266.0" y="1428.0" type="curve" smooth="yes"/>
      <point x="1210.0" y="1428.0"/>
      <point x="1176.0" y="1364.0"/>
      <point x="1112.0" y="1364.0" type="curve" smooth="yes"/>
      <point x="1072.0" y="1364.0"/>
      <point x="998.0" y="1428.0"/>
      <point x="834.0" y="1428.0" type="curve" smooth="yes"/>
      <point x="364.0" y="1428.0"/>
      <point x="60.0" y="1104.0"/>
      <point x="60.0" y="660.0" type="curve" smooth="yes"/>
      <point x="60.0" y="244.0"/>
      <point x="324.0" y="-30.0"/>
      <point x="702.0" y="-30.0" type="curve" smooth="yes"/>
      <point x="882.0" y="-30.0"/>
      <point x="970.0" y="62.0"/>
      <point x="1038.0" y="62.0" type="curve" smooth="yes"/>
      <point x="1106.0" y="62.0"/>
      <point x="1154.0" y="-30.0"/>
      <point x="1230.0" y="-30.0" type="curve" smooth="yes"/>
      <point x="1318.0" y="-30.0"/>
      <point x="1350.0" y="10.0"/>
    </contour>
    <contour>
      <point x="482.09999999998837" y="1586.9999999999998" type="curve" smooth="yes"/>
      <point x="574.4999999999884" y="1691.3999999999999" type="line" smooth="yes"/>
      <point x="639.5999999999883" y="1765.1999999999998"/>
      <point x="698.3999999999884" y="1788.6"/>
      <point x="773.9999999999884" y="1788.6" type="curve" smooth="yes"/>
      <point x="843.2999999999884" y="1788.6"/>
      <point x="904.1999999999883" y="1765.1999999999998"/>
      <point x="971.3999999999884" y="1691.3999999999999" type="curve" smooth="yes"/>
      <point x="1065.8999999999883" y="1586.9999999999998" type="line" smooth="yes"/>
      <point x="1080.5999999999885" y="1570.8"/>
      <point x="1101.5999999999885" y="1547.3999999999999"/>
      <point x="1101.5999999999885" y="1527.6" type="curve" smooth="yes"/>
      <point x="1101.5999999999885" y="1498.9384615384615"/>
      <point x="1084.1279999999883" y="1486.1999999999998"/>
      <point x="1046.9999999999884" y="1486.1999999999998" type="curve" smooth="yes"/>
      <point x="1020.0818181818066" y="1486.1999999999998"/>
      <point x="996.5999999999884" y="1495.1999999999998"/>
      <point x="948.2999999999884" y="1523.9999999999998" type="curve" smooth="yes"/>
      <point x="706.7999999999884" y="1662.6" type="line"/>
      <point x="841.1999999999884" y="1662.6" type="line"/>
      <point x="599.6999999999883" y="1523.9999999999998" type="line" smooth="yes"/>
      <point x="553.4999999999884" y="1496.9999999999998"/>
      <point x="527.9181818181702" y="1487.9999999999998"/>
      <point x="500.9999999999884" y="1487.9999999999998" type="curve" smooth="yes"/>
      <point x="463.87199999998836" y="1487.9999999999998"/>
      <point x="446.3999999999884" y="1500.2666666666664"/>
      <point x="446.3999999999884" y="1529.3999999999999" type="curve" smooth="yes"/>
      <point x="446.3999999999884" y="1549.9714285714285"/>
      <point x="467.3999999999884" y="1570.8"/>
    </contour>
  </outline>
</glyph>
<glyph name="hbar" format="2">
  <advance width="1262"/>
  <unicode hex="0127"/>
  <outline>
    <contour>
      <point x="20.0" y="1058.0" type="curve" smooth="yes"/>
      <point x="20.0" y="1090.0"/>
      <point x="40.0" y="1114.0"/>
      <point x="70.0" y="1114.0" type="curve" smooth="yes"/>
      <point x="588.0" y="1114.0" type="line" smooth="yes"/>
      <point x="620.0" y="1114.0"/>
      <point x="642.0" y="1090.0"/>
      <point x="642.0" y="1058.0" type="curve" smooth="yes"/>
      <point x="642.0" y="1028.0"/>
      <point x="620.0" y="1010.0"/>
      <point x="588.0" y="1010.0" type="curve" smooth="yes"/>
      <point x="68.0" y="1010.0" type="line" smooth="yes"/>
      <point x="38.0" y="1010.0"/>
      <point x="20.0" y="1028.0"/>
    </contour>
    <contour>
      <point x="424.0" y="612.0" type="line" smooth="yes"/>
      <point x="352.0" y="702.0" type="line"/>
      <point x="416.0" y="768.0" type="line" smooth="yes"/>
      <point x="528.0" y="882.0"/>
      <point x="656.0" y="948.0"/>
      <point x="812.0" y="948.0" type="curve" smooth="yes"/>
      <point x="948.0" y="948.0"/>
      <point x="1060.0" y="856.0"/>
      <point x="1082.0" y="674.0" type="curve" smooth="yes"/>
      <point x="1134.0" y="224.0" type="line" smooth="yes"/>
      <point x="1140.0" y="170.0"/>
      <point x="1156.0" y="142.0"/>
      <point x="1182.0" y="134.0" type="curve" smooth="yes"/>
      <point x="1198.0" y="130.0" type="line" smooth="yes"/>
      <point x="1226.0" y="122.0"/>
      <point x="1248.0" y="102.0"/>
      <point x="1248.0" y="64.0" type="curve" smooth="yes"/>
      <point x="1248.0" y="24.0"/>
      <point x="1222.0" y="0.0"/>
      <point x="1186.0" y="0.0" type="curve" smooth="yes"/>
      <point x="742.0" y="0.0" type="line" smooth="yes"/>
      <point x="708.0" y="0.0"/>
      <point x="682.0" y="22.0"/>
      <point x="682.0" y="68.0" type="curve" smooth="yes"/>
      <point x="682.0" y="104.0"/>
      <point x="708.0" y="126.0"/>
      <point x="744.0" y="134.0" type="curve" smooth="yes"/>
      <point x="764.0" y="138.0" type="line" smooth="yes"/>
      <point x="808.0" y="146.0"/>
      <point x="830.0" y="172.0"/>
      <point x="822.0" y="246.0" type="curve" smooth="yes"/>
      <point x="784.0" y="586.0" type="line" smooth="yes"/>
      <point x="772.0" y="694.0"/>
      <point x="714.0" y="740.0"/>
      <point x="634.0" y="740.0" type="curve" smooth="yes"/>
      <point x="576.0" y="740.0"/>
      <point x="526.0" y="718.0"/>
      <point x="472.0" y="662.0" type="curve" smooth="yes"/>
    </contour>
    <contour>
      <point x="458.0" y="1384.0" type="curve" smooth="yes"/>
      <point x="458.0" y="222.0" type="line" smooth="yes"/>
      <point x="458.0" y="178.0"/>
      <point x="472.0" y="152.0"/>
      <point x="498.0" y="142.0" type="curve" smooth="yes"/>
      <point x="530.0" y="130.0" type="line" smooth="yes"/>
      <point x="576.0" y="114.0"/>
      <point x="596.0" y="100.0"/>
      <point x="596.0" y="62.0" type="curve" smooth="yes"/>
      <point x="596.0" y="20.0"/>
      <point x="572.0" y="0.0"/>
      <point x="526.0" y="0.0" type="curve" smooth="yes"/>
      <point x="84.0" y="0.0" type="line" smooth="yes"/>
      <point x="46.0" y="0.0"/>
      <point x="22.0" y="24.0"/>
      <point x="22.0" y="64.0" type="curve" smooth="yes"/>
      <point x="22.0" y="100.0"/>
      <point x="42.0" y="114.0"/>
      <point x="78.0" y="128.0" type="curve" smooth="yes"/>
      <point x="98.0" y="136.0" type="line" smooth="yes"/>
      <point x="132.0" y="150.0"/>
      <point x="162.0" y="162.0"/>
      <point x="162.0" y="222.0" type="curve" smooth="yes"/>
      <point x="162.0" y="1140.0" type="line" smooth="yes"/>
      <point x="162.0" y="1190.0"/>
      <point x="130.0" y="1212.0"/>
      <point x="102.0" y="1212.0" type="curve" smooth="yes"/>
      <point x="88.0" y="1212.0" type="line" smooth="yes"/>
      <point x="44.0" y="1212.0"/>
      <point x="18.0" y="1230.0"/>
      <point x="18.0" y="1268.0" type="curve" smooth="yes"/>
      <point x="18.0" y="1294.0"/>
      <point x="34.0" y="1322.0"/>
      <point x="80.0" y="1340.0" type="curve" smooth="yes"/>
      <point x="284.0" y="1418.0" type="line" smooth="yes"/>
      <point x="336.0" y="1438.0"/>
      <point x="366.0" y="1450.0"/>
      <point x="400.0" y="1450.0" type="curve" smooth="yes"/>
      <point x="436.0" y="1450.0"/>
      <point x="458.0" y="1424.0"/>
    </contour>
  </outline>
</glyph>
<glyph name="Imacron" format="2">
  <advance width="812"/>
  <unicode hex="012A"/>
  <outline>
    <contour>
      <point x="570.0" y="252.0" type="curve" smooth="yes"/>
      <point x="570.0" y="1146.0" type="line" smooth="yes"/>
      <point x="570.0" y="1200.0"/>
      <point x="594.0" y="1224.0"/>
      <point x="644.0" y="1236.0" type="curve" smooth="yes"/>
      <point x="688.0" y="1246.0" type="line" smooth="yes"/>
      <point x="736.0" y="1256.0"/>
      <point x="760.0" y="1280.0"/>
      <point x="760.0" y="1328.0" type="curve" smooth="yes"/>
      <point x="760.0" y="1378.0"/>
      <point x="734.0" y="1400.0"/>
      <point x="680.0" y="1400.0" type="curve" smooth="yes"/>
      <point x="134.0" y="1400.0" type="line" smooth="yes"/>
      <point x="74.0" y="1400.0"/>
      <point x="50.0" y="1378.0"/>
      <point x="50.0" y="1328.0" type="curve" smooth="yes"/>
      <point x="50.0" y="1280.0"/>
      <point x="72.0" y="1260.0"/>
      <point x="118.0" y="1248.0" type="curve" smooth="yes"/>
      <point x="168.0" y="1236.0" type="line" smooth="yes"/>
      <point x="216.0" y="1224.0"/>
      <point x="242.0" y="1200.0"/>
      <point x="242.0" y="1146.0" type="curve" smooth="yes"/>
      <point x="242.0" y="252.0" type="line" smooth="yes"/>
      <point x="242.0" y="200.0"/>
      <point x="216.0" y="176.0"/>
      <point x="168.0" y="164.0" type="curve" smooth="yes"/>
      <point x="130.0" y="154.0" type="line" smooth="yes"/>
      <point x="78.0" y="140.0"/>
      <point x="52.0" y="118.0"/>
      <point x="52.0" y="72.0" type="curve" smooth="yes"/>
      <point x="52.0" y="22.0"/>
      <point x="74.0" y="0.0"/>
      <point x="134.0" y="0.0" type="curve" smooth="yes"/>
      <point x="678.0" y="0.0" type="line" smooth="yes"/>
      <point x="734.0" y="0.0"/>
      <point x="762.0" y="22.0"/>
      <point x="762.0" y="72.0" type="curve" smooth="yes"/>
      <point x="762.0" y="120.0"/>
      <point x="738.0" y="144.0"/>
      <point x="690.0" y="154.0" type="curve" smooth="yes"/>
      <point x="644.0" y="164.0" type="line" smooth="yes"/>
      <point x="594.0" y="174.0"/>
      <point x="570.0" y="200.0"/>
    </contour>
    <contour>
      <point x="71.0" y="1564.0" type="curve" smooth="yes"/>
      <point x="71.0" y="1512.0"/>
      <point x="103.0" y="1478.0"/>
      <point x="155.0" y="1478.0" type="curve" smooth="yes"/>
      <point x="655.0" y="1478.0" type="line" smooth="yes"/>
      <point x="707.0" y="1478.0"/>
      <point x="741.0" y="1512.0"/>
      <point x="741.0" y="1564.0" type="curve" smooth="yes"/>
      <point x="741.0" y="1618.0"/>
      <point x="705.0" y="1654.0"/>
      <point x="655.0" y="1654.0" type="curve" smooth="yes"/>
      <point x="157.0" y="1654.0" type="line" smooth="yes"/>
      <point x="107.0" y="1654.0"/>
      <point x="71.0" y="1618.0"/>
    </contour>
  </outline>
</glyph>
<glyph name="Iogonek" format="2">
  <advance width="812"/>
  <unicode hex="012E"/>
  <outline>
    <contour>
      <point x="570.0" y="252.0" type="curve" smooth="yes"/>
      <point x="570.0" y="1146.0" type="line" smooth="yes"/>
      <point x="570.0" y="1200.0"/>
      <point x="594.0" y="1224.0"/>
      <point x="644.0" y="1236.0" type="curve" smooth="yes"/>
      <point x="688.0" y="1246.0" type="line" smooth="yes"/>
      <point x="736.0" y="1256.0"/>
      <point x="760.0" y="1280.0"/>
      <point x="760.0" y="1328.0" type="curve" smooth="yes"/>
      <point x="760.0" y="1378.0"/>
      <point x="734.0" y="1400.0"/>
      <point x="680.0" y="1400.0" type="curve" smooth="yes"/>
      <point x="134.0" y="1400.0" type="line" smooth="yes"/>
      <point x="74.0" y="1400.0"/>
      <point x="50.0" y="1378.0"/>
      <point x="50.0" y="1328.0" type="curve" smooth="yes"/>
      <point x="50.0" y="1280.0"/>
      <point x="72.0" y="1260.0"/>
      <point x="118.0" y="1248.0" type="curve" smooth="yes"/>
      <point x="168.0" y="1236.0" type="line" smooth="yes"/>
      <point x="216.0" y="1224.0"/>
      <point x="242.0" y="1200.0"/>
      <point x="242.0" y="1146.0" type="curve" smooth="yes"/>
      <point x="242.0" y="252.0" type="line" smooth="yes"/>
      <point x="242.0" y="200.0"/>
      <point x="216.0" y="176.0"/>
      <point x="168.0" y="164.0" type="curve" smooth="yes"/>
      <point x="130.0" y="154.0" type="line" smooth="yes"/>
      <point x="78.0" y="140.0"/>
      <point x="52.0" y="118.0"/>
      <point x="52.0" y="72.0" type="curve" smooth="yes"/>
      <point x="52.0" y="22.0"/>
      <point x="74.0" y="0.0"/>
      <point x="134.0" y="0.0" type="curve" smooth="yes"/>
      <point x="678.0" y="0.0" type="line" smooth="yes"/>
      <point x="734.0" y="0.0"/>
      <point x="762.0" y="22.0"/>
      <point x="762.0" y="72.0" type="curve" smooth="yes"/>
      <point x="762.0" y="120.0"/>
      <point x="738.0" y="144.0"/>
      <point x="690.0" y="154.0" type="curve" smooth="yes"/>
      <point x="644.0" y="164.0" type="line" smooth="yes"/>
      <point x="594.0" y="174.0"/>
      <point x="570.0" y="200.0"/>
    </contour>
    <contour>
      <point x="524.0" y="252.0" type="line"/>
      <point x="239.1164362772089" y="107.5233355405845"/>
      <point x="134.0" y="6.2914572864321485"/>
      <point x="134.0" y="-130.0" type="curve" smooth="yes"/>
      <point x="134.0" y="-239.19540229885058"/>
      <point x="232.47619047619048" y="-320.0"/>
      <point x="398.0" y="-320.0" type="curve" smooth="yes"/>
      <point x="571.7226277372263" y="-320.0"/>
      <point x="678.0" y="-246.0"/>
      <point x="678.0" y="-150.0" type="curve" smooth="yes"/>
      <point x="678.0" y="-90.0"/>
      <point x="642.0" y="-52.0"/>
      <point x="588.0" y="-52.0" type="curve" smooth="yes"/>
      <point x="530.0" y="-52.0"/>
      <point x="488.0" y="-98.0"/>
      <point x="488.0" y="-172.0" type="curve" smooth="yes"/>
      <point x="488.0" y="-210.0"/>
      <point x="461.3333333333333" y="-230.0"/>
      <point x="428.0" y="-230.0" type="curve" smooth="yes"/>
      <point x="389.37931034482756" y="-230.0"/>
      <point x="358.0" y="-190.96296296296293"/>
      <point x="358.0" y="-106.0" type="curve" smooth="yes"/>
      <point x="358.0" y="7.766233766233768"/>
      <point x="427.67538432552834" y="101.39251113745092"/>
      <point x="568.0" y="186.0" type="curve"/>
    </contour>
  </outline>
</glyph>
<glyph name="Idotaccent" format="2">
  <advance width="812"/>
  <unicode hex="0130"/>
  <outline>
    <contour>
      <point x="570.0" y="252.0" type="curve" smooth="yes"/>
      <point x="570.0" y="1146.0" type="line" smooth="yes"/>
      <point x="570.0" y="1200.0"/>
      <point x="594.0" y="1224.0"/>
      <point x="644.0" y="1236.0" type="curve" smooth="yes"/>
      <point x="688.0" y="1246.0" type="line" smooth="yes"/>
      <point x="736.0" y="1256.0"/>
      <point x="760.0" y="1280.0"/>
      <point x="760.0" y="1328.0" type="curve" smooth="yes"/>
      <point x="760.0" y="1378.0"/>
      <point x="734.0" y="1400.0"/>
      <point x="680.0" y="1400.0" type="curve" smooth="yes"/>
      <point x="134.0" y="1400.0" type="line" smooth="yes"/>
      <point x="74.0" y="1400.0"/>
      <point x="50.0" y="1378.0"/>
      <point x="50.0" y="1328.0" type="curve" smooth="yes"/>
      <point x="50.0" y="1280.0"/>
      <point x="72.0" y="1260.0"/>
      <point x="118.0" y="1248.0" type="curve" smooth="yes"/>
      <point x="168.0" y="1236.0" type="line" smooth="yes"/>
      <point x="216.0" y="1224.0"/>
      <point x="242.0" y="1200.0"/>
      <point x="242.0" y="1146.0" type="curve" smooth="yes"/>
      <point x="242.0" y="252.0" type="line" smooth="yes"/>
      <point x="242.0" y="200.0"/>
      <point x="216.0" y="176.0"/>
      <point x="168.0" y="164.0" type="curve" smooth="yes"/>
      <point x="130.0" y="154.0" type="line" smooth="yes"/>
      <point x="78.0" y="140.0"/>
      <point x="52.0" y="118.0"/>
      <point x="52.0" y="72.0" type="curve" smooth="yes"/>
      <point x="52.0" y="22.0"/>
      <point x="74.0" y="0.0"/>
      <point x="134.0" y="0.0" type="curve" smooth="yes"/>
      <point x="678.0" y="0.0" type="line" smooth="yes"/>
      <point x="734.0" y="0.0"/>
      <point x="762.0" y="22.0"/>
      <point x="762.0" y="72.0" type="curve" smooth="yes"/>
      <point x="762.0" y="120.0"/>
      <point x="738.0" y="144.0"/>
      <point x="690.0" y="154.0" type="curve" smooth="yes"/>
      <point x="644.0" y="164.0" type="line" smooth="yes"/>
      <point x="594.0" y="174.0"/>
      <point x="570.0" y="200.0"/>
    </contour>
    <contour>
      <point x="405.1000000000058" y="1396.8000000000002" type="curve" smooth="yes"/>
      <point x="496.90000000000583" y="1396.8000000000002"/>
      <point x="570.7000000000058" y="1472.4"/>
      <point x="570.7000000000058" y="1564.2" type="curve" smooth="yes"/>
      <point x="570.7000000000058" y="1656.0"/>
      <point x="496.90000000000583" y="1728.0"/>
      <point x="405.1000000000058" y="1728.0" type="curve" smooth="yes"/>
      <point x="315.1000000000058" y="1728.0"/>
      <point x="241.3000000000058" y="1656.0"/>
      <point x="241.3000000000058" y="1564.2" type="curve" smooth="yes"/>
      <point x="241.3000000000058" y="1472.4"/>
      <point x="315.1000000000058" y="1396.8000000000002"/>
    </contour>
  </outline>
</glyph>
<glyph name="ij" format="2">
  <advance width="1204"/>
  <unicode hex="0133"/>
  <outline>
    <contour>
      <point x="488.0" y="914.0" type="line" smooth="yes"/>
      <point x="488.0" y="954.0"/>
      <point x="466.0" y="980.0"/>
      <point x="430.0" y="980.0" type="curve" smooth="yes"/>
      <point x="396.0" y="980.0"/>
      <point x="366.0" y="968.0"/>
      <point x="314.0" y="948.0" type="curve" smooth="yes"/>
      <point x="110.0" y="870.0" type="line" smooth="yes"/>
      <point x="66.0" y="854.0"/>
      <point x="50.0" y="822.0"/>
      <point x="50.0" y="796.0" type="curve" smooth="yes"/>
      <point x="50.0" y="756.0"/>
      <point x="74.0" y="738.0"/>
      <point x="114.0" y="738.0" type="curve" smooth="yes"/>
      <point x="132.0" y="738.0" type="line" smooth="yes"/>
      <point x="160.0" y="738.0"/>
      <point x="192.0" y="716.0"/>
      <point x="192.0" y="666.0" type="curve" smooth="yes"/>
      <point x="192.0" y="214.0" type="line" smooth="yes"/>
      <point x="192.0" y="174.0"/>
      <point x="170.0" y="154.0"/>
      <point x="142.0" y="142.0" type="curve" smooth="yes"/>
      <point x="94.0" y="122.0" type="line" smooth="yes"/>
      <point x="59.58770733376537" y="107.66154472240224"/>
      <point x="44.0" y="94.84848484848484"/>
      <point x="44.0" y="66.0" type="curve" smooth="yes"/>
      <point x="44.0" y="24.0"/>
      <point x="70.0" y="0.0"/>
      <point x="114.0" y="0.0" type="curve" smooth="yes"/>
      <point x="560.0" y="0.0" type="line" smooth="yes"/>
      <point x="598.0" y="0.0"/>
      <point x="626.0" y="20.0"/>
      <point x="626.0" y="62.0" type="curve" smooth="yes"/>
      <point x="626.0" y="92.375"/>
      <point x="607.9799341702811" y="99.74872713595249"/>
      <point x="574.0" y="116.0" type="curve" smooth="yes"/>
      <point x="528.0" y="138.0" type="line" smooth="yes"/>
      <point x="502.0" y="150.0"/>
      <point x="488.0" y="172.0"/>
      <point x="488.0" y="214.0" type="curve" smooth="yes"/>
    </contour>
    <contour>
      <point x="318.0" y="1062.0" type="curve" smooth="yes"/>
      <point x="420.0" y="1062.0"/>
      <point x="502.0" y="1146.0"/>
      <point x="502.0" y="1248.0" type="curve" smooth="yes"/>
      <point x="502.0" y="1350.0"/>
      <point x="420.0" y="1430.0"/>
      <point x="318.0" y="1430.0" type="curve" smooth="yes"/>
      <point x="218.0" y="1430.0"/>
      <point x="136.0" y="1350.0"/>
      <point x="136.0" y="1248.0" type="curve" smooth="yes"/>
      <point x="136.0" y="1146.0"/>
      <point x="218.0" y="1062.0"/>
    </contour>
    <contour>
      <point x="924.0" y="1062.0" type="curve" smooth="yes"/>
      <point x="1026.0" y="1062.0"/>
      <point x="1108.0" y="1146.0"/>
      <point x="1108.0" y="1248.0" type="curve" smooth="yes"/>
      <point x="1108.0" y="1350.0"/>
      <point x="1026.0" y="1430.0"/>
      <point x="924.0" y="1430.0" type="curve" smooth="yes"/>
      <point x="824.0" y="1430.0"/>
      <point x="742.0" y="1350.0"/>
      <point x="742.0" y="1248.0" type="curve" smooth="yes"/>
      <point x="742.0" y="1146.0"/>
      <point x="824.0" y="1062.0"/>
    </contour>
    <contour>
      <point x="1098.0" y="154.0" type="line" smooth="yes"/>
      <point x="1098.0" y="55.53623188405797"/>
      <point x="1190.0" y="-47.507246376811594"/>
      <point x="1190.0" y="-162.0" type="curve" smooth="yes"/>
      <point x="1190.0" y="-358.0"/>
      <point x="1046.0" y="-490.0"/>
      <point x="846.0" y="-490.0" type="curve" smooth="yes"/>
      <point x="678.0" y="-490.0"/>
      <point x="552.0" y="-396.0"/>
      <point x="552.0" y="-276.0" type="curve" smooth="yes"/>
      <point x="552.0" y="-186.0"/>
      <point x="608.0" y="-128.0"/>
      <point x="694.0" y="-128.0" type="curve" smooth="yes"/>
      <point x="780.0" y="-128.0"/>
      <point x="834.0" y="-186.0"/>
      <point x="834.0" y="-272.0" type="curve" smooth="yes"/>
      <point x="834.0" y="-306.0" type="line" smooth="yes"/>
      <point x="834.0" y="-342.0"/>
      <point x="854.0" y="-362.0"/>
      <point x="892.0" y="-362.0" type="curve" smooth="yes"/>
      <point x="944.0" y="-362.0"/>
      <point x="978.0" y="-319.5"/>
      <point x="978.0" y="-262.0" type="curve" smooth="yes"/>
      <point x="978.0" y="-154.33333333333334"/>
      <point x="804.0" y="-55.875"/>
      <point x="804.0" y="78.0" type="curve" smooth="yes"/>
      <point x="804.0" y="660.0" type="line" smooth="yes"/>
      <point x="804.0" y="716.0"/>
      <point x="780.0" y="738.0"/>
      <point x="752.0" y="738.0" type="curve" smooth="yes"/>
      <point x="716.0" y="738.0" type="line" smooth="yes"/>
      <point x="682.0" y="738.0"/>
      <point x="662.0" y="762.0"/>
      <point x="662.0" y="800.0" type="curve" smooth="yes"/>
      <point x="662.0" y="824.0"/>
      <point x="686.0" y="858.0"/>
      <point x="726.0" y="872.0" type="curve" smooth="yes"/>
      <point x="956.0" y="958.0" type="line" smooth="yes"/>
      <point x="994.0" y="972.0"/>
      <point x="1016.0" y="980.0"/>
      <point x="1040.0" y="980.0" type="curve" smooth="yes"/>
      <point x="1076.0" y="980.0"/>
      <point x="1098.0" y="958.0"/>
      <point x="1098.0" y="920.0" type="curve" smooth="yes"/>
    </contour>
  </outline>
</glyph>
<glyph name="Lacute" format="2">
  <advance width="1230"/>
  <unicode hex="0139"/>
  <outline>
    <contour>
      <point x="716.0" y="1250.0" type="line" smooth="yes"/>
      <point x="762.0" y="1260.0"/>
      <point x="788.0" y="1290.0"/>
      <point x="788.0" y="1328.0" type="curve" smooth="yes"/>
      <point x="788.0" y="1376.0"/>
      <point x="758.0" y="1400.0"/>
      <point x="724.0" y="1400.0" type="curve" smooth="yes"/>
      <point x="130.0" y="1400.0" type="line" smooth="yes"/>
      <point x="88.0" y="1400.0"/>
      <point x="60.0" y="1376.0"/>
      <point x="60.0" y="1328.0" type="curve" smooth="yes"/>
      <point x="60.0" y="1284.0"/>
      <point x="90.0" y="1256.0"/>
      <point x="126.0" y="1246.0" type="curve" smooth="yes"/>
      <point x="164.0" y="1236.0" type="line" smooth="yes"/>
      <point x="216.0" y="1222.0"/>
      <point x="240.0" y="1192.0"/>
      <point x="240.0" y="1132.0" type="curve" smooth="yes"/>
      <point x="240.0" y="238.0" type="line" smooth="yes"/>
      <point x="240.0" y="200.0"/>
      <point x="218.0" y="172.0"/>
      <point x="184.0" y="166.0" type="curve" smooth="yes"/>
      <point x="124.0" y="154.0" type="line" smooth="yes"/>
      <point x="84.0" y="146.0"/>
      <point x="60.0" y="122.0"/>
      <point x="60.0" y="74.0" type="curve" smooth="yes"/>
      <point x="60.0" y="24.0"/>
      <point x="82.0" y="0.0"/>
      <point x="122.0" y="0.0" type="curve" smooth="yes"/>
      <point x="832.0" y="0.0" type="line" smooth="yes"/>
      <point x="918.7640449438202" y="0.0"/>
      <point x="965.4831460674158" y="-42.0"/>
      <point x="1030.0" y="-42.0" type="curve" smooth="yes"/>
      <point x="1092.0" y="-42.0"/>
      <point x="1119.1640218050293" y="-8.400791186918923"/>
      <point x="1138.0" y="64.0" type="curve" smooth="yes"/>
      <point x="1202.0" y="310.0" type="line" smooth="yes"/>
      <point x="1226.0" y="404.0"/>
      <point x="1190.0" y="446.0"/>
      <point x="1144.0" y="446.0" type="curve" smooth="yes"/>
      <point x="1106.0" y="446.0"/>
      <point x="1078.0" y="438.0"/>
      <point x="1038.0" y="370.0" type="curve" smooth="yes"/>
      <point x="984.0" y="280.0" type="line" smooth="yes"/>
      <point x="936.0" y="200.0"/>
      <point x="868.0" y="160.0"/>
      <point x="756.0" y="160.0" type="curve" smooth="yes"/>
      <point x="716.0" y="160.0" type="line" smooth="yes"/>
      <point x="614.0" y="160.0"/>
      <point x="568.0" y="208.0"/>
      <point x="568.0" y="310.0" type="curve" smooth="yes"/>
      <point x="568.0" y="1120.0" type="line" smooth="yes"/>
      <point x="568.0" y="1190.0"/>
      <point x="598.0" y="1222.0"/>
      <point x="656.0" y="1236.0" type="curve" smooth="yes"/>
    </contour>
    <contour>
      <point x="304.0" y="1562.0" type="curve" smooth="yes"/>
      <point x="500.0" y="1678.0" type="line" smooth="yes"/>
      <point x="604.0" y="1740.0"/>
      <point x="684.0" y="1776.0"/>
      <point x="766.0" y="1776.0" type="curve" smooth="yes"/>
      <point x="844.0" y="1776.0"/>
      <point x="886.0" y="1736.3809523809523"/>
      <point x="886.0" y="1672.0" type="curve" smooth="yes"/>
      <point x="886.0" y="1612.0"/>
      <point x="814.0" y="1566.0"/>
      <point x="686.0" y="1532.0" type="curve" smooth="yes"/>
      <point x="440.0" y="1468.0" type="line" smooth="yes"/>
      <point x="383.3687855450893" y="1453.2666759141696"/>
      <point x="344.983606557377" y="1446.0"/>
      <point x="314.0" y="1446.0" type="curve" smooth="yes"/>
      <point x="274.0" y="1446.0"/>
      <point x="254.0" y="1462.0"/>
      <point x="254.0" y="1496.0" type="curve" smooth="yes"/>
      <point x="254.0" y="1517.2142857142858"/>
      <point x="275.32587241060156" y="1545.0295979572948"/>
    </contour>
  </outline>
</glyph>
<glyph name="lcommaaccent" format="2">
  <advance width="656"/>
  <unicode hex="013C"/>
  <outline>
    <contour>
      <point x="488.0" y="1384.0" type="curve" smooth="yes"/>
      <point x="488.0" y="222.0" type="line" smooth="yes"/>
      <point x="488.0" y="178.0"/>
      <point x="502.0" y="152.0"/>
      <point x="528.0" y="142.0" type="curve" smooth="yes"/>
      <point x="560.0" y="130.0" type="line" smooth="yes"/>
      <point x="606.0" y="114.0"/>
      <point x="626.0" y="100.0"/>
      <point x="626.0" y="62.0" type="curve" smooth="yes"/>
      <point x="626.0" y="20.0"/>
      <point x="602.0" y="0.0"/>
      <point x="556.0" y="0.0" type="curve" smooth="yes"/>
      <point x="114.0" y="0.0" type="line" smooth="yes"/>
      <point x="76.0" y="0.0"/>
      <point x="52.0" y="24.0"/>
      <point x="52.0" y="64.0" type="curve" smooth="yes"/>
      <point x="52.0" y="100.0"/>
      <point x="72.0" y="114.0"/>
      <point x="108.0" y="128.0" type="curve" smooth="yes"/>
      <point x="128.0" y="136.0" type="line" smooth="yes"/>
      <point x="162.0" y="150.0"/>
      <point x="192.0" y="162.0"/>
      <point x="192.0" y="222.0" type="curve" smooth="yes"/>
      <point x="192.0" y="1140.0" type="line" smooth="yes"/>
      <point x="192.0" y="1190.0"/>
      <point x="160.0" y="1212.0"/>
      <point x="132.0" y="1212.0" type="curve" smooth="yes"/>
      <point x="118.0" y="1212.0" type="line" smooth="yes"/>
      <point x="74.0" y="1212.0"/>
      <point x="48.0" y="1230.0"/>
      <point x="48.0" y="1268.0" type="curve" smooth="yes"/>
      <point x="48.0" y="1294.0"/>
      <point x="64.0" y="1322.0"/>
      <point x="110.0" y="1340.0" type="curve" smooth="yes"/>
      <point x="314.0" y="1418.0" type="line" smooth="yes"/>
      <point x="366.0" y="1438.0"/>
      <point x="396.0" y="1450.0"/>
      <point x="430.0" y="1450.0" type="curve" smooth="yes"/>
      <point x="466.0" y="1450.0"/>
      <point x="488.0" y="1424.0"/>
    </contour>
    <contour>
      <point x="291.0" y="-210.0" type="curve" smooth="yes"/>
      <point x="317.0" y="-210.0" type="line" smooth="yes"/>
      <point x="339.0" y="-210.0"/>
      <point x="345.0" y="-222.0"/>
      <point x="345.0" y="-242.0" type="curve" smooth="yes"/>
      <point x="345.0" y="-275.0909090909091"/>
      <point x="307.0" y="-298.0"/>
      <point x="249.0" y="-298.0" type="curve" smooth="yes"/>
      <point x="201.0" y="-298.0"/>
      <point x="189.0" y="-324.0"/>
      <point x="189.0" y="-350.0" type="curve" smooth="yes"/>
      <point x="189.0" y="-378.57142857142856"/>
      <point x="213.0" y="-400.0"/>
      <point x="253.0" y="-400.0" type="curve" smooth="yes"/>
      <point x="389.0" y="-400.0"/>
      <point x="493.0" y="-316.0"/>
      <point x="493.0" y="-190.0" type="curve" smooth="yes"/>
      <point x="493.0" y="-76.0"/>
      <point x="424.06382978723406" y="2.0"/>
      <point x="313.0" y="2.0" type="curve" smooth="yes"/>
      <point x="240.61290322580646" y="2.0"/>
      <point x="181.0" y="-52.0"/>
      <point x="181.0" y="-112.0" type="curve" smooth="yes"/>
      <point x="181.0" y="-168.0"/>
      <point x="227.0" y="-210.0"/>
    </contour>
  </outline>
</glyph>
<glyph name="Lcaron" format="2">
  <advance width="1230"/>
  <unicode hex="013D"/>
  <outline>
    <contour>
      <point x="716.0" y="1250.0" type="line" smooth="yes"/>
      <point x="762.0" y="1260.0"/>
      <point x="788.0" y="1290.0"/>
      <point x="788.0" y="1328.0" type="curve" smooth="yes"/>
      <point x="788.0" y="1376.0"/>
      <point x="758.0" y="1400.0"/>
      <point x="724.0" y="1400.0" type="curve" smooth="yes"/>
      <point x="130.0" y="1400.0" type="line" smooth="yes"/>
      <point x="88.0" y="1400.0"/>
      <point x="60.0" y="1376.0"/>
      <point x="60.0" y="1328.0" type="curve" smooth="yes"/>
      <point x="60.0" y="1284.0"/>
      <point x="90.0" y="1256.0"/>
      <point x="126.0" y="1246.0" type="curve" smooth="yes"/>
      <point x="164.0" y="1236.0" type="line" smooth="yes"/>
      <point x="216.0" y="1222.0"/>
      <point x="240.0" y="1192.0"/>
      <point x="240.0" y="1132.0" type="curve" smooth="yes"/>
      <point x="240.0" y="238.0" type="line" smooth="yes"/>
      <point x="240.0" y="200.0"/>
      <point x="218.0" y="172.0"/>
      <point x="184.0" y="166.0" type="curve" smooth="yes"/>
      <point x="124.0" y="154.0" type="line" smooth="yes"/>
      <point x="84.0" y="146.0"/>
      <point x="60.0" y="122.0"/>
      <point x="60.0" y="74.0" type="curve" smooth="yes"/>
      <point x="60.0" y="24.0"/>
      <point x="82.0" y="0.0"/>
      <point x="122.0" y="0.0" type="curve" smooth="yes"/>
      <point x="832.0" y="0.0" type="line" smooth="yes"/>
      <point x="918.7640449438202" y="0.0"/>
      <point x="965.4831460674158" y="-42.0"/>
      <point x="1030.0" y="-42.0" type="curve" smooth="yes"/>
      <point x="1092.0" y="-42.0"/>
      <point x="1119.1640218050293" y="-8.400791186918923"/>
      <point x="1138.0" y="64.0" type="curve" smooth="yes"/>
      <point x="1202.0" y="310.0" type="line" smooth="yes"/>
      <point x="1226.0" y="404.0"/>
      <point x="1190.0" y="446.0"/>
      <point x="1144.0" y="446.0" type="curve" smooth="yes"/>
      <point x="1106.0" y="446.0"/>
      <point x="1078.0" y="438.0"/>
      <point x="1038.0" y="370.0" type="curve" smooth="yes"/>
      <point x="984.0" y="280.0" type="line" smooth="yes"/>
      <point x="936.0" y="200.0"/>
      <point x="868.0" y="160.0"/>
      <point x="756.0" y="160.0" type="curve" smooth="yes"/>
      <point x="716.0" y="160.0" type="line" smooth="yes"/>
      <point x="614.0" y="160.0"/>
      <point x="568.0" y="208.0"/>
      <point x="568.0" y="310.0" type="curve" smooth="yes"/>
      <point x="568.0" y="1120.0" type="line" smooth="yes"/>
      <point x="568.0" y="1190.0"/>
      <point x="598.0" y="1222.0"/>
      <point x="656.0" y="1236.0" type="curve" smooth="yes"/>
    </contour>
    <contour>
      <point x="1209.660406122874" y="930.0"/>
      <point x="1237.660406122874" y="900.0"/>
      <point x="1263.660406122874" y="900.0" type="curve" smooth="yes"/>
      <point x="1301.660406122874" y="900.0"/>
      <point x="1331.660406122874" y="916.0"/>
      <point x="1361.660406122874" y="962.0" type="curve" smooth="yes"/>
      <point x="1607.660406122874" y="1342.0" type="line" smooth="yes"/>
      <point x="1633.660406122874" y="1384.0"/>
      <point x="1667.660406122874" y="1434.0"/>
      <point x="1667.660406122874" y="1490.0" type="curve" smooth="yes"/>
      <point x="1667.660406122874" y="1554.0"/>
      <point x="1613.660406122874" y="1598.0"/>
      <point x="1545.660406122874" y="1598.0" type="curve" smooth="yes"/>
      <point x="1477.660406122874" y="1598.0"/>
      <point x="1431.660406122874" y="1556.0"/>
      <point x="1397.660406122874" y="1474.0" type="curve" smooth="yes"/>
      <point x="1229.660406122874" y="1054.0" type="line" smooth="yes"/>
      <point x="1215.660406122874" y="1018.0"/>
      <point x="1209.660406122874" y="994.0"/>
      <point x="1209.660406122874" y="964.0" type="curve" smooth="yes"/>
    </contour>
  </outline>
</glyph>
<glyph name="Lslash" format="2">
  <advance width="1230"/>
  <unicode hex="0141"/>
  <outline>
    <contour>
      <point x="82.0" y="511.18518518518516"/>
      <point x="105.11111111111111" y="490.0"/>
      <point x="134.0" y="490.0" type="curve" smooth="yes"/>
      <point x="146.54545454545453" y="490.0"/>
      <point x="170.0493198723356" y="498.5835998228352"/>
      <point x="180.0" y="502.0" type="curve" smooth="yes"/>
      <point x="770.0" y="704.0" type="line" smooth="yes"/>
      <point x="812.0" y="718.0"/>
      <point x="838.0" y="744.0"/>
      <point x="838.0" y="782.0" type="curve" smooth="yes"/>
      <point x="838.0" y="804.0"/>
      <point x="820.75" y="830.0"/>
      <point x="792.0" y="830.0" type="curve" smooth="yes"/>
      <point x="779.0769230769231" y="830.0"/>
      <point x="767.5659419141047" y="828.0740079571802"/>
      <point x="720.0" y="812.0" type="curve" smooth="yes"/>
      <point x="140.0" y="616.0" type="line" smooth="yes"/>
      <point x="100.5211691471132" y="602.5848633024171"/>
      <point x="82.0" y="572.0"/>
      <point x="82.0" y="542.0" type="curve" smooth="yes"/>
    </contour>
    <contour>
      <point x="716.0" y="1250.0" type="line" smooth="yes"/>
      <point x="762.0" y="1260.0"/>
      <point x="788.0" y="1290.0"/>
      <point x="788.0" y="1328.0" type="curve" smooth="yes"/>
      <point x="788.0" y="1376.0"/>
      <point x="758.0" y="1400.0"/>
      <point x="724.0" y="1400.0" type="curve" smooth="yes"/>
      <point x="130.0" y="1400.0" type="line" smooth="yes"/>
      <point x="88.0" y="1400.0"/>
      <point x="60.0" y="1376.0"/>
      <point x="60.0" y="1328.0" type="curve" smooth="yes"/>
      <point x="60.0" y="1284.0"/>
      <point x="90.0" y="1256.0"/>
      <point x="126.0" y="1246.0" type="curve" smooth="yes"/>
      <point x="164.0" y="1236.0" type="line" smooth="yes"/>
      <point x="216.0" y="1222.0"/>
      <point x="240.0" y="1192.0"/>
      <point x="240.0" y="1132.0" type="curve" smooth="yes"/>
      <point x="240.0" y="238.0" type="line" smooth="yes"/>
      <point x="240.0" y="200.0"/>
      <point x="218.0" y="172.0"/>
      <point x="184.0" y="166.0" type="curve" smooth="yes"/>
      <point x="124.0" y="154.0" type="line" smooth="yes"/>
      <point x="84.0" y="146.0"/>
      <point x="60.0" y="122.0"/>
      <point x="60.0" y="74.0" type="curve" smooth="yes"/>
      <point x="60.0" y="24.0"/>
      <point x="82.0" y="0.0"/>
      <point x="122.0" y="0.0" type="curve" smooth="yes"/>
      <point x="832.0" y="0.0" type="line" smooth="yes"/>
      <point x="918.7640449438202" y="0.0"/>
      <point x="965.4831460674158" y="-42.0"/>
      <point x="1030.0" y="-42.0" type="curve" smooth="yes"/>
      <point x="1092.0" y="-42.0"/>
      <point x="1119.1640218050293" y="-8.400791186918923"/>
      <point x="1138.0" y="64.0" type="curve" smooth="yes"/>
      <point x="1202.0" y="310.0" type="line" smooth="yes"/>
      <point x="1226.0" y="404.0"/>
      <point x="1190.0" y="446.0"/>
      <point x="1144.0" y="446.0" type="curve" smooth="yes"/>
      <point x="1106.0" y="446.0"/>
      <point x="1078.0" y="438.0"/>
      <point x="1038.0" y="370.0" type="curve" smooth="yes"/>
      <point x="984.0" y="280.0" type="line" smooth="yes"/>
      <point x="936.0" y="200.0"/>
      <point x="868.0" y="160.0"/>
      <point x="756.0" y="160.0" type="curve" smooth="yes"/>
      <point x="716.0" y="160.0" type="line" smooth="yes"/>
      <point x="614.0" y="160.0"/>
      <point x="568.0" y="208.0"/>
      <point x="568.0" y="310.0" type="curve" smooth="yes"/>
      <point x="568.0" y="1120.0" type="line" smooth="yes"/>
      <point x="568.0" y="1190.0"/>
      <point x="598.0" y="1222.0"/>
      <point x="656.0" y="1236.0" type="curve" smooth="yes"/>
    </contour>
  </outline>
</glyph>
<glyph name="ncaron" format="2">
  <advance width="1282"/>
  <unicode hex="0148"/>
  <outline>
    <contour>
      <point x="484.0" y="912.0" type="line" smooth="yes"/>
      <point x="484.0" y="952.0"/>
      <point x="462.0" y="980.0"/>
      <point x="426.0" y="980.0" type="curve" smooth="yes"/>
      <point x="390.0" y="980.0"/>
      <point x="360.0" y="966.0"/>
      <point x="308.0" y="946.0" type="curve" smooth="yes"/>
      <point x="100.0" y="868.0" type="line" smooth="yes"/>
      <point x="54.0" y="848.0"/>
      <point x="38.0" y="820.0"/>
      <point x="38.0" y="794.0" type="curve" smooth="yes"/>
      <point x="38.0" y="752.0"/>
      <point x="62.0" y="734.0"/>
      <point x="104.0" y="734.0" type="curve" smooth="yes"/>
      <point x="122.0" y="734.0" type="line" smooth="yes"/>
      <point x="150.0" y="734.0"/>
      <point x="182.0" y="712.0"/>
      <point x="182.0" y="660.0" type="curve" smooth="yes"/>
      <point x="182.0" y="224.0" type="line" smooth="yes"/>
      <point x="182.0" y="182.0"/>
      <point x="158.0" y="152.0"/>
      <point x="118.0" y="136.0" type="curve" smooth="yes"/>
      <point x="104.0" y="130.0" type="line" smooth="yes"/>
      <point x="66.0" y="116.0"/>
      <point x="50.0" y="98.0"/>
      <point x="50.0" y="66.0" type="curve" smooth="yes"/>
      <point x="50.0" y="24.0"/>
      <point x="78.0" y="0.0"/>
      <point x="124.0" y="0.0" type="curve" smooth="yes"/>
      <point x="534.0" y="0.0" type="line" smooth="yes"/>
      <point x="588.0" y="0.0"/>
      <point x="616.0" y="20.0"/>
      <point x="616.0" y="64.0" type="curve" smooth="yes"/>
      <point x="616.0" y="102.0"/>
      <point x="596.0" y="116.0"/>
      <point x="558.0" y="130.0" type="curve" smooth="yes"/>
      <point x="526.0" y="142.0" type="line" smooth="yes"/>
      <point x="498.0" y="152.0"/>
      <point x="484.0" y="180.0"/>
      <point x="484.0" y="236.0" type="curve" smooth="yes"/>
    </contour>
    <contour>
      <point x="444.0" y="646.0" type="line" smooth="yes"/>
      <point x="492.0" y="696.0" type="line" smooth="yes"/>
      <point x="546.0" y="752.0"/>
      <point x="602.0" y="766.0"/>
      <point x="662.0" y="766.0" type="curve" smooth="yes"/>
      <point x="736.0" y="766.0"/>
      <point x="794.0" y="722.0"/>
      <point x="806.0" y="610.0" type="curve" smooth="yes"/>
      <point x="842.0" y="246.0" type="line" smooth="yes"/>
      <point x="850.0" y="172.0"/>
      <point x="828.0" y="146.0"/>
      <point x="784.0" y="138.0" type="curve" smooth="yes"/>
      <point x="764.0" y="134.0" type="line" smooth="yes"/>
      <point x="728.0" y="126.0"/>
      <point x="702.0" y="104.0"/>
      <point x="702.0" y="68.0" type="curve" smooth="yes"/>
      <point x="702.0" y="22.0"/>
      <point x="728.0" y="0.0"/>
      <point x="762.0" y="0.0" type="curve" smooth="yes"/>
      <point x="1206.0" y="0.0" type="line" smooth="yes"/>
      <point x="1242.0" y="0.0"/>
      <point x="1268.0" y="24.0"/>
      <point x="1268.0" y="64.0" type="curve" smooth="yes"/>
      <point x="1268.0" y="102.0"/>
      <point x="1246.0" y="122.0"/>
      <point x="1218.0" y="130.0" type="curve" smooth="yes"/>
      <point x="1202.0" y="134.0" type="line" smooth="yes"/>
      <point x="1176.0" y="142.0"/>
      <point x="1160.0" y="170.0"/>
      <point x="1154.0" y="224.0" type="curve" smooth="yes"/>
      <point x="1102.0" y="706.0" type="line" smooth="yes"/>
      <point x="1082.0" y="888.0"/>
      <point x="968.0" y="980.0"/>
      <point x="832.0" y="980.0" type="curve" smooth="yes"/>
      <point x="676.0" y="980.0"/>
      <point x="548.0" y="914.0"/>
      <point x="436.0" y="800.0" type="curve" smooth="yes"/>
      <point x="372.0" y="734.0" type="line"/>
    </contour>
    <contour>
      <point x="375.0" y="1274.0" type="curve" smooth="yes"/>
      <point x="463.0" y="1158.0" type="line" smooth="yes"/>
      <point x="525.0" y="1076.0"/>
      <point x="581.0" y="1050.0"/>
      <point x="653.0" y="1050.0" type="curve" smooth="yes"/>
      <point x="719.0" y="1050.0"/>
      <point x="777.0" y="1076.0"/>
      <point x="841.0" y="1158.0" type="curve" smooth="yes"/>
      <point x="931.0" y="1274.0" type="line" smooth="yes"/>
      <point x="945.0" y="1292.0"/>
      <point x="965.0" y="1318.0"/>
      <point x="965.0" y="1340.0" type="curve" smooth="yes"/>
      <point x="965.0" y="1371.8461538461538"/>
      <point x="948.3599999999999" y="1386.0"/>
      <point x="913.0" y="1386.0" type="curve" smooth="yes"/>
      <point x="887.3636363636364" y="1386.0"/>
      <point x="865.0" y="1376.0"/>
      <point x="819.0" y="1344.0" type="curve" smooth="yes"/>
      <point x="589.0" y="1190.0" type="line"/>
      <point x="717.0" y="1190.0" type="line"/>
      <point x="487.0" y="1344.0" type="line" smooth="yes"/>
      <point x="443.0" y="1374.0"/>
      <point x="418.6363636363636" y="1384.0"/>
      <point x="393.0" y="1384.0" type="curve" smooth="yes"/>
      <point x="357.64" y="1384.0"/>
      <point x="341.0" y="1370.3703703703704"/>
      <point x="341.0" y="1338.0" type="curve" smooth="yes"/>
      <point x="341.0" y="1315.142857142857"/>
      <point x="361.0" y="1292.0"/>
    </contour>
  </outline>
</glyph>
<glyph name="napostrophe" format="2">
  <advance width="1800"/>
  <unicode hex="0149"/>
  <outline>
    <contour>
      <point x="188.0" y="1268.0" type="curve" smooth="yes"/>
      <point x="248.0" y="1250.0" type="line" smooth="yes"/>
      <point x="294.0" y="1236.0"/>
      <point x="310.0" y="1204.0"/>
      <point x="310.0" y="1150.0" type="curve" smooth="yes"/>
      <point x="310.0" y="1076.0"/>
      <point x="242.0" y="1028.0"/>
      <point x="138.0" y="1010.0" type="curve" smooth="yes"/>
      <point x="80.0" y="1000.0"/>
      <point x="60.0" y="970.0"/>
      <point x="60.0" y="936.0" type="curve" smooth="yes"/>
      <point x="60.0" y="896.0"/>
      <point x="88.0" y="866.0"/>
      <point x="140.0" y="866.0" type="curve" smooth="yes"/>
      <point x="314.0" y="866.0"/>
      <point x="500.0" y="1024.4642857142858"/>
      <point x="500.0" y="1274.0" type="curve" smooth="yes"/>
      <point x="500.0" y="1506.0"/>
      <point x="384.0" y="1622.0"/>
      <point x="246.0" y="1622.0" type="curve" smooth="yes"/>
      <point x="141.3181818181818" y="1622.0"/>
      <point x="58.0" y="1545.1688311688313"/>
      <point x="58.0" y="1448.0" type="curve" smooth="yes"/>
      <point x="58.0" y="1363.4"/>
      <point x="101.86177713751061" y="1293.8414668587468"/>
    </contour>
    <contour>
      <point x="1002.0" y="912.0" type="line" smooth="yes"/>
      <point x="1002.0" y="952.0"/>
      <point x="980.0" y="980.0"/>
      <point x="944.0" y="980.0" type="curve" smooth="yes"/>
      <point x="908.0" y="980.0"/>
      <point x="878.0" y="966.0"/>
      <point x="826.0" y="946.0" type="curve" smooth="yes"/>
      <point x="618.0" y="868.0" type="line" smooth="yes"/>
      <point x="572.0" y="848.0"/>
      <point x="556.0" y="820.0"/>
      <point x="556.0" y="794.0" type="curve" smooth="yes"/>
      <point x="556.0" y="752.0"/>
      <point x="580.0" y="734.0"/>
      <point x="622.0" y="734.0" type="curve" smooth="yes"/>
      <point x="640.0" y="734.0" type="line" smooth="yes"/>
      <point x="668.0" y="734.0"/>
      <point x="700.0" y="712.0"/>
      <point x="700.0" y="660.0" type="curve" smooth="yes"/>
      <point x="700.0" y="224.0" type="line" smooth="yes"/>
      <point x="700.0" y="182.0"/>
      <point x="676.0" y="152.0"/>
      <point x="636.0" y="136.0" type="curve" smooth="yes"/>
      <point x="622.0" y="130.0" type="line" smooth="yes"/>
      <point x="584.0" y="116.0"/>
      <point x="568.0" y="98.0"/>
      <point x="568.0" y="66.0" type="curve" smooth="yes"/>
      <point x="568.0" y="24.0"/>
      <point x="596.0" y="0.0"/>
      <point x="642.0" y="0.0" type="curve" smooth="yes"/>
      <point x="1052.0" y="0.0" type="line" smooth="yes"/>
      <point x="1106.0" y="0.0"/>
      <point x="1134.0" y="20.0"/>
      <point x="1134.0" y="64.0" type="curve" smooth="yes"/>
      <point x="1134.0" y="102.0"/>
      <point x="1114.0" y="116.0"/>
      <point x="1076.0" y="130.0" type="curve" smooth="yes"/>
      <point x="1044.0" y="142.0" type="line" smooth="yes"/>
      <point x="1016.0" y="152.0"/>
      <point x="1002.0" y="180.0"/>
      <point x="1002.0" y="236.0" type="curve" smooth="yes"/>
    </contour>
    <contour>
      <point x="962.0" y="646.0" type="line" smooth="yes"/>
      <point x="1010.0" y="696.0" type="line" smooth="yes"/>
      <point x="1064.0" y="752.0"/>
      <point x="1120.0" y="766.0"/>
      <point x="1180.0" y="766.0" type="curve" smooth="yes"/>
      <point x="1254.0" y="766.0"/>
      <point x="1312.0" y="722.0"/>
      <point x="1324.0" y="610.0" type="curve" smooth="yes"/>
      <point x="1360.0" y="246.0" type="line" smooth="yes"/>
      <point x="1368.0" y="172.0"/>
      <point x="1346.0" y="146.0"/>
      <point x="1302.0" y="138.0" type="curve" smooth="yes"/>
      <point x="1282.0" y="134.0" type="line" smooth="yes"/>
      <point x="1246.0" y="126.0"/>
      <point x="1220.0" y="104.0"/>
      <point x="1220.0" y="68.0" type="curve" smooth="yes"/>
      <point x="1220.0" y="22.0"/>
      <point x="1246.0" y="0.0"/>
      <point x="1280.0" y="0.0" type="curve" smooth="yes"/>
      <point x="1724.0" y="0.0" type="line" smooth="yes"/>
      <point x="1760.0" y="0.0"/>
      <point x="1786.0" y="24.0"/>
      <point x="1786.0" y="64.0" type="curve" smooth="yes"/>
      <point x="1786.0" y="102.0"/>
      <point x="1764.0" y="122.0"/>
      <point x="1736.0" y="130.0" type="curve" smooth="yes"/>
      <point x="1720.0" y="134.0" type="line" smooth="yes"/>
      <point x="1694.0" y="142.0"/>
      <point x="1678.0" y="170.0"/>
      <point x="1672.0" y="224.0" type="curve" smooth="yes"/>
      <point x="1620.0" y="706.0" type="line" smooth="yes"/>
      <point x="1600.0" y="888.0"/>
      <point x="1486.0" y="980.0"/>
      <point x="1350.0" y="980.0" type="curve" smooth="yes"/>
      <point x="1194.0" y="980.0"/>
      <point x="1066.0" y="914.0"/>
      <point x="954.0" y="800.0" type="curve" smooth="yes"/>
      <point x="890.0" y="734.0" type="line"/>
    </contour>
  </outline>
</glyph>
<glyph name="OE" format="2">
  <advance width="2204"/>
  <unicode hex="0152"/>
  <outline>
    <contour>
      <point x="1128.0" y="1400.0" type="line"/>
      <point x="1050.0" y="1400.0"/>
      <point x="927.045643153527" y="1426.0"/>
      <point x="794.0" y="1426.0" type="curve" smooth="yes"/>
      <point x="340.0" y="1426.0"/>
      <point x="60.0" y="1100.0"/>
      <point x="60.0" y="708.0" type="curve" smooth="yes"/>
      <point x="60.0" y="270.0"/>
      <point x="344.0" y="-30.0"/>
      <point x="794.0" y="-30.0" type="curve" smooth="yes"/>
      <point x="966.0" y="-30.0"/>
      <point x="1106.0" y="0.0"/>
      <point x="1194.0" y="0.0" type="curve"/>
      <point x="1102.0" y="308.0" type="line"/>
      <point x="1102.0" y="192.0"/>
      <point x="1022.0" y="154.0"/>
      <point x="890.0" y="154.0" type="curve" smooth="yes"/>
      <point x="640.0" y="154.0"/>
      <point x="400.0" y="446.0"/>
      <point x="400.0" y="830.0" type="curve" smooth="yes"/>
      <point x="400.0" y="1087.2115384615386"/>
      <point x="535.485380116959" y="1258.0"/>
      <point x="762.0" y="1258.0" type="curve" smooth="yes"/>
      <point x="967.8888888888889" y="1258.0"/>
      <point x="1102.0" y="1160.0"/>
      <point x="1102.0" y="1014.0" type="curve"/>
    </contour>
    <contour>
      <point x="1338.0" y="780.0" type="line"/>
      <point x="1306.0" y="638.0" type="line"/>
      <point x="1626.0" y="638.0" type="line" smooth="yes"/>
      <point x="1710.0" y="638.0"/>
      <point x="1760.0" y="624.0"/>
      <point x="1792.0" y="582.0" type="curve" smooth="yes"/>
      <point x="1844.0" y="514.0"/>
      <point x="1866.0" y="486.0"/>
      <point x="1912.0" y="486.0" type="curve" smooth="yes"/>
      <point x="1952.0" y="486.0"/>
      <point x="1980.0" y="508.0"/>
      <point x="1980.0" y="550.0" type="curve" smooth="yes"/>
      <point x="1980.0" y="564.0"/>
      <point x="1978.0" y="584.0"/>
      <point x="1972.0" y="606.0" type="curve" smooth="yes"/>
      <point x="1910.0" y="848.0" type="line" smooth="yes"/>
      <point x="1896.0" y="904.0"/>
      <point x="1876.0" y="932.0"/>
      <point x="1832.0" y="932.0" type="curve" smooth="yes"/>
      <point x="1788.0" y="932.0"/>
      <point x="1768.0" y="906.0"/>
      <point x="1742.0" y="852.0" type="curve" smooth="yes"/>
      <point x="1716.0" y="800.0"/>
      <point x="1686.0" y="780.0"/>
      <point x="1622.0" y="780.0" type="curve" smooth="yes"/>
    </contour>
    <contour>
      <point x="922.0" y="1328.0" type="curve" smooth="yes"/>
      <point x="922.0" y="1288.0"/>
      <point x="948.0" y="1258.0"/>
      <point x="982.0" y="1250.0" type="curve" smooth="yes"/>
      <point x="1046.0" y="1236.0" type="line" smooth="yes"/>
      <point x="1080.0" y="1228.0"/>
      <point x="1102.0" y="1202.0"/>
      <point x="1102.0" y="1164.0" type="curve" smooth="yes"/>
      <point x="1102.0" y="268.0" type="line" smooth="yes"/>
      <point x="1102.0" y="208.0"/>
      <point x="1078.0" y="180.0"/>
      <point x="1026.0" y="164.0" type="curve" smooth="yes"/>
      <point x="996.0" y="156.0" type="line" smooth="yes"/>
      <point x="944.0" y="142.0"/>
      <point x="922.0" y="114.0"/>
      <point x="922.0" y="68.0" type="curve" smooth="yes"/>
      <point x="922.0" y="22.0"/>
      <point x="950.0" y="0.0"/>
      <point x="994.0" y="0.0" type="curve" smooth="yes"/>
      <point x="1810.0" y="0.0" type="line" smooth="yes"/>
      <point x="1872.7804878048782" y="0.0"/>
      <point x="1905.3333333333333" y="-42.0"/>
      <point x="1966.0" y="-42.0" type="curve" smooth="yes"/>
      <point x="2009.7586206896553" y="-42.0"/>
      <point x="2042.0" y="-18.0"/>
      <point x="2060.0" y="48.0" type="curve" smooth="yes"/>
      <point x="2128.0" y="288.0" type="line" smooth="yes"/>
      <point x="2138.0" y="326.0"/>
      <point x="2140.0" y="352.0"/>
      <point x="2140.0" y="370.0" type="curve" smooth="yes"/>
      <point x="2140.0" y="420.0"/>
      <point x="2114.0" y="452.0"/>
      <point x="2058.0" y="452.0" type="curve" smooth="yes"/>
      <point x="2014.0" y="452.0"/>
      <point x="1978.0" y="420.0"/>
      <point x="1916.0" y="314.0" type="curve" smooth="yes"/>
      <point x="1842.0" y="188.0"/>
      <point x="1770.0" y="160.0"/>
      <point x="1664.0" y="160.0" type="curve" smooth="yes"/>
      <point x="1610.0" y="160.0" type="line" smooth="yes"/>
      <point x="1494.0" y="160.0"/>
      <point x="1430.0" y="232.0"/>
      <point x="1430.0" y="340.0" type="curve" smooth="yes"/>
      <point x="1430.0" y="1260.0" type="line"/>
      <point x="1594.0" y="1260.0" type="line" smooth="yes"/>
      <point x="1724.0" y="1260.0"/>
      <point x="1814.0" y="1198.0"/>
      <point x="1908.0" y="1056.0" type="curve" smooth="yes"/>
      <point x="1952.0" y="988.0"/>
      <point x="1994.0" y="970.0"/>
      <point x="2034.0" y="970.0" type="curve" smooth="yes"/>
      <point x="2076.0" y="970.0"/>
      <point x="2106.0" y="994.0"/>
      <point x="2106.0" y="1034.0" type="curve" smooth="yes"/>
      <point x="2106.0" y="1044.0"/>
      <point x="2104.0" y="1062.0"/>
      <point x="2098.0" y="1084.0" type="curve" smooth="yes"/>
      <point x="2036.0" y="1356.0" type="line" smooth="yes"/>
      <point x="2022.4361852379002" y="1415.5057679885667"/>
      <point x="2000.235294117647" y="1446.0"/>
      <point x="1960.0" y="1446.0" type="curve" smooth="yes"/>
      <point x="1930.5333333333333" y="1446.0"/>
      <point x="1909.0958632441748" y="1436.5900802084018"/>
      <point x="1882.0" y="1422.0" type="curve" smooth="yes"/>
      <point x="1850.98716574213" y="1404.5552807299482"/>
      <point x="1822.3902439024391" y="1400.0"/>
      <point x="1788.0" y="1400.0" type="curve" smooth="yes"/>
      <point x="988.0" y="1400.0" type="line" smooth="yes"/>
      <point x="946.0" y="1400.0"/>
      <point x="922.0" y="1372.0"/>
    </contour>
  </outline>
</glyph>
<glyph name="racute" format="2">
  <advance width="930"/>
  <unicode hex="0155"/>
  <outline>
    <contour>
      <point x="448.0" y="526.0" type="line"/>
      <point x="454.5766003797053" y="797.832815694486"/>
      <point x="571.2" y="982.0"/>
      <point x="734.0" y="982.0" type="curve" smooth="yes"/>
      <point x="849.8113207547169" y="982.0"/>
      <point x="920.0" y="893.2"/>
      <point x="920.0" y="760.0" type="curve" smooth="yes"/>
      <point x="920.0" y="644.0"/>
      <point x="854.0" y="584.0"/>
      <point x="760.0" y="584.0" type="curve" smooth="yes"/>
      <point x="696.0" y="584.0"/>
      <point x="654.0" y="616.0"/>
      <point x="628.0" y="664.0" type="curve" smooth="yes"/>
      <point x="605.3420960315192" y="709.3158079369616"/>
      <point x="595.4285714285714" y="720.0"/>
      <point x="568.0" y="720.0" type="curve" smooth="yes"/>
      <point x="522.2857142857143" y="720.0"/>
      <point x="488.0" y="658.4367816091955"/>
      <point x="488.0" y="514.0" type="curve"/>
    </contour>
    <contour>
      <point x="488.0" y="914.0" type="curve" smooth="yes"/>
      <point x="488.0" y="276.0" type="line" smooth="yes"/>
      <point x="488.0" y="230.0"/>
      <point x="512.0" y="184.0"/>
      <point x="566.0" y="166.0" type="curve" smooth="yes"/>
      <point x="646.0" y="140.0" type="line" smooth="yes"/>
      <point x="698.0" y="124.0"/>
      <point x="722.0" y="104.0"/>
      <point x="722.0" y="66.0" type="curve" smooth="yes"/>
      <point x="722.0" y="22.0"/>
      <point x="694.0" y="0.0"/>
      <point x="654.0" y="0.0" type="curve" smooth="yes"/>
      <point x="114.0" y="0.0" type="line" smooth="yes"/>
      <point x="70.0" y="0.0"/>
      <point x="44.0" y="24.0"/>
      <point x="44.0" y="66.0" type="curve" smooth="yes"/>
      <point x="44.0" y="94.0"/>
      <point x="60.0" y="108.0"/>
      <point x="94.0" y="122.0" type="curve" smooth="yes"/>
      <point x="132.0" y="138.0" type="line" smooth="yes"/>
      <point x="166.0" y="152.0"/>
      <point x="192.0" y="188.0"/>
      <point x="192.0" y="236.0" type="curve" smooth="yes"/>
      <point x="192.0" y="666.0" type="line" smooth="yes"/>
      <point x="192.0" y="716.0"/>
      <point x="160.0" y="738.0"/>
      <point x="132.0" y="738.0" type="curve" smooth="yes"/>
      <point x="114.0" y="738.0" type="line" smooth="yes"/>
      <point x="74.0" y="738.0"/>
      <point x="50.0" y="756.0"/>
      <point x="50.0" y="796.0" type="curve" smooth="yes"/>
      <point x="50.0" y="822.0"/>
      <point x="66.0" y="854.0"/>
      <point x="110.0" y="870.0" type="curve" smooth="yes"/>
      <point x="314.0" y="948.0" type="line" smooth="yes"/>
      <point x="366.0" y="968.0"/>
      <point x="396.0" y="980.0"/>
      <point x="430.0" y="980.0" type="curve" smooth="yes"/>
      <point x="466.0" y="980.0"/>
      <point x="488.0" y="954.0"/>
    </contour>
    <contour>
      <point x="472.0" y="1188.0" type="curve" smooth="yes"/>
      <point x="606.0" y="1308.0" type="line" smooth="yes"/>
      <point x="696.7759736146709" y="1389.2919166698546"/>
      <point x="779.2026143790849" y="1430.0"/>
      <point x="856.0" y="1430.0" type="curve" smooth="yes"/>
      <point x="935.8" y="1430.0"/>
      <point x="970.0" y="1398.0"/>
      <point x="970.0" y="1338.0" type="curve" smooth="yes"/>
      <point x="970.0" y="1282.0"/>
      <point x="917.5936962117771" y="1232.1171632952996"/>
      <point x="824.0" y="1190.0" type="curve" smooth="yes"/>
      <point x="624.0" y="1100.0" type="line" smooth="yes"/>
      <point x="566.0" y="1074.0"/>
      <point x="519.4545454545455" y="1058.0"/>
      <point x="486.0" y="1058.0" type="curve" smooth="yes"/>
      <point x="448.0769230769231" y="1058.0"/>
      <point x="428.0" y="1079.2727272727273"/>
      <point x="428.0" y="1110.0" type="curve" smooth="yes"/>
      <point x="428.0" y="1137.2093023255813"/>
      <point x="448.0" y="1166.0"/>
    </contour>
  </outline>
</glyph>
<glyph name="Rcaron" format="2">
  <advance width="1424"/>
  <unicode hex="0158"/>
  <outline>
    <contour>
      <point x="1328.0" y="902.0" type="curve" smooth="yes"/>
      <point x="1328.0" y="1204.0"/>
      <point x="1032.0" y="1400.0"/>
      <point x="638.0" y="1400.0" type="curve" smooth="yes"/>
      <point x="122.0" y="1400.0" type="line" smooth="yes"/>
      <point x="76.0" y="1400.0"/>
      <point x="50.0" y="1372.0"/>
      <point x="50.0" y="1326.0" type="curve" smooth="yes"/>
      <point x="50.0" y="1286.0"/>
      <point x="70.0" y="1260.0"/>
      <point x="116.0" y="1248.0" type="curve" smooth="yes"/>
      <point x="166.0" y="1236.0" type="line" smooth="yes"/>
      <point x="214.0" y="1224.0"/>
      <point x="240.0" y="1192.0"/>
      <point x="240.0" y="1146.0" type="curve" smooth="yes"/>
      <point x="240.0" y="250.0" type="line" smooth="yes"/>
      <point x="240.0" y="206.0"/>
      <point x="214.0" y="174.0"/>
      <point x="166.0" y="162.0" type="curve" smooth="yes"/>
      <point x="116.0" y="150.0" type="line" smooth="yes"/>
      <point x="70.0" y="140.0"/>
      <point x="52.0" y="112.0"/>
      <point x="52.0" y="72.0" type="curve" smooth="yes"/>
      <point x="52.0" y="28.0"/>
      <point x="76.0" y="0.0"/>
      <point x="122.0" y="0.0" type="curve" smooth="yes"/>
      <point x="668.0" y="0.0" type="line" smooth="yes"/>
      <point x="712.0" y="0.0"/>
      <point x="736.0" y="28.0"/>
      <point x="736.0" y="72.0" type="curve" smooth="yes"/>
      <point x="736.0" y="110.0"/>
      <point x="716.0" y="134.0"/>
      <point x="676.0" y="146.0" type="curve" smooth="yes"/>
      <point x="622.0" y="162.0" type="line" smooth="yes"/>
      <point x="588.0" y="172.0"/>
      <point x="568.0" y="200.0"/>
      <point x="568.0" y="250.0" type="curve" smooth="yes"/>
      <point x="568.0" y="1252.0" type="line"/>
      <point x="626.0" y="1252.0" type="line" smooth="yes"/>
      <point x="834.0" y="1252.0"/>
      <point x="978.0" y="1116.0"/>
      <point x="978.0" y="916.0" type="curve" smooth="yes"/>
      <point x="978.0" y="748.0"/>
      <point x="858.0" y="630.0"/>
      <point x="690.0" y="630.0" type="curve" smooth="yes"/>
      <point x="580.0" y="630.0"/>
      <point x="518.0" y="648.0"/>
      <point x="442.0" y="690.0" type="curve"/>
      <point x="422.0" y="556.0" type="line"/>
      <point x="516.0" y="506.0"/>
      <point x="594.0" y="484.0"/>
      <point x="760.0" y="484.0" type="curve" smooth="yes"/>
      <point x="1100.0" y="484.0"/>
      <point x="1328.0" y="650.0"/>
    </contour>
    <contour>
      <point x="690.0" y="544.0" type="line"/>
      <point x="902.0" y="248.0" type="line" smooth="yes"/>
      <point x="918.0" y="226.0"/>
      <point x="928.0" y="208.0"/>
      <point x="928.0" y="186.0" type="curve" smooth="yes"/>
      <point x="928.0" y="170.0"/>
      <point x="922.0" y="156.0"/>
      <point x="898.0" y="146.0" type="curve" smooth="yes"/>
      <point x="866.0" y="132.0"/>
      <point x="850.0" y="108.0"/>
      <point x="850.0" y="66.0" type="curve" smooth="yes"/>
      <point x="850.0" y="28.0"/>
      <point x="880.0" y="0.0"/>
      <point x="930.0" y="0.0" type="curve" smooth="yes"/>
      <point x="1354.0" y="0.0" type="line" smooth="yes"/>
      <point x="1402.0" y="0.0"/>
      <point x="1424.0" y="28.0"/>
      <point x="1424.0" y="72.0" type="curve" smooth="yes"/>
      <point x="1424.0" y="108.0"/>
      <point x="1402.0" y="130.0"/>
      <point x="1374.0" y="146.0" type="curve" smooth="yes"/>
      <point x="1324.0" y="176.0"/>
      <point x="1284.0" y="192.0"/>
      <point x="1254.0" y="236.0" type="curve" smooth="yes"/>
      <point x="1026.0" y="566.0" type="line"/>
    </contour>
    <contour>
      <point x="332.09999999998837" y="1695.6000000000001" type="curve" smooth="yes"/>
      <point x="424.4999999999884" y="1591.2" type="line" smooth="yes"/>
      <point x="489.59999999998837" y="1517.4"/>
      <point x="548.3999999999884" y="1494.0"/>
      <point x="623.9999999999884" y="1494.0" type="curve" smooth="yes"/>
      <point x="693.2999999999884" y="1494.0"/>
      <point x="754.1999999999883" y="1517.4"/>
      <point x="821.3999999999884" y="1591.2" type="curve" smooth="yes"/>
      <point x="915.8999999999884" y="1695.6000000000001" type="line" smooth="yes"/>
      <point x="930.5999999999884" y="1711.8"/>
      <point x="951.5999999999884" y="1735.2"/>
      <point x="951.5999999999884" y="1755.0" type="curve" smooth="yes"/>
      <point x="951.5999999999884" y="1783.6615384615384"/>
      <point x="934.1279999999883" y="1796.4"/>
      <point x="896.9999999999884" y="1796.4" type="curve" smooth="yes"/>
      <point x="870.0818181818066" y="1796.4"/>
      <point x="846.5999999999884" y="1787.4"/>
      <point x="798.2999999999884" y="1758.6000000000001" type="curve" smooth="yes"/>
      <point x="556.7999999999884" y="1620.0" type="line"/>
      <point x="691.1999999999884" y="1620.0" type="line"/>
      <point x="449.69999999998834" y="1758.6000000000001" type="line" smooth="yes"/>
      <point x="403.4999999999884" y="1785.6000000000001"/>
      <point x="377.9181818181702" y="1794.6000000000001"/>
      <point x="350.9999999999884" y="1794.6000000000001" type="curve" smooth="yes"/>
      <point x="313.87199999998836" y="1794.6000000000001"/>
      <point x="296.3999999999884" y="1782.3333333333335"/>
      <point x="296.3999999999884" y="1753.2" type="curve" smooth="yes"/>
      <point x="296.3999999999884" y="1732.6285714285714"/>
      <point x="317.3999999999884" y="1711.8"/>
    </contour>
  </outline>
</glyph>
